<svg
xmlns="http://www.w3.org/2000/svg" 
viewBox="25 50 300 300"
width="200"
height="200"
>

 <g
 >
 <g
transform="matrix(-2.3090592,0,0,2.28284,517.50007,-22.81164)"
style="fill:#ffd700;fill-opacity:1;stroke:#da2d1c;stroke-opacity:1"
>
 <path
 style="fill:#ffd700;fill-opacity:1;stroke:#da2d1c;stroke-opacity:1"
 d="m 177.63218,127.57708 c -0.36293,-2.02966 -3.15517,-2.04764 -4.10764,-0.5371 -1.03262,1.63789 -2.13078,3.47877 -4.35933,3.12296 -1.11801,-0.17904 -2.06112,-0.56107 -2.78661,-1.18169 -0.0154,-0.0322 -0.0322,-0.0622 -0.0468,-0.0955 -0.20937,-0.47455 -0.50639,-0.78805 -0.84497,-0.97157 -0.24233,-0.4135 -0.42998,-0.8858 -0.55658,-1.4229 -0.66482,-2.8207 -4.99868,-1.6244 -4.33423,1.19443 0.37342,1.58432 1.11202,2.91396 2.11168,3.98066 3.50949,6.33356 16.34515,3.83534 14.92937,-4.09003 z" 
 />
<path
style="fill:#ffd700;fill-opacity:1;stroke:#da2d1c;stroke-opacity:1"
d="m 126.28991,125.83919 c -0.42248,1.48732 -1.13487,3.33645 -2.43529,4.2788 -1.74238,1.26259 -3.42259,-1.73264 -3.87017,-2.97576 -0.97382,-2.70609 -5.3178,-1.53901 -4.33387,1.19442 1.28994,3.58478 4.06569,6.90811 8.24674,6.42682 3.70163,-0.42623 5.81481,-4.51926 6.72645,-7.72986 0.79366,-2.79036 -3.54357,-3.97392 -4.33386,-1.19105 z" 
/>
<path
style="fill:#ffd700;fill-opacity:1;stroke:#da2d1c;stroke-opacity:1"
d="m 129.72112,129.8206 17.15042,-29.70554 17.95682,31.1026 c 11.53336,-6.34817 19.42016,-19.18458 19.42016,-33.986976 0,-21.107489 -16.03428,-38.218582 -35.81325,-38.218582 -19.77898,0 -35.81326,17.111093 -35.81326,38.218582 0.003,13.783256 6.84481,25.866086 17.10173,32.589166 z" 
/>
<path
style="fill:#ffd700;fill-opacity:1;stroke:#da2d1c;stroke-opacity:1"
d="m 152.19682,115.64782 c -1.11127,0 -0.5989,-0.13671 -2.75628,-0.64385 -2.69297,-0.63223 -5.92155,-0.10899 -11.70902,-0.97906 -1.03075,-0.15469 -1.24612,-0.70452 -1.86224,-1.65923 -3.82598,-5.9283 -1.36747,-16.224548 -0.94198,-18.617516 1.12326,-6.319325 7.11373,-8.483821 13.50684,-7.944102 3.4357,0.292145 7.21187,1.360722 10.14268,5.127522 3.86568,4.968341 4.58069,11.135226 3.64807,16.786736 l -1.76336,-0.29402 c 0.79891,-4.84174 0.80752,-10.165151 -2.55402,-14.485903 -2.38398,-3.063779 -5.71106,-5.340264 -9.60259,-5.408057 -5.83391,-0.101501 -10.0805,2.518442 -10.91237,7.198008 -1.15435,6.491992 -1.33637,13.695992 0.22024,15.917422 0.25955,0.37005 0.47305,0.40226 0.56406,0.41612 5.90807,0.88804 10.04942,1.86074 12.78959,2.50458 1.74351,0.40975 1.75549,-2.08734 2.41544,-2.10682 0.0974,-0.5502 1.67085,1.00528 1.60455,-0.28915 -0.076,-1.47833 -0.94685,-5.65638 -0.94685,-5.65638 0,-2.26899 1.58021,-6.017064 -0.12097,-8.756487 -1.02064,-1.643129 -1.72216,-4.023738 -5.48522,-5.012162 -2.61133,-0.686167 -4.34172,-0.841977 -7.5115,2.327423 l -1.39967,2.089213 0.31274,-2.089213 c 1.02588,-2.431547 3.41735,-4.289665 7.09538,-4.176927 4.00015,0.466309 6.3624,2.400834 8.42352,5.36461 2.14465,3.083629 1.22664,8.751623 1.22664,10.929603 0.004,2.19446 1.32476,3.41285 1.39743,4.82676 0.15431,3.01022 -1.69257,1.92217 -2.91059,2.93906 -0.53823,0.44907 -0.5165,0.66631 -1.33151,0.66631 l -1.53189,1.02251 z" 
/>
<path
style="fill:#ffd700;fill-opacity:1;stroke:#da2d1c;stroke-width:1.87273;stroke-opacity:1"
d="m 115.5959,128.12391 c -3.63646,5.33727 -12.98098,-5.77174 -6.64743,-8.24748" 
/>
<path
style="fill:#ffd700;fill-opacity:1;stroke:#da2d1c;stroke-width:0.374545;stroke-opacity:1"
d="m 108.03084,119.36705 c 5.65975,-3.72111 10.57603,-6.57477 10.57603,-6.57477 l 4.64211,2.33567 1.24873,4.97321 -8.63813,9.05874 c -4.59642,1.45324 -10.55768,-4.23236 -7.82874,-9.7981 z" 
/>
<path
style="fill:#ffd700;fill-opacity:1;stroke:#da2d1c;stroke-width:1.49818;stroke-linecap:round;stroke-opacity:1"
d="m 117.71957,119.58428 c 0.79366,-0.64983 1.68021,-1.25585 2.49784,-1.91467" 
/>
<rect
style="fill:#ffd700;fill-opacity:1;stroke:#da2d1c;stroke-opacity:1"
transform="rotate(-173.86924)"
y="-111.52254"
x="-128.43622"
height="3.7605057"
width="3.7605057" 
/>
 <path
         style="fill:#ffd700;fill-opacity:1;stroke:#da2d1c;stroke-opacity:1"
         id="path22"
         d="m 114.60186,117.68909 c 0.9049,-0.72887 2.22779,0.20075 3.43083,1.69331 1.20304,1.49294 1.83078,2.98326 0.92588,3.7125 -0.90453,0.72886 -2.17836,-2.70272 -2.17836,-2.70272 0,0 -3.08288,-1.97385 -2.17835,-2.70047 z" />
      <path
         style="fill:#ffd700;fill-opacity:1;stroke:#da2d1c;stroke-opacity:1"
         id="path24"
         d="m 112.15421,118.81272 c 1.77646,-1.43151 3.61997,-0.54271 5.05149,1.23375 1.43151,1.7761 1.90905,3.7668 0.13258,5.19831 -1.77609,1.43189 -2.59222,-3.21621 -2.59222,-3.21621 0,0 -4.36795,-1.77909 -2.59185,-3.2136 z" />
      <path
         style="fill:#ffd700;fill-opacity:1;stroke:#da2d1c;stroke-width:1.87273;stroke-opacity:1"
         id="path26"
         d="m 108.31062,117.82018 c -4.97171,4.11999 -10.874913,-9.14227 -4.10351,-9.76589" />
      <path
         style="fill:#ffd700;fill-opacity:1;stroke:#da2d1c;stroke-width:0.374545;stroke-opacity:1"
         id="path28"
         d="m 103.46663,107.31044 c 6.46877,-2.00756 11.9832,-3.38851 11.9832,-3.38851 l 3.81362,3.52972 -0.17716,5.1249 -10.80863,6.31258 c -4.82114,0.13484 -8.974846,-6.98152 -4.81103,-11.57344 z" />
      <path
         style="fill:#ffd700;fill-opacity:1;stroke:#da2d1c;stroke-width:1.49818;stroke-linecap:round;stroke-opacity:1"
         id="path30"
         d="m 112.71602,110.20193 c 0.94273,-0.40488 1.96224,-0.74122 2.93044,-1.14798" />
      <rect
         style="fill:#ffd700;fill-opacity:1;stroke:#da2d1c;stroke-opacity:1"
         id="rect32"
         transform="rotate(-157.79002)"
         y="-64.614006"
         x="-144.6299"
         height="3.7600393"
         width="3.7604139" />
      <path
         style="fill:#ffd700;fill-opacity:1;stroke:#da2d1c;stroke-opacity:1"
         id="path34"
         d="m 110.2459,107.51644 c 1.0712,-0.44983 2.08472,0.80977 2.82781,2.57725 0.74273,1.76785 0.933,3.37352 -0.1382,3.82373 -1.07083,0.44983 -1.34462,-3.20012 -1.34462,-3.20012 0,0 -2.41619,-2.7529 -1.34499,-3.20236 z" />
      <path
         style="fill:#ffd700;fill-opacity:1;stroke:#da2d1c;stroke-opacity:1"
         id="path36"
         d="m 107.58213,107.92095 c 2.10345,-0.88355 3.6286,0.48054 4.51215,2.58399 0.88392,2.10307 0.79141,4.14808 -1.31166,5.03201 -2.10344,0.88393 -1.60006,-3.80837 -1.60006,-3.80837 0,0 -3.7035,-2.92146 -1.60043,-3.80538 z" />
      <path
         style="fill:#ffd700;fill-opacity:1;stroke:#da2d1c;stroke-width:1.87273;stroke-opacity:1"
         id="path38"
         d="m 104.16366,105.90215 c -5.918561,2.58212 -7.917883,-11.79667 -1.23862,-10.520595" />
      <path
         style="fill:#ffd700;fill-opacity:1;stroke:#da2d1c;stroke-width:0.374545;stroke-opacity:1"
         id="path40"
         d="m 102.42015,94.459799 c 6.77215,-0.137832 12.45288,0.06255 12.45288,0.06255 l 2.68661,4.447723 -1.58957,4.875448 -12.13414,3.07202 c -4.667578,-1.21352 -6.688998,-9.198823 -1.41578,-12.461111 z" />
      <path
         style="fill:#ffd700;fill-opacity:1;stroke:#da2d1c;stroke-width:1.49818;stroke-linecap:round;stroke-opacity:1"
         id="path42"
         d="m 110.50658,99.800812 c 1.01802,-0.128094 2.09071,-0.169294 3.13382,-0.29177" />
      <rect
         style="fill:#ffd700;fill-opacity:1;stroke:#da2d1c;stroke-opacity:1"
         id="rect44"
         transform="rotate(-141.71244)"
         y="-15.059922"
         x="-147.19545"
         height="3.7600064"
         width="3.7603812" />
      <path
         style="fill:#ffd700;fill-opacity:1;stroke:#da2d1c;stroke-opacity:1"
         id="path46"
         d="m 108.87694,96.534779 c 1.15397,-0.135585 1.77909,1.355853 2.00344,3.259666 0.22435,1.904185 -0.0375,3.500125 -1.1918,3.635705 -1.1536,0.13596 -0.40601,-3.446934 -0.40601,-3.446934 0,0 -1.55961,-3.310979 -0.40563,-3.449561 z" />
      <path
         style="fill:#ffd700;fill-opacity:1;stroke:#da2d1c;stroke-opacity:1"
         id="path48"
         d="m 106.20531,96.186452 c 2.26562,-0.266676 3.35367,1.467093 3.61997,3.732717 0.26668,2.265621 -0.3884,4.205021 -2.65402,4.471321 -2.266,0.26705 -0.48317,-4.10239 -0.48317,-4.10239 0,0 -2.74841,-3.835346 -0.48278,-4.105019 z" />
      <path
         style="fill:#ffd700;fill-opacity:1;stroke:#da2d1c;stroke-width:1.87273;stroke-opacity:1"
         id="path50"
         d="m 103.47937,93.302455 c -6.401728,0.838981 -4.341356,-13.529318 1.72365,-10.453554" />
      <path
         style="fill:#ffd700;fill-opacity:1;stroke:#da2d1c;stroke-width:0.374545;stroke-opacity:1"
         id="path52"
         d="m 104.97268,81.823771 c 6.54517,1.743133 11.94836,3.508739 11.94836,3.508739 l 1.34986,5.01778 -2.87763,4.244345 -12.51018,-0.408254 c -4.149959,-2.457016 -3.879912,-10.689517 2.08959,-12.36261 z" />
      <path
         style="fill:#ffd700;fill-opacity:1;stroke:#da2d1c;stroke-width:1.49818;stroke-linecap:round;stroke-opacity:1"
         id="path54"
         d="m 111.26354,89.197441 c 1.01352,0.158807 2.05588,0.416119 3.09224,0.587286" />
      <rect
         style="fill:#ffd700;fill-opacity:1;stroke:#da2d1c;stroke-opacity:1"
         id="rect56"
         transform="rotate(-125.63559)"
         y="33.263744"
         x="-135.93843"
         height="3.7602525"
         width="3.7602525" />
      <path
         style="fill:#ffd700;fill-opacity:1;stroke:#da2d1c;stroke-opacity:1"
         id="path58"
         d="m 110.60209,85.605553 c 1.14648,0.189145 1.33413,1.795195 1.02213,3.686648 -0.31199,1.891827 -1.00527,3.352927 -2.15213,3.163407 -1.14611,-0.18877 0.56444,-3.42484 0.56444,-3.42484 0,0 -0.58092,-3.61436 0.56556,-3.427088 z" />
      <path
         style="fill:#ffd700;fill-opacity:1;stroke:#da2d1c;stroke-opacity:1"
         id="path60"
         d="m 108.13197,84.530609 c 2.25101,0.371174 2.8162,2.338285 2.44465,4.589301 -0.37117,2.251016 -1.53751,3.932723 -3.78852,3.561549 -2.25139,-0.3708 0.67193,-4.0758 0.67193,-4.0758 0,0 -1.57945,-4.44585 0.67194,-4.07505 z" />
      <path
         style="fill:#ffd700;fill-opacity:1;stroke:#da2d1c;stroke-width:1.87273;stroke-opacity:1"
         id="path62"
         d="m 106.31168,81.003143 c -6.384874,-0.963705 -0.42511,-14.200878 4.55072,-9.566256" />
      <path
         style="fill:#ffd700;fill-opacity:1;stroke:#da2d1c;stroke-width:0.374545;stroke-opacity:1"
         id="path64"
         d="m 110.92495,70.38816 c 5.80657,3.48739 10.50973,6.680387 10.50973,6.680387 l -0.0925,5.195315 -3.94059,3.281389 -11.90754,-3.857065 c -3.30798,-3.509113 -0.76856,-11.346469 5.43091,-11.3004 z" />
      <path
         style="fill:#ffd700;fill-opacity:1;stroke:#da2d1c;stroke-width:1.49818;stroke-linecap:round;stroke-opacity:1"
         id="path66"
         d="m 114.92846,79.213941 c 0.92962,0.433349 1.86037,0.969323 2.80871,1.42065" />
      <rect
         style="fill:#ffd700;fill-opacity:1;stroke:#da2d1c;stroke-opacity:1"
         id="rect68"
         transform="rotate(-109.56017)"
         y="76.581329"
         x="-111.73907"
         height="3.7604716"
         width="3.7604716" />
      <path
         style="fill:#ffd700;fill-opacity:1;stroke:#da2d1c;stroke-opacity:1"
         id="path70"
         d="m 115.2869,75.581977 c 1.0491,0.499269 0.78467,2.094456 -0.0386,3.825604 -0.82362,1.731522 -1.89445,2.943175 -2.94392,2.443907 -1.0491,-0.498895 1.49069,-3.134568 1.49069,-3.134568 0,0 0.44234,-3.634211 1.49181,-3.134943 z" />
      <path
         style="fill:#ffd700;fill-opacity:1;stroke:#da2d1c;stroke-opacity:1"
         id="path72"
         d="m 113.2108,73.864688 c 2.06,0.980184 2.0585,3.026699 1.07794,5.086697 -0.97981,2.059998 -2.56676,3.353302 -4.62676,2.373118 -2.06037,-0.97981 1.77422,-3.730095 1.77422,-3.730095 0,0 -0.28578,-4.70953 1.7746,-3.72972 z" />
      <path
         style="fill:#ffd700;fill-opacity:1;stroke:#da2d1c;stroke-width:1.87273;stroke-opacity:1"
         id="path74"
         d="m 112.43886,69.970542 c -5.868,-2.694102 3.52409,-13.763408 7.02197,-7.931741" />
      <path
         style="fill:#ffd700;fill-opacity:1;stroke:#da2d1c;stroke-width:0.374545;stroke-opacity:1"
         id="path76"
         d="m 119.81141,61.048129 c 4.61364,4.958977 8.2486,9.329544 8.2486,9.329544 l -1.52739,4.966468 -4.6953,2.061871 -10.37415,-7.003245 c -2.20645,-4.287792 2.4042,-11.115374 8.34824,-9.354638 z" />
      <path
         style="fill:#ffd700;fill-opacity:1;stroke:#da2d1c;stroke-width:1.49818;stroke-linecap:round;stroke-opacity:1"
         id="path78"
         d="m 121.21408,70.637607 c 0.77343,0.673807 1.51915,1.446868 2.30532,2.143147" />
      <rect
         style="fill:#ffd700;fill-opacity:1;stroke:#da2d1c;stroke-opacity:1"
         id="rect80"
         transform="rotate(-93.485559)"
         y="111.50166"
         x="-76.494461"
         height="3.7606204"
         width="3.7606204" />
      <path
         style="fill:#ffd700;fill-opacity:1;stroke:#da2d1c;stroke-opacity:1"
         id="path82"
         d="m 122.56431,67.24685 c 0.8697,0.77044 0.17379,2.229667 -1.09667,3.665299 -1.2712,1.435631 -2.63567,2.303452 -3.50536,1.533013 -0.87007,-0.76969 2.30045,-2.598969 2.30045,-2.598969 0,0 1.43151,-3.369782 2.30158,-2.599343 z" />
      <path
         style="fill:#ffd700;fill-opacity:1;stroke:#da2d1c;stroke-opacity:1"
         id="path84"
         d="m 121.04478,65.022053 c 1.7083,1.512413 1.13974,3.4784 -0.37267,5.186326 -1.51204,1.7083 -3.39488,2.511324 -5.1028,0.999286 -1.70868,-1.512413 2.73792,-3.092994 2.73792,-3.092994 0,0 1.02963,-4.605032 2.73755,-3.092618 z" />
      <path
         style="fill:#ffd700;fill-opacity:1;stroke:#da2d1c;stroke-width:1.87273;stroke-opacity:1"
         id="path86"
         d="m 121.38187,61.066107 c -4.89268,-4.214007 7.19764,-12.249123 8.94377,-5.67698" />
      <path
         style="fill:#ffd700;fill-opacity:1;stroke:#da2d1c;stroke-width:0.374545;stroke-opacity:1"
         id="path88"
         d="m 130.93652,54.534415 c 3.06003,6.042536 5.34251,11.249088 5.34251,11.249088 l -2.8428,4.349217 -5.08257,0.681298 -8.02875,-9.602587 c -0.93299,-4.731254 5.3882,-10.014962 10.61198,-6.677016 z" />
      <path
         style="fill:#ffd700;fill-opacity:1;stroke:#da2d1c;stroke-width:1.49818;stroke-linecap:round;stroke-opacity:1"
         id="path90"
         d="m 129.62898,64.137003 c 0.55658,0.861828 1.05922,1.810925 1.62178,2.697848" />
      <rect
         style="fill:#ffd700;fill-opacity:1;stroke:#da2d1c;stroke-opacity:1"
         id="rect92"
         transform="rotate(-77.4078)"
         y="135.29822"
         x="-32.954453"
         height="3.7602541"
         width="3.7602541" />
      <path
         style="fill:#ffd700;fill-opacity:1;stroke:#da2d1c;stroke-opacity:1"
         id="path94"
         d="m 131.86539,61.253005 c 0.62249,0.980934 -0.45058,2.190715 -2.06861,3.218466 -1.61879,1.027377 -3.17015,1.483573 -3.79302,0.502265 -0.62287,-0.980559 2.93044,-1.860365 2.93044,-1.860365 0,0 2.30832,-2.841674 2.93119,-1.860366 z" />
      <path
         style="fill:#ffd700;fill-opacity:1;stroke:#da2d1c;stroke-opacity:1"
         id="path96"
         d="m 131.02154,58.694488 c 1.22252,1.926285 0.13221,3.657807 -1.79445,4.880322 -1.92591,1.22289 -3.95744,1.472712 -5.17995,-0.452825 -1.22289,-1.926285 3.48776,-2.213936 3.48776,-2.213936 0,0 2.26413,-4.139847 3.48664,-2.213561 z" />
      <path
         style="fill:#ffd700;fill-opacity:1;stroke:#da2d1c;stroke-width:1.87273;stroke-opacity:1"
         id="path98"
         d="m 132.44069,54.986491 c -3.53421,-5.403937 10.30823,-9.776751 10.16628,-2.978008" />
      <path
         style="fill:#ffd700;fill-opacity:1;stroke:#da2d1c;stroke-width:0.374545;stroke-opacity:1"
         id="path100"
         d="m 143.42872,51.3564 c 1.26709,6.653794 2.01842,12.288825 2.01842,12.288825 l -3.93646,3.39188 -5.07247,-0.752835 -5.05523,-11.450968 c 0.41387,-4.804664 7.95047,-8.130999 12.04424,-3.476902 z" />
      <path
         style="fill:#ffd700;fill-opacity:1;stroke:#da2d1c;stroke-width:1.49818;stroke-linecap:round;stroke-opacity:1"
         id="path102"
         d="m 139.51473,60.221508 c 0.29626,0.982057 0.51612,2.033405 0.81126,3.041306" />
      <rect
         style="fill:#ffd700;fill-opacity:1;stroke:#da2d1c;stroke-opacity:1"
         id="rect104"
         transform="rotate(-61.333296)"
         y="146.10675"
         x="15.467587"
         height="3.7603257"
         width="3.7603257" />
      <path
         style="fill:#ffd700;fill-opacity:1;stroke:#da2d1c;stroke-opacity:1"
         id="path106"
         d="m 142.46239,58.069372 c 0.32623,1.115021 -1.03936,1.98022 -2.87912,2.519565 -1.84014,0.53897 -3.45705,0.547585 -3.78403,-0.567811 -0.32698,-1.114646 3.3312,-0.976064 3.3312,-0.976064 0,0 3.0076,-2.090711 3.33345,-0.97569 z" />
      <path
         style="fill:#ffd700;fill-opacity:1;stroke:#da2d1c;stroke-opacity:1"
         id="path108"
         d="m 142.36127,55.377142 c 0.64122,2.18959 -0.88618,3.551436 -3.07577,4.192658 -2.18921,0.641595 -4.21063,0.319487 -4.85223,-1.86973 -0.64159,-2.18959 3.96419,-1.161838 3.96419,-1.161838 0,0 3.32596,-3.350681 3.96643,-1.16109 z" />
      <path
         style="fill:#ffd700;fill-opacity:1;stroke:#da2d1c;stroke-width:1.87273;stroke-opacity:1"
         id="path110"
         d="m 144.75087,52.206992 c -1.89932,-6.17138 12.61243,-6.539557 10.59325,-0.04607" />
      <path
         style="fill:#ffd700;fill-opacity:1;stroke:#da2d1c;stroke-width:0.374545;stroke-opacity:1"
         id="path112"
         d="m 156.31682,51.762407 c -0.62512,6.744434 -1.46335,12.367105 -1.46335,12.367105 l -4.72189,2.16899 -4.66571,-2.128165 -1.68657,-12.402686 c 1.73039,-4.502033 9.89173,-5.611435 12.53977,-0.0052 z" />
      <path
         style="fill:#ffd700;fill-opacity:1;stroke:#da2d1c;stroke-width:1.49818;stroke-linecap:round;stroke-opacity:1"
         id="path114"
         d="m 150.09937,59.196378 c 0.0124,1.025505 -0.0674,2.096704 -0.0629,3.146928" />
      <rect
         style="fill:#ffd700;fill-opacity:1;stroke:#da2d1c;stroke-opacity:1"
         id="rect116"
         transform="rotate(-45.251181)"
         y="143.08244"
         x="65.008293"
         height="3.760433"
         width="3.7608078" />
      <path
         style="fill:#ffd700;fill-opacity:1;stroke:#da2d1c;stroke-opacity:1"
         id="path118"
         d="m 153.52646,57.945023 c 0.005,1.161839 -1.54725,1.615038 -3.46417,1.623653 -1.91767,0.0082 -3.47353,-0.431101 -3.47878,-1.593315 -0.005,-1.161839 3.47091,-0.01573 3.47091,-0.01573 0,0 3.46829,-1.176821 3.47204,-0.01461 z" />
      <path
         style="fill:#ffd700;fill-opacity:1;stroke:#da2d1c;stroke-opacity:1"
         id="path120"
         d="m 154.17442,55.329574 c 0.01,2.281355 -1.83452,3.167154 -4.11625,3.176892 -2.28135,0.01049 -4.1346,-0.859206 -4.14472,-3.140186 -0.0101,-2.281729 4.13124,-0.01835 4.13124,-0.01835 0,0 4.11999,-2.299707 4.13123,-0.01835 z" />
      <path
         style="fill:#ffd700;fill-opacity:1;stroke:#da2d1c;stroke-width:1.87273;stroke-opacity:1"
         id="path122"
         d="m 157.35056,52.945595 c -0.11611,-6.455659 13.93008,-2.79111 10.19175,2.889241" />
      <path
         style="fill:#ffd700;fill-opacity:1;stroke:#da2d1c;stroke-width:0.374545;stroke-opacity:1"
         id="path124"
         d="m 168.58692,55.721349 c -2.46863,6.307714 -4.83089,11.477934 -4.83089,11.477934 l -5.13838,0.776432 -3.89377,-3.337197 1.81392,-12.384333 c 2.91022,-3.847702 11.06032,-2.652903 12.05286,3.467164 z" />
      <path
         style="fill:#ffd700;fill-opacity:1;stroke:#da2d1c;stroke-width:1.49818;stroke-linecap:round;stroke-opacity:1"
         id="path126"
         d="m 160.55292,61.142514 c -0.27229,0.989174 -0.64534,1.995951 -0.93186,3.006474" />
      <rect
         style="fill:#ffd700;fill-opacity:1;stroke:#da2d1c;stroke-opacity:1"
         id="rect128"
         transform="rotate(-29.177034)"
         y="126.46149"
         x="111.75272"
         height="3.7603569"
         width="3.7607317" />
      <path
         style="fill:#ffd700;fill-opacity:1;stroke:#da2d1c;stroke-opacity:1"
         id="path130"
         d="m 164.1935,60.889322 c -0.31724,1.117643 -1.93377,1.123635 -3.77841,0.60077 -1.84501,-0.522865 -3.21847,-1.376453 -2.90123,-2.49447 0.31649,-1.117643 3.33945,0.946475 3.33945,0.946475 0,0 3.65556,-0.170792 3.34094,0.947225 z" />
      <path
         style="fill:#ffd700;fill-opacity:1;stroke:#da2d1c;stroke-opacity:1"
         id="path132"
         d="m 165.53812,58.555531 c -0.62212,2.194835 -2.64017,2.535296 -4.835,1.912428 -2.19521,-0.621745 -3.73497,-1.970482 -3.11322,-4.164942 0.62212,-2.195209 3.97467,1.126257 3.97467,1.126257 0,0 4.59567,-1.068577 3.97392,1.126257 z" />
      <path
         style="fill:#ffd700;fill-opacity:1;stroke:#da2d1c;stroke-width:1.87273;stroke-opacity:1"
         id="path134"
         d="m 169.24986,57.143871 c 1.67684,-6.235427 14.15855,1.176072 8.9932,5.5987" />
      <path
         style="fill:#ffd700;fill-opacity:1;stroke:#da2d1c;stroke-width:0.374545;stroke-opacity:1"
         id="path136"
         d="m 179.28018,62.922727 c -4.1185,5.377344 -7.8205,9.691355 -7.8205,9.691355 l -5.15262,-0.676803 -2.81695,-4.284796 5.17284,-11.397782 c 3.85781,-2.891863 11.35995,0.513501 10.61835,6.668026 z" />
      <path
         style="fill:#ffd700;fill-opacity:1;stroke:#da2d1c;stroke-width:1.49818;stroke-linecap:round;stroke-opacity:1"
         id="path138"
         d="m 170.05888,65.907477 c -0.5356,0.874938 -1.1727,1.739388 -1.72815,2.630805" />
      <rect
         style="fill:#ffd700;fill-opacity:1;stroke:#da2d1c;stroke-opacity:1"
         id="rect140"
         transform="rotate(-13.102406)"
         y="97.546669"
         x="152.07394"
         height="3.7605619"
         width="3.7609367" />
      <path
         style="fill:#ffd700;fill-opacity:1;stroke:#da2d1c;stroke-opacity:1"
         id="path142"
         d="m 173.62455,66.672298 c -0.61426,0.986178 -2.16937,0.544214 -3.79714,-0.468556 -1.62777,-1.013519 -2.71133,-2.213936 -2.09708,-3.200113 0.61351,-0.986177 2.94655,1.834147 2.94655,1.834147 0,0 3.56567,0.848345 2.94767,1.834522 z" />
      <path
         style="fill:#ffd700;fill-opacity:1;stroke:#da2d1c;stroke-opacity:1"
         id="path144"
         d="m 175.56469,64.802569 c -1.20566,1.936773 -3.23869,1.704929 -5.17546,0.498894 -1.93715,-1.205286 -3.04318,-2.927819 -1.8379,-4.864217 1.20604,-1.937147 3.50762,2.182849 3.50762,2.182849 0,0 4.71178,0.246076 3.50574,2.182474 z" />
      <path
         style="fill:#ffd700;fill-opacity:1;stroke:#da2d1c;stroke-width:1.87273;stroke-opacity:1"
         id="path146"
         d="m 179.52363,64.474093 c 3.33795,-5.527162 13.27912,5.050741 7.09127,7.869942" />
      <path
         style="fill:#ffd700;fill-opacity:1;stroke:#da2d1c;stroke-width:0.374545;stroke-opacity:1"
         id="path148"
         d="m 187.55763,72.803602 c -5.44664,4.026359 -10.19849,7.146695 -10.19849,7.146695 l -4.76347,-2.077227 -1.52065,-4.897178 8.12688,-9.519812 c 4.50952,-1.709799 10.77566,3.639829 8.3561,9.347522 z" />
      <path
         style="fill:#ffd700;fill-opacity:1;stroke:#da2d1c;stroke-width:1.49818;stroke-linecap:round;stroke-opacity:1"
         id="path150"
         d="m 177.87189,73.118219 c -0.75696,0.692534 -1.60867,1.34649 -2.38922,2.049511" />
      <rect
         style="fill:#ffd700;fill-opacity:1;stroke:#da2d1c;stroke-opacity:1"
         id="rect152"
         transform="rotate(2.9748457)"
         y="58.59222"
         x="182.81325"
         height="3.760612"
         width="3.7609868" />
      <path
         style="fill:#ffd700;fill-opacity:1;stroke:#da2d1c;stroke-opacity:1"
         id="path154"
         d="m 181.08923,74.841501 c -0.86333,0.777556 -2.23528,-0.0779 -3.51885,-1.501925 -1.28357,-1.42477 -1.99221,-2.878379 -1.12888,-3.655935 0.86258,-0.77793 2.32368,2.578368 2.32368,2.578368 0,0 3.18738,1.801937 2.32218,2.579492 z" />
      <path
         style="fill:#ffd700;fill-opacity:1;stroke:#da2d1c;stroke-opacity:1"
         id="path156"
         d="m 183.47134,73.582281 c -1.69444,1.527395 -3.58402,0.741225 -5.11104,-0.953967 -1.5274,-1.694442 -2.11356,-3.655934 -0.41912,-5.182955 1.69519,-1.527769 2.76602,3.069023 2.76602,3.069023 0,0 4.46457,1.540878 2.76788,3.067899 z" />
      <path
         style="fill:#ffd700;fill-opacity:1;stroke:#da2d1c;stroke-width:1.87273;stroke-opacity:1"
         id="path158"
         d="m 187.36286,74.362084 c 4.738,-4.386672 11.36108,8.530639 4.63425,9.52618" />
      <path
         style="fill:#ffd700;fill-opacity:1;stroke:#da2d1c;stroke-width:0.374545;stroke-opacity:1"
         id="path160"
         d="m 192.77878,84.590536 c -6.34854,2.360758 -11.77869,4.04284 -11.77869,4.04284 l -4.00201,-3.315474 -0.10488,-5.126773 10.44569,-6.896873 c 4.80916,-0.392524 9.34865,6.483001 5.44214,11.297029 z" />
      <path
         style="fill:#ffd700;fill-opacity:1;stroke:#da2d1c;stroke-width:1.49818;stroke-linecap:round;stroke-opacity:1"
         id="path162"
         d="m 183.38519,82.211425 c -0.91951,0.455822 -1.91879,0.848345 -2.86339,1.307537" />
      <rect
         style="fill:#ffd700;fill-opacity:1;stroke:#da2d1c;stroke-opacity:1"
         id="rect164"
         transform="rotate(19.051008)"
         y="12.652036"
         x="201.55429"
         height="3.7603197"
         width="3.7606943" />
      <path
         style="fill:#ffd700;fill-opacity:1;stroke:#da2d1c;stroke-opacity:1"
         id="path166"
         d="m 185.99952,84.759081 c -1.04461,0.508258 -2.1263,-0.694032 -2.96528,-2.417688 -0.8386,-1.724406 -1.11689,-3.317346 -0.0719,-3.82523 1.04423,-0.508632 1.51878,3.121085 1.51878,3.121085 0,0 2.56564,2.612452 1.52065,3.121833 z" />
      <path
         style="fill:#ffd700;fill-opacity:1;stroke:#da2d1c;stroke-opacity:1"
         id="path168"
         d="m 188.63631,84.2085 c -2.05138,0.998537 -3.64919,-0.280534 -4.64735,-2.331918 -0.99816,-2.051383 -1.01801,-4.098272 1.03262,-5.096435 2.05213,-0.998537 1.80793,3.714738 1.80793,3.714738 0,0 3.85781,2.713579 1.80531,3.713615 z" />
      <path
         style="fill:#ffd700;fill-opacity:1;stroke:#da2d1c;stroke-width:1.87273;stroke-opacity:1"
         id="path170"
         d="m 192.16078,86.03628 c 5.76762,-2.902725 8.55424,11.343473 1.81505,10.436699" />
      <path
         style="fill:#ffd700;fill-opacity:1;stroke:#da2d1c;stroke-width:0.374545;stroke-opacity:1"
         id="path172"
         d="m 194.53165,97.362524 c -6.75379,0.510505 -12.43751,0.622868 -12.43751,0.622868 l -2.92707,-4.293785 1.31877,-4.955231 11.94649,-3.734215 c 4.72301,0.951344 7.18377,8.816792 2.09745,12.359988 z" />
      <path
         style="fill:#ffd700;fill-opacity:1;stroke:#da2d1c;stroke-width:1.49818;stroke-linecap:round;stroke-opacity:1"
         id="path174"
         d="m 186.16432,92.47471 c -1.00978,0.183153 -2.07873,0.283905 -3.1136,0.463313" />
      <rect
         style="fill:#ffd700;fill-opacity:1;stroke:#da2d1c;stroke-opacity:1"
         id="rect176"
         transform="rotate(35.130032)"
         y="-36.690308"
         x="206.84189"
         height="3.760586"
         width="3.760586" />
      <path
         style="fill:#ffd700;fill-opacity:1;stroke:#da2d1c;stroke-opacity:1"
         id="path178"
         d="m 187.96962,95.647107 c -1.14461,0.198884 -1.85062,-1.255475 -2.17947,-3.144306 -0.32848,-1.889205 -0.15469,-3.496753 0.99029,-3.695636 1.14424,-0.199633 0.59478,3.419596 0.59478,3.419596 0,0 1.74164,3.224834 0.59553,3.423343 z" />
      <path
         style="fill:#ffd700;fill-opacity:1;stroke:#da2d1c;stroke-opacity:1"
         id="path180"
         d="m 190.65511,95.849362 c -2.24764,0.391025 -3.42896,-1.279821 -3.81998,-3.527841 -0.39103,-2.247645 0.15693,-4.219999 2.40383,-4.611399 2.24839,-0.391025 0.70864,4.070556 0.70864,4.070556 0,0 2.95516,3.674288 0.70789,4.06756 z" />
      <path
         style="fill:#ffd700;fill-opacity:1;stroke:#da2d1c;stroke-width:1.87273;stroke-opacity:1"
         id="path182"
         d="m 193.53536,98.579795 c 6.3463,-1.192177 5.07884,13.269005 -1.14648,10.531455" />
      <path
         style="fill:#ffd700;fill-opacity:1;stroke:#da2d1c;stroke-width:0.374545;stroke-opacity:1"
         id="path184"
         d="m 192.67766,110.12328 c -6.63132,-1.3802 -12.12365,-2.84617 -12.12365,-2.84617 l -1.62366,-4.93651 2.6398,-4.396408 12.51355,-0.279785 c 4.28105,2.224798 4.46458,10.461043 -1.40455,12.461113 z" />
      <path
         style="fill:#ffd700;fill-opacity:1;stroke:#da2d1c;stroke-width:1.49818;stroke-linecap:round;stroke-opacity:1"
         id="path186"
         d="m 185.99203,103.10805 c -1.02139,-0.10338 -2.07611,-0.30301 -3.11996,-0.41687" />
      <rect
         style="fill:#ffd700;fill-opacity:1;stroke:#da2d1c;stroke-opacity:1"
         id="rect188"
         transform="rotate(51.206869)"
         y="-85.559723"
         x="198.26646"
         height="3.760745"
         width="3.760745" />
      <path
         style="fill:#ffd700;fill-opacity:1;stroke:#da2d1c;stroke-opacity:1"
         id="path190"
         d="m 186.84599,106.65499 c -1.15472,-0.12585 -1.43076,-1.71916 -1.22401,-3.62485 0.20787,-1.90643 0.81988,-3.403117 1.97497,-3.276895 1.15435,0.125098 -0.37567,3.450305 -0.37567,3.450305 0,0 0.7828,3.57691 -0.37454,3.45331 z" />
      <path
         style="fill:#ffd700;fill-opacity:1;stroke:#da2d1c;stroke-opacity:1"
         id="path192"
         d="m 189.37417,107.59135 c -2.26825,-0.24645 -2.94055,-2.17948 -2.69373,-4.44772 0.24683,-2.26825 1.31952,-4.011381 3.58702,-3.765304 2.26862,0.246825 -0.44646,4.107634 -0.44646,4.107634 0,0 1.81654,4.34847 -0.44945,4.10127 z" />
      <path
         style="fill:#ffd700;fill-opacity:1;stroke:#da2d1c;stroke-width:1.87273;stroke-opacity:1"
         id="path194"
         d="m 191.38548,111.01469 c 6.42831,0.61238 1.20528,14.15668 -4.01812,9.80222" />
      <path
         style="fill:#ffd700;fill-opacity:1;stroke:#da2d1c;stroke-width:0.374545;stroke-opacity:1"
         id="path196"
         d="m 187.36286,121.86901 c -5.98972,-3.16228 -10.86106,-6.09198 -10.86106,-6.09198 l -0.19326,-5.19306 3.75369,-3.49339 12.10193,3.19637 c 3.49825,3.32222 1.3933,11.28879 -4.79793,11.58468 z" />
      <path
         style="fill:#ffd700;fill-opacity:1;stroke:#da2d1c;stroke-width:1.49818;stroke-linecap:round;stroke-opacity:1"
         id="path198"
         d="m 182.87956,113.27695 c -0.95247,-0.38242 -1.91093,-0.86633 -2.88213,-1.26484" />
      <rect
         style="fill:#ffd700;fill-opacity:1;stroke:#da2d1c;stroke-opacity:1"
         id="rect200"
         transform="rotate(67.281412)"
         y="-130.13734"
         x="176.49451"
         height="3.7607551"
         width="3.7607551" />
      <path
         style="fill:#ffd700;fill-opacity:1;stroke:#da2d1c;stroke-opacity:1"
         id="path202"
         d="m 182.72225,116.92127 c -1.07457,-0.44084 -0.89854,-2.04839 -0.17192,-3.82186 0.72737,-1.77422 1.73003,-3.04318 2.80497,-2.60159 1.07457,0.43972 -1.31653,3.21098 -1.31653,3.21098 0,0 -0.23971,3.65556 -1.31465,3.21359 z" />
      <path
         style="fill:#ffd700;fill-opacity:1;stroke:#da2d1c;stroke-opacity:1"
         id="path204"
         d="m 184.89086,118.52058 c -2.11131,-0.8652 -2.2218,-2.90872 -1.3566,-5.01966 0.86558,-2.11131 2.37911,-3.48888 4.4893,-2.62481 2.11131,0.86557 -1.56672,3.82336 -1.56672,3.82336 0,0 0.53934,4.68556 -1.56935,3.82036 z" />
      <path
         style="fill:#ffd700;fill-opacity:1;stroke:#da2d1c;stroke-width:1.87273;stroke-opacity:1"
         id="path206"
         d="m 185.87217,122.36715 c 6.00733,2.36825 -2.76227,13.93683 -6.57551,8.30629" />
      <path
         style="fill:#ffd700;fill-opacity:1;stroke:#da2d1c;stroke-width:0.374545;stroke-opacity:1"
         id="path208"
         d="m 179.00301,131.68209 c -4.87957,-4.69754 -8.74899,-8.86136 -8.74899,-8.86136 l 1.25247,-5.04363 4.5747,-2.31731 10.74345,6.42233 c 2.44203,4.16119 -1.78658,11.23261 -7.81676,9.80184 z" />
      <path
         style="fill:#ffd700;fill-opacity:1;stroke:#da2d1c;stroke-width:1.49818;stroke-linecap:round;stroke-opacity:1"
         id="path210"
         d="m 177.07411,122.18363 c -0.80902,-0.63149 -1.59631,-1.36147 -2.41919,-2.01356" />
      <rect
         style="fill:#ffd700;fill-opacity:1;stroke:#da2d1c;stroke-opacity:1"
         id="rect212"
         transform="rotate(83.356102)"
         y="-166.93871"
         x="143.22975"
         height="3.7608671"
         width="3.7604923" />
      <path
         style="fill:#ffd700;fill-opacity:1;stroke:#da2d1c;stroke-opacity:1"
         id="path214"
         d="m 175.91302,125.64442 c -0.91052,-0.72137 -0.29627,-2.2173 0.89329,-3.72035 1.19068,-1.50343 2.50496,-2.44466 3.41585,-1.72328 0.91089,0.72025 -2.15401,2.72107 -2.15401,2.72107 0,0 -1.24723,3.44581 -2.15738,2.72294 z" />
      <path
         style="fill:#ffd700;fill-opacity:1;stroke:#da2d1c;stroke-opacity:1"
         id="path216"
         d="m 177.55353,127.78308 c -1.78921,-1.41578 -1.32964,-3.40986 0.0861,-5.19944 1.41616,-1.78883 3.25218,-2.69335 5.04063,-1.2787 1.78883,1.41616 -2.56414,3.23982 -2.56414,3.23982 0,0 -0.77531,4.65185 -2.56189,3.23607 z" />
      <path
         style="fill:#ffd700;fill-opacity:1;stroke:#da2d1c;stroke-width:1.49818;stroke-linecap:round;stroke-opacity:1"
         id="path218"
         d="m 126.82027,106.22426 c 0.76482,-0.37492 3.75519,-1.74126 4.54098,-2.11955" />
      <polygon
         style="fill:#ffd700;fill-opacity:1;stroke:#da2d1c;stroke-opacity:1"
         id="polygon220"
         points="65.517,168.552 68.592,161.369 76.135,163.438 73.058,170.623 "
         transform="matrix(0.3745451,0,0,0.3745451,96.82782,45.750209)" />
      <path
         style="fill:#ffd700;fill-opacity:1;stroke:#da2d1c;stroke-opacity:1"
         id="path222"
         d="m 124.81533,104.43019 c 0.86857,-0.41837 1.69144,0.43335 2.29484,1.68321 0.60301,1.24985 0.7577,2.42368 -0.11124,2.84242 -0.86857,0.41799 -1.09218,-2.26263 -1.09218,-2.26263 0,0 -1.95999,-1.84276 -1.09142,-2.26225 z" />
      <path
         style="fill:#ffd700;fill-opacity:1;stroke:#da2d1c;stroke-opacity:1"
         id="path224"
         d="m 122.65495,104.94332 c 1.70568,-0.82138 2.94355,0.0674 3.66118,1.55436 0.71725,1.48694 0.64309,3.00835 -1.06258,3.8301 -1.70606,0.82175 -1.2993,-2.69223 -1.2993,-2.69223 0,0 -3.00573,-1.87273 -1.2993,-2.69298 z" />
      <path
         style="fill:#ffd700;fill-opacity:1;stroke:#da2d1c;stroke-width:1.49818;stroke-linecap:round;stroke-opacity:1"
         id="path226"
         d="m 125.19025,100.12667 c 0.83711,-0.156938 4.08404,-0.675683 4.94175,-0.83037" />
      <polygon
         style="fill:#ffd700;fill-opacity:1;stroke:#da2d1c;stroke-opacity:1"
         id="polygon228"
         points="59.8,148.126 64.681,142.024 71.398,146.032 66.515,152.134 "
         transform="matrix(0.3745451,0,0,0.3745451,96.82782,45.750209)" />
      <path
         style="fill:#ffd700;fill-opacity:1;stroke:#da2d1c;stroke-opacity:1"
         id="path230"
         d="m 123.73664,97.864414 c 0.94872,-0.171167 1.51428,0.869319 1.76261,2.234906 0.24757,1.3656 0.0835,2.53792 -0.86595,2.70946 -0.94872,0.1708 -0.44833,-2.47237 -0.44833,-2.47237 0,0 -1.39705,-2.30345 -0.44833,-2.471996 z" />
      <path
         style="fill:#ffd700;fill-opacity:1;stroke:#da2d1c;stroke-opacity:1"
         id="path232"
         d="m 121.51783,97.778269 c 1.86336,-0.335967 2.81883,0.850592 3.1136,2.475371 0.29439,1.6244 -0.18353,3.07089 -2.04652,3.40761 -1.86373,0.33634 -0.53335,-2.94168 -0.53335,-2.94168 0,0 -2.39709,-2.606832 -0.53373,-2.943923 z" />
      <path
         style="fill:#ffd700;fill-opacity:1;stroke:#da2d1c;stroke-width:1.49818;stroke-linecap:round;stroke-opacity:1"
         id="path234"
         d="m 125.24718,93.811836 c 0.84872,0.07229 4.11625,0.439342 4.98407,0.51912" />
      <polygon
         style="fill:#ffd700;fill-opacity:1;stroke:#da2d1c;stroke-opacity:1"
         id="polygon236"
         points="59.743,126.916 66.076,122.337 71.479,127.993 65.144,132.57 "
         transform="matrix(0.3745451,0,0,0.3745451,96.82782,45.750209)" />
      <path
         style="fill:#ffd700;fill-opacity:1;stroke:#da2d1c;stroke-opacity:1"
         id="path238"
         d="m 124.45052,91.246202 c 0.95996,0.08839 1.22739,1.241992 1.10191,2.624063 -0.12584,1.382072 -0.59702,2.468252 -1.55773,2.37986 -0.95996,-0.08839 0.22772,-2.502336 0.22772,-2.502336 0,0 -0.73186,-2.591852 0.2281,-2.501961 z" />
      <path
         style="fill:#ffd700;fill-opacity:1;stroke:#da2d1c;stroke-opacity:1"
         id="path240"
         d="m 122.33509,90.572021 c 1.88546,0.173414 2.48923,1.57234 2.33978,3.216968 -0.14981,1.643878 -0.99666,2.91059 -2.88175,2.73755 -1.88583,-0.17304 0.27117,-2.977259 0.27117,-2.977259 0,0 -1.61503,-3.149924 0.2708,-2.977633 z" />
      <path
         style="fill:#ffd700;fill-opacity:1;stroke:#da2d1c;stroke-width:1.49818;stroke-linecap:round;stroke-opacity:1"
         id="path242"
         d="m 126.98694,87.744206 c 0.79853,0.296265 3.84958,1.522151 4.66496,1.830776" />
      <polygon
         style="fill:#ffd700;fill-opacity:1;stroke:#da2d1c;stroke-opacity:1"
         id="polygon244"
         points="65.35,106.459 72.676,103.738 76.373,110.63 69.046,113.351 "
         transform="matrix(0.3745451,0,0,0.3745451,96.82782,45.750209)" />
      <path
         style="fill:#ffd700;fill-opacity:1;stroke:#da2d1c;stroke-opacity:1"
         id="path246"
         d="m 126.90529,85.058717 c 0.90153,0.341585 0.85097,1.524773 0.36144,2.823321 -0.49028,1.298174 -1.23413,2.21918 -2.13678,1.877969 -0.90153,-0.341585 0.88729,-2.350645 0.88729,-2.350645 0,0 -0.0139,-2.689234 0.88805,-2.348397 z" />
      <path
         style="fill:#ffd700;fill-opacity:1;stroke:#da2d1c;stroke-opacity:1"
         id="path248"
         d="m 125.04605,83.845191 c 1.77085,0.670436 1.97947,2.179853 1.39593,3.724477 -0.58354,1.544249 -1.73752,2.538666 -3.50799,1.86898 -1.77123,-0.670436 1.05584,-2.796729 1.05584,-2.796729 0,0 -0.71463,-3.46604 1.05622,-2.794106 z" />
      <path
         style="fill:#ffd700;fill-opacity:1;stroke:#da2d1c;stroke-width:1.49818;stroke-linecap:round;stroke-opacity:1"
         id="path250"
         d="m 130.28369,82.362367 c 0.69066,0.49852 3.30348,2.49447 4.00688,3.009844" />
      <polygon
         style="fill:#ffd700;fill-opacity:1;stroke:#da2d1c;stroke-opacity:1"
         id="polygon252"
         points="76.215,88.242 84.001,87.575 85.724,95.204 77.937,95.87 "
         transform="matrix(0.3745451,0,0,0.3745451,96.82782,45.750209)" />
      <path
         style="fill:#ffd700;fill-opacity:1;stroke:#da2d1c;stroke-opacity:1"
         id="path254"
         d="m 130.92266,79.749915 c 0.77793,0.569683 0.4135,1.696689 -0.40526,2.816954 -0.81913,1.120264 -1.78208,1.809427 -2.56039,1.239369 -0.77755,-0.569683 1.48245,-2.028536 1.48245,-2.028536 0,0 0.70527,-2.599343 1.4832,-2.029285 z" />
      <path
         style="fill:#ffd700;fill-opacity:1;stroke:#da2d1c;stroke-opacity:1"
         id="path256"
         d="m 129.45482,78.083938 c 1.52739,1.118767 1.32551,2.629307 0.35095,3.962313 -0.97457,1.332631 -2.35215,1.982842 -3.87954,0.86445 -1.52815,-1.118766 1.76411,-2.413569 1.76411,-2.413569 0,0 0.23671,-3.53196 1.76448,-2.413194 z" />
      <path
         style="fill:#ffd700;fill-opacity:1;stroke:#da2d1c;stroke-width:1.49818;stroke-linecap:round;stroke-opacity:1"
         id="path258"
         d="m 134.89658,78.054724 c 0.53261,0.664817 2.5177,3.285884 3.05779,3.970178" />
      <polygon
         style="fill:#ffd700;fill-opacity:1;stroke:#da2d1c;stroke-opacity:1"
         id="polygon260"
         points="91.548,73.586 99.23,75.021 98.854,82.833 91.171,81.396 "
         transform="matrix(0.3745451,0,0,0.3745451,96.82782,45.750209)" />
      <path
         style="fill:#ffd700;fill-opacity:1;stroke:#da2d1c;stroke-opacity:1"
         id="path262"
         d="m 136.21124,75.70745 c 0.5974,0.756581 -0.0547,1.74538 -1.14237,2.606459 -1.08842,0.861079 -2.20045,1.267835 -2.79822,0.51088 -0.5974,-0.756956 1.97011,-1.558857 1.97011,-1.558857 0,0 1.37121,-2.315438 1.97048,-1.558482 z" />
      <path
         style="fill:#ffd700;fill-opacity:1;stroke:#da2d1c;stroke-opacity:1"
         id="path264"
         d="m 135.24117,73.710001 c 1.17345,1.48582 0.57567,2.887368 -0.71951,3.912123 -1.2948,1.024007 -2.79597,1.283192 -3.9698,-0.202629 -1.17382,-1.486195 2.34465,-1.855121 2.34465,-1.855121 0,0 1.17046,-3.340194 2.34428,-1.854373 z" />
      <path
         style="fill:#ffd700;fill-opacity:1;stroke:#da2d1c;stroke-width:1.49818;stroke-linecap:round;stroke-opacity:1"
         id="path266"
         d="m 140.49603,75.13477 c 0.3356,0.7828 1.54912,3.838713 1.88696,4.642487" />
      <polygon
         style="fill:#ffd700;fill-opacity:1;stroke:#da2d1c;stroke-opacity:1"
         id="polygon268"
         points="110.238,63.555 117.257,66.989 114.81,74.417 107.79,70.981 "
         transform="matrix(0.3745451,0,0,0.3745451,96.82782,45.750209)" />
      <path
         style="fill:#ffd700;fill-opacity:1;stroke:#da2d1c;stroke-opacity:1"
         id="path270"
         d="m 142.38749,73.223467 c 0.37379,0.888795 -0.51837,1.667474 -1.79707,2.207194 -1.2787,0.539345 -2.45889,0.634479 -2.83306,-0.254691 -0.3738,-0.888795 2.31469,-0.976439 2.31469,-0.976439 0,0 1.94014,-1.86486 2.31469,-0.976064 z" />
      <path
         style="fill:#ffd700;fill-opacity:1;stroke:#da2d1c;stroke-opacity:1"
         id="path272"
         d="m 141.98298,71.039869 c 0.73411,1.74538 -0.21612,2.936433 -1.73752,3.578029 -1.5214,0.641221 -3.03681,0.49028 -3.77167,-1.255101 -0.73448,-1.745754 2.75441,-1.161838 2.75441,-1.161838 0,0 2.02254,-2.906845 2.75665,-1.16109 z" />
      <path
         style="fill:#ffd700;fill-opacity:1;stroke:#da2d1c;stroke-width:1.49818;stroke-linecap:round;stroke-opacity:1"
         id="path274"
         d="m 146.66854,73.814873 c 0.11461,0.84385 0.46818,4.11288 0.57942,4.977705" />
      <polygon
         style="fill:#ffd700;fill-opacity:1;stroke:#da2d1c;stroke-opacity:1"
         id="polygon276"
         points="130.927,58.877 136.774,64.061 132.433,70.566 126.585,65.381 "
         transform="matrix(0.3745451,0,0,0.3745451,96.82782,45.750209)" />
      <path
         style="fill:#ffd700;fill-opacity:1;stroke:#da2d1c;stroke-opacity:1"
         id="path278"
         d="m 149.00195,72.477747 c 0.12285,0.956214 -0.94497,1.468592 -2.32105,1.64725 -1.37646,0.178658 -2.53904,-0.04495 -2.66227,-1.001534 -0.12285,-0.956214 2.49147,-0.323232 2.49147,-0.323232 0,0 2.37087,-1.278697 2.49447,-0.322484 z" />
      <path
         style="fill:#ffd700;fill-opacity:1;stroke:#da2d1c;stroke-opacity:1"
         id="path280"
         d="m 149.19672,70.266433 c 0.24158,1.877969 -0.99217,2.772008 -2.62969,2.984375 -1.63713,0.211993 -3.05778,-0.338214 -3.29974,-2.216183 -0.24195,-1.878344 2.9649,-0.384283 2.9649,-0.384283 0,0 2.72294,-2.262253 2.96265,-0.383909 z" />
      <path
         style="fill:#ffd700;fill-opacity:1;stroke:#da2d1c;stroke-width:1.49818;stroke-linecap:round;stroke-opacity:1"
         id="path282"
         d="m 152.96839,74.190917 c -0.11499,0.84385 -0.64684,4.088908 -0.77044,4.95186" />
      <polygon
         style="fill:#ffd700;fill-opacity:1;stroke:#da2d1c;stroke-opacity:1"
         id="polygon284"
         points="152.113,59.893 156.365,66.449 150.444,71.559 146.193,65.001 "
         transform="matrix(0.3745451,0,0,0.3745451,96.82782,45.750209)" />
      <path
         style="fill:#ffd700;fill-opacity:1;stroke:#da2d1c;stroke-opacity:1"
         id="path286"
         d="m 155.57522,73.52535 c -0.13671,0.954341 -1.30304,1.163337 -2.6765,0.967825 -1.37421,-0.195138 -2.43492,-0.721 -2.29858,-1.675715 0.13671,-0.953967 2.48772,0.35357 2.48772,0.35357 0,0 2.62557,-0.600021 2.49073,0.35432 z" />
      <path
         style="fill:#ffd700;fill-opacity:1;stroke:#da2d1c;stroke-opacity:1"
         id="path288"
         d="m 156.35427,71.44625 c -0.26855,1.874224 -1.69594,2.406452 -3.3312,2.174234 -1.63414,-0.232967 -2.85628,-1.142362 -2.58811,-3.016586 0.26818,-1.874973 2.95928,0.420989 2.95928,0.420989 0,0 3.22858,-1.452861 2.95891,0.421363 z" />
      <path
         style="fill:#ffd700;fill-opacity:1;stroke:#da2d1c;stroke-width:1.49818;stroke-linecap:round;stroke-opacity:1"
         id="path290"
         d="m 158.94238,76.235558 c -0.33597,0.7828 -1.71467,3.767549 -2.06449,4.566454" />
      <polygon
         style="fill:#ffd700;fill-opacity:1;stroke:#da2d1c;stroke-opacity:1"
         id="polygon292"
         points="172.26,66.526 174.607,73.979 167.537,77.324 165.191,69.869 "
         transform="matrix(0.3745451,0,0,0.3745451,96.82782,45.750209)" />
      <path
         style="fill:#ffd700;fill-opacity:1;stroke:#da2d1c;stroke-opacity:1"
         id="path294"
         d="m 161.63161,76.289493 c -0.38653,0.883177 -1.56634,0.773061 -2.83793,0.21836 -1.27195,-0.554702 -2.154,-1.344617 -1.76747,-2.228544 0.38615,-0.882803 2.3027,1.004905 2.3027,1.004905 0,0 2.68923,0.122101 2.30345,1.005279 z" />
      <path
         style="fill:#ffd700;fill-opacity:1;stroke:#da2d1c;stroke-opacity:1"
         id="path296"
         d="m 162.93503,74.493924 c -0.75883,1.734518 -2.27686,1.866358 -3.7904,1.206035 -1.51278,-0.660698 -2.44765,-1.863362 -1.68919,-3.59788 0.75882,-1.735268 2.73942,1.195548 2.73942,1.195548 0,0 3.50199,-0.538596 2.74167,1.196297 z" />
      <path
         style="fill:#ffd700;fill-opacity:1;stroke:#da2d1c;stroke-width:1.49818;stroke-linecap:round;stroke-opacity:1"
         id="path298"
         d="m 164.14856,79.799729 c -0.53298,0.664444 -2.65815,3.173147 -3.20836,3.849575" />
      <polygon
         style="fill:#ffd700;fill-opacity:1;stroke:#da2d1c;stroke-opacity:1"
         id="polygon300"
         points="189.904,78.297 190.178,86.107 182.471,87.442 182.2,79.632 "
         transform="matrix(0.3745451,0,0,0.3745451,96.82782,45.750209)" />
      <path
         style="fill:#ffd700;fill-opacity:1;stroke:#da2d1c;stroke-opacity:1"
         id="path302"
         d="m 166.72917,80.569794 c -0.60826,0.747967 -1.71579,0.326978 -2.79336,-0.54721 -1.07756,-0.874188 -1.71691,-1.870853 -1.10827,-2.619569 0.60788,-0.747966 1.951,1.583203 1.951,1.583203 0,0 2.55814,0.83561 1.95138,1.583576 z" />
      <path
         style="fill:#ffd700;fill-opacity:1;stroke:#da2d1c;stroke-opacity:1"
         id="path304"
         d="m 168.46706,79.188097 c -1.19442,1.468966 -2.69223,1.191054 -3.97467,0.150567 -1.28169,-1.040486 -1.86149,-2.44915 -0.66744,-3.918116 1.19442,-1.469715 2.32106,1.883587 2.32106,1.883587 0,0 3.51323,0.414996 2.31843,1.883962 z" />
      <path
         style="fill:#ffd700;fill-opacity:1;stroke:#da2d1c;stroke-width:1.49818;stroke-linecap:round;stroke-opacity:1"
         id="path306"
         d="m 168.21986,84.624245 c -0.69103,0.498519 -3.40873,2.348772 -4.11962,2.853659" />
      <polygon
         style="fill:#ffd700;fill-opacity:1;stroke:#da2d1c;stroke-opacity:1"
         id="polygon308"
         points="203.767,94.352 201.945,101.951 194.161,101.18 195.986,93.581 "
         transform="matrix(0.3745451,0,0,0.3745451,96.82782,45.750209)" />
      <path
         style="fill:#ffd700;fill-opacity:1;stroke:#da2d1c;stroke-opacity:1"
         id="path310"
         d="m 170.4971,86.055007 c -0.7858,0.558447 -1.74052,-0.142701 -2.54579,-1.273079 -0.80489,-1.130377 -1.15509,-2.261503 -0.36855,-2.820324 0.78542,-0.558447 1.45773,2.046514 1.45773,2.046514 0,0 2.24352,1.49069 1.45698,2.048762 z" />
      <path
         style="fill:#ffd700;fill-opacity:1;stroke:#da2d1c;stroke-opacity:1"
         id="path312"
         d="m 172.54211,85.189808 c -1.54312,1.097043 -2.91246,0.429229 -3.87055,-0.916137 -0.95771,-1.344617 -1.14011,-2.85703 0.40264,-3.954073 1.5435,-1.097792 1.73414,2.434543 1.73414,2.434543 0,0 3.27353,1.339748 1.7304,2.437165 z" />
      <path
         style="fill:#ffd700;fill-opacity:1;stroke:#da2d1c;stroke-width:1.49818;stroke-linecap:round;stroke-opacity:1"
         id="path314"
         d="m 170.85291,90.362276 c -0.7989,0.29589 -3.91175,1.353606 -4.732,1.650246" />
      <polygon
         style="fill:#ffd700;fill-opacity:1;stroke:#da2d1c;stroke-opacity:1"
         id="polygon316"
         points="212.84,113.523 209.057,120.361 201.761,117.54 205.548,110.704 "
         transform="matrix(0.3745451,0,0,0.3745451,96.82782,45.750209)" />
      <path
         style="fill:#ffd700;fill-opacity:1;stroke:#da2d1c;stroke-opacity:1"
         id="path318"
         d="m 172.66571,92.347365 c -0.9064,0.328476 -1.63938,-0.602269 -2.11393,-1.906435 -0.47417,-1.304166 -0.50938,-2.487728 0.39777,-2.816204 0.90602,-0.328476 0.85845,2.361132 0.85845,2.361132 0,0 1.76411,2.037525 0.85771,2.36338 z" />
      <path
         style="fill:#ffd700;fill-opacity:1;stroke:#da2d1c;stroke-opacity:1"
         id="path320"
         d="m 174.86804,92.058965 c -1.77984,0.645341 -2.92145,-0.364058 -3.48552,-1.916173 -0.56406,-1.55174 -0.33597,-3.057786 1.4435,-3.703127 1.78058,-0.645716 1.02138,2.809088 1.02138,2.809088 0,0 2.8016,2.168616 1.02251,2.812834 z" />
      <path
         style="fill:#ffd700;fill-opacity:1;stroke:#da2d1c;stroke-width:1.49818;stroke-linecap:round;stroke-opacity:1"
         id="path322"
         d="m 171.86044,96.594706 c -0.84909,0.07191 -4.13123,0.259935 -5.00093,0.327353" />
      <polygon
         style="fill:#ffd700;fill-opacity:1;stroke:#da2d1c;stroke-opacity:1"
         id="polygon324"
         points="216.467,134.422 210.995,140.001 204.717,135.335 210.191,129.758 "
         transform="matrix(0.3745451,0,0,0.3745451,96.82782,45.750209)" />
      <path
         style="fill:#ffd700;fill-opacity:1;stroke:#da2d1c;stroke-opacity:1"
         id="path326"
         d="m 173.07771,98.991795 c -0.96071,0.07416 -1.41878,-1.018388 -1.52777,-2.401958 -0.10899,-1.383195 0.17304,-2.533423 1.13487,-2.607957 0.96034,-0.07491 0.19664,2.504957 0.19664,2.504957 0,0 1.1536,2.427053 0.19476,2.501962 z" />
      <path
         style="fill:#ffd700;fill-opacity:1;stroke:#da2d1c;stroke-opacity:1"
         id="path328"
         d="m 175.27629,99.298922 c -1.88733,0.146822 -2.71807,-1.131126 -2.84729,-2.777252 -0.12959,-1.645751 0.49215,-3.036437 2.37986,-3.183633 1.88846,-0.147197 0.23409,2.97988 0.23409,2.97988 0,0 2.12367,2.831561 0.23596,2.977634 z" />
      <path
         style="fill:#ffd700;fill-opacity:1;stroke:#da2d1c;stroke-width:1.49818;stroke-linecap:round;stroke-opacity:1"
         id="path330"
         d="m 171.16379,102.86834 c -0.83711,-0.15731 -4.05071,-0.85209 -4.90654,-1.01952" />
      <polygon
         style="fill:#ffd700;fill-opacity:1;stroke:#da2d1c;stroke-opacity:1"
         id="polygon332"
         points="214.383,155.53 207.62,159.447 202.815,153.273 209.58,149.361 "
         transform="matrix(0.3745451,0,0,0.3745451,96.82782,45.750209)" />
      <path
         style="fill:#ffd700;fill-opacity:1;stroke:#da2d1c;stroke-opacity:1"
         id="path334"
         d="m 171.69939,105.50513 c -0.94573,-0.18502 -1.09555,-1.35997 -0.83149,-2.72256 0.26442,-1.36222 0.8431,-2.39559 1.78995,-2.21019 0.94535,0.18427 -0.47905,2.46637 -0.47905,2.46637 0,0 0.46444,2.64804 -0.47941,2.46451 z" />
      <path
         style="fill:#ffd700;fill-opacity:1;stroke:#da2d1c;stroke-opacity:1"
         id="path336"
         d="m 173.73691,106.38906 c -1.85774,-0.36256 -2.31768,-1.81542 -2.00232,-3.43645 0.31462,-1.62028 1.28507,-2.79486 3.14319,-2.43267 1.85924,0.36256 -0.56969,2.93456 -0.56969,2.93456 0,0 1.28844,3.29974 -0.56931,2.93643 z" />
      <path
         style="fill:#ffd700;fill-opacity:1;stroke:#da2d1c;stroke-width:1.49818;stroke-linecap:round;stroke-opacity:1"
         id="path338"
         d="m 168.82288,108.72997 c -0.76482,-0.3753 -3.67616,-1.90269 -4.45596,-2.29222" />
      <polygon
         style="fill:#ffd700;fill-opacity:1;stroke:#da2d1c;stroke-opacity:1"
         id="polygon340"
         points="206.74,175.316 199.177,177.286 196.194,170.053 203.758,168.088 "
         transform="matrix(0.3745451,0,0,0.3745451,96.82782,45.750209)" />
      <path
         style="fill:#ffd700;fill-opacity:1;stroke:#da2d1c;stroke-opacity:1"
         id="path342"
         d="m 168.63186,111.41171 c -0.8622,-0.43073 -0.69291,-1.60268 -0.0745,-2.84579 0.61837,-1.24162 1.45211,-2.0836 2.31543,-1.65212 0.86183,0.42998 -1.12026,2.24914 -1.12026,2.24914 0,0 -0.25844,2.68174 -1.11989,2.25102 z" />
      <path
         style="fill:#ffd700;fill-opacity:1;stroke:#da2d1c;stroke-opacity:1"
         id="path344"
         d="m 170.35851,112.80876 c -1.69331,-0.84534 -1.74875,-2.36787 -1.01202,-3.8462 0.73561,-1.47758 1.98434,-2.35027 3.67841,-1.50567 1.69482,0.84572 -1.33301,2.67612 -1.33301,2.67612 0,0 0.35957,3.52073 -1.33338,2.67426 z" />
      <path
         style="fill:#ffd700;fill-opacity:1;stroke:#da2d1c;stroke-opacity:1"
         id="path346"
         d="m 167.20484,106.14186 c -0.94535,-0.2487 -2.28397,-0.14233 -3.33045,-0.14233 -1.73714,0 -3.46342,0.0596 -5.13951,-0.61575 -0.24795,-0.1 -0.48129,-0.31649 -0.66294,-0.21649 -0.0438,-0.0948 -0.34833,-0.1854 -0.42137,-0.2663 -0.28615,-0.31724 -0.43747,-0.46069 -0.80789,-0.68055 -0.36256,-0.21536 -2.35889,-0.80377 -2.4735,-0.75283 -0.28465,-0.0944 -2.45327,-0.92475 -2.63043,-1.04461 -1.34761,-0.90939 -3.02857,-2.730057 -3.11584,-4.475437 -0.0292,-0.588036 0.16143,-1.39518 -0.29626,-1.40754 -0.4577,-0.01236 -1.56335,0.76969 -1.57309,1.335253 -0.13746,0.14832 -0.21836,0.357691 -0.19065,0.63373 0.1472,1.471213 0.89816,3.045424 2.00981,4.213634 -0.34907,0.3281 -0.50563,0.90715 -0.11236,1.37982 0.90902,1.09293 1.52253,2.37949 2.55964,3.37091 1.03936,0.99404 2.58923,1.4993 3.90875,1.98921 0.1045,0.0389 0.20151,0.0532 0.2944,0.0562 -2.20345,2.1379 -6.26277,-3.28851 -7.93774,-4.57694 -0.47867,-0.36818 -1.24648,0.0228 -1.37533,0.55919 -0.4517,1.88134 0.55321,3.22259 1.88846,4.44923 1.67834,1.542 3.24693,2.02366 5.50694,2.04239 0.15281,0.001 0.28615,-0.0281 0.40001,-0.0794 1.18693,0.20188 2.33566,-0.2075 3.34693,-1.67534 0.48691,-0.002 0.97345,7.5e-4 1.46073,0.024 0.69665,0.0333 1.32514,0.3487 1.99595,0.4502 -0.20113,0.64347 -0.18015,1.29143 -0.1236,1.94763 -0.37117,0.40751 -1.36821,0.64572 -1.72665,0.8034 -0.89629,0.39515 -1.63676,1.0712 -2.40271,1.69295 -0.14382,-0.24196 -0.39814,-0.4165 -0.76594,-0.41687 -3.99677,-0.003 -7.6602,-0.57043 -10.79065,-3.27015 -1.44162,-1.24312 -2.57312,-3.11322 -3.16528,-5.09644 0.0311,-0.13146 0.0363,-0.27604 0.002,-0.4341 -0.19663,-0.90527 0.17642,-1.83377 -0.0131,-2.75515 0.3839,-0.03 0.54384,-0.28878 0.63747,-0.67905 0.13709,-0.57156 0.21499,-1.15959 0.22061,-1.74725 0.005,-0.51051 -0.4296,-0.936367 -0.93636,-0.936367 -0.51425,0 -0.9315,0.426237 -0.93637,0.936367 -0.001,0.14232 -0.008,0.27117 -0.0169,0.39664 -0.29664,0.39702 -0.31237,-0.14907 -0.40601,0.49253 -0.0255,0.17379 -0.27079,0.53634 -0.28765,0.71163 -0.15544,-0.0494 -0.83561,-0.13109 -1.03674,-0.0697 -0.95621,0.29327 -1.86561,0.28877 -2.7604,0.79104 -0.78317,0.43934 -1.48507,0.9828 -2.07498,1.65923 -1.14685,1.3139 -1.75998,3.14506 -2.12367,4.8204 -0.0341,0.15656 -0.0296,0.29963 7.5e-4,0.4296 -0.076,0.27716 -0.0225,0.58878 0.24008,0.85583 2.48624,2.52856 4.52526,5.66874 7.20176,7.98156 0.036,0.0311 0.0749,0.0547 0.11161,0.0828 0.0206,0.45132 0.33447,0.69403 0.91689,0.69403 0.2251,0 1.16259,0.0423 1.30379,-0.0633 0.37043,0.14982 -0.0434,0.40301 0.25469,0.67755 -0.0873,0.17716 0.082,0.33447 0.15619,0.58242 0.40188,1.34986 0.89478,2.75965 1.09479,4.17018 0.0693,0.38803 0.0461,0.5371 0.15619,0.81913 0.16854,0.43073 -0.0259,0.88168 0.206,1.28507 0.0936,0.16293 0.23334,0.2854 0.39327,0.36331 0.19476,0.47005 0.96633,1.03187 0.98393,1.56222 0.27379,-1.39667 0.12285,-0.57155 0.35619,-1.77983 0.13409,-0.60077 0.2251,-1.09368 0.42324,-1.76336 0.0925,-0.31312 0.23184,-0.92363 0.39776,-1.49331 0.23335,-0.42549 0.5798,-0.84648 0.58879,-0.85322 0.76707,-0.95509 1.50867,2.00494 1.68021,2.40308 0.59852,1.38919 1.58058,2.61395 2.56413,3.74845 0.16668,0.19252 0.35695,0.28091 0.54609,0.29926 0.19551,0.29739 0.54309,0.49066 0.98917,0.37904 0.0831,-0.021 0.1663,-0.0416 0.24983,-0.0626 0.38503,-0.0966 0.71051,-0.49777 0.68729,-0.90302 -0.0903,-1.56673 -0.32249,-3.11098 -0.18728,-4.68182 0.03,-0.25694 0.0536,-0.51425 0.0704,-0.77268 0.0266,-0.15207 0.30226,-1.06184 0.32922,-1.21391 0.57568,0.0213 0.9712,0.4813 1.54725,0.52062 0.25619,0.0172 0.67193,0.0476 0.88992,0.12285 0.71688,0.0985 1.07232,0.20563 1.78358,0.31088 0.50489,0.0745 1.11952,0.0622 1.26746,-0.47418 0.0172,-0.0626 -0.0903,-0.309 -0.088,-0.37717 0.027,-0.1824 -0.0183,-0.37454 -0.12172,-0.58653 -0.76894,-1.57684 -1.41391,-2.67351 -2.23866,-4.23948 0.64085,-0.61051 1.57908,-1.34237 2.21581,-1.81954 0.60377,-0.45282 1.21128,-0.69778 1.84538,-1.0918 0.46856,-0.29102 1.00828,-0.46968 1.38095,-0.73223 0.30039,-0.16106 0.47343,-0.53411 0.44009,-0.88281 -7.5e-4,-0.007 0.0989,-1.33038 0.11386,-1.36971 0.28765,-0.0547 0.45283,-0.10487 0.74011,-0.1618 0.0506,-0.01 0.65882,-0.0281 0.70414,-0.0476 0.55245,0.29477 0.60002,0.89104 0.71688,1.13562 0.40526,0.84685 0.89329,1.67459 1.65437,2.09371 1.84688,1.01651 2.5293,-2.01018 2.50158,-3.3563 -0.0599,-2.00382 -0.36331,-4.37843 -1.68171,-5.19119 z m -22.17307,13.20646 c -0.54196,-0.18577 -1.04797,-0.38353 -1.57421,-0.48354 -0.003,-0.20375 -0.0685,-0.41312 -0.22997,-0.60489 -1.20341,-1.43226 -1.66972,-3.16565 -2.07236,-4.95186 -0.0996,-0.44159 -0.20113,-0.87906 -0.3045,-1.31503 0.22884,0.33335 0.48428,0.65021 0.75883,0.9521 -0.11874,0.15394 -0.18728,0.34121 -0.1678,0.54571 0.33185,3.44582 3.35705,5.46724 6.57851,5.81331 0.0318,0.12548 0.0629,0.24945 0.0955,0.3753 -1.04498,0.0112 -2.09745,0.004 -3.08625,-0.33335 z" />
      <path
         style="fill:#ffd700;fill-opacity:1;stroke:#da2d1c;stroke-opacity:1"
         id="path348"
         d="m 156.71384,143.92972 c -0.0899,-0.58804 -0.13671,-1.22552 -0.40451,-1.74276 -0.0846,-0.16293 -0.206,-0.30151 -0.34646,-0.42174 -0.10824,0.004 -0.21798,-0.0109 -0.32023,-0.0644 -0.01,-0.005 -0.0135,-0.008 -0.0202,-0.0109 -0.008,-0.002 -0.0176,-0.004 -0.0333,-0.008 -0.0348,-0.0101 -0.07,-0.0199 -0.10525,-0.0281 -0.0712,-0.0172 -0.14345,-0.0318 -0.21387,-0.0513 -0.1633,-0.0446 -0.33147,-0.103 -0.46743,-0.20525 -0.0655,-0.0491 -0.12247,-0.10637 -0.16854,-0.16892 -0.0772,-0.003 -0.15282,-0.002 -0.22585,0.008 -0.40639,-0.30189 -1.04012,-0.32735 -1.38582,0.22772 -0.45732,0.73523 -1.0536,1.40342 -1.65249,2.04502 -0.1472,0.64796 -0.6989,1.16596 -1.02776,1.72702 -0.11423,0.19514 -0.23409,0.42699 -0.34233,0.67568 0.008,0.10001 -0.006,0.206 -0.0581,0.315 -0.18391,0.38653 -0.26181,0.74309 -0.2723,1.133 0.4944,-0.10226 1.0064,-0.30638 1.31278,-0.72587 0.0959,-0.13147 0.2251,-0.22773 0.36781,-0.26893 0.13783,-0.17191 0.27192,-0.34982 0.35806,-0.53634 0.10188,-0.22024 0.17079,-0.44496 0.31499,-0.64347 0.16293,-0.22436 0.40489,-0.28503 0.62287,-0.24196 0.0389,-0.0479 0.0764,-0.097 0.11611,-0.14457 0.14158,0.0925 0.30675,0.14569 0.48129,0.15543 0.0315,0.0884 0.0551,0.17941 0.0742,0.27192 0.17641,0.0847 0.31275,0.25095 0.32061,0.50227 0.018,0.56519 -0.0161,1.12963 -0.0921,1.6892 -0.002,0.0888 -0.002,0.1779 -0.005,0.26667 0.0131,0.006 0.0262,0.0116 0.0405,0.0157 0.064,0.0176 0.13109,0.0258 0.19813,0.0281 0.002,-0.007 0.002,-0.0131 0.004,-0.0198 0.0659,-0.17903 0.14945,-0.34458 0.23971,-0.50713 7.5e-4,-0.006 0.004,-0.0142 0.005,-0.0202 0.0183,-0.22098 0.13184,-0.41499 0.31125,-0.51537 0.0764,-0.13147 0.14158,-0.26967 0.14869,-0.4165 0.0127,-0.26555 0.16892,-0.43447 0.36181,-0.5135 0.003,-0.0142 0.006,-0.0288 0.0105,-0.0431 -3.7e-4,-0.001 -7.5e-4,-0.003 -0.001,-0.004 0.003,-0.003 0.004,-0.006 0.007,-0.008 0.036,-0.10375 0.0989,-0.19776 0.18202,-0.26817 0.024,-0.0509 0.0502,-0.10113 0.0652,-0.15582 0.0127,0.0105 0.0236,0.0236 0.0367,0.0333 -7.5e-4,0.0187 -0.001,0.0378 -0.002,0.0562 0.2824,-0.14794 0.60676,-0.036 0.77793,0.22286 0.018,0.0273 0.0255,0.0573 0.0401,0.0858 0.0685,0.0888 0.11162,0.2045 0.11349,0.34683 0.003,0.18465 -0.0229,0.36667 -0.0502,0.54833 0.0154,0.003 0.0303,0.006 0.0464,0.006 0.11536,0 0.22173,-0.0288 0.32323,-0.0689 0.0322,-0.14832 0.0607,-0.29776 0.0989,-0.44496 0.0273,-0.10674 0.0768,-0.18877 0.13708,-0.25319 0.0431,-0.48916 0.0386,-0.98168 -0.0243,-1.47047 -0.0337,-0.15731 0.0112,-0.28465 0.0936,-0.37829 z" />
      <path
         style="fill:#ffd700;fill-opacity:1;stroke:#da2d1c;stroke-opacity:1"
         id="path350"
         d="m 143.1965,147.73509 c -0.015,-0.19476 0.0423,-0.37791 0.16967,-0.50713 0.004,-0.0382 0.0101,-0.0764 0.0135,-0.11461 0.004,-0.11761 0.003,-0.23634 0.003,-0.35657 0,-0.0547 0.007,-0.10412 0.0183,-0.15094 0.004,-0.47043 -0.0285,-0.94273 -0.0363,-1.42215 -0.0142,-0.83261 0.15731,-1.6892 0.0292,-2.51619 -0.0127,-0.0813 -0.0157,-0.15881 -0.0116,-0.23372 -0.0626,-0.0461 -0.12809,-0.0873 -0.19888,-0.11873 -0.0112,-0.0273 -0.0198,-0.0558 -0.0337,-0.0832 -0.0468,-0.0921 -0.0427,-0.3899 -0.0633,-0.57193 -0.0401,-0.35881 -0.11611,-0.70489 -0.33372,-1.00228 -0.27004,-0.36855 -0.61238,-0.55545 -1.06895,-0.59216 -0.0858,-0.007 -0.103,-0.005 -0.10337,-0.003 -0.008,-0.003 -0.0322,-0.01 -0.0847,-0.0225 -0.13109,-0.21424 -0.30713,-0.33335 -0.49515,-0.39028 -0.10562,0.15619 -0.28915,0.2502 -0.4944,0.27342 0.0966,-0.0109 -0.10937,0.0363 -0.10262,0.0341 -0.0431,0.0142 -0.0858,0.0292 -0.1281,0.0457 -0.0846,0.0333 -0.16854,0.0697 -0.25394,0.10075 -0.14869,0.0539 -0.30376,0.0839 -0.46106,0.0959 -0.70452,0.31424 -1.28207,0.86557 -1.70419,1.51391 0.0202,0.11835 -7.4e-4,0.24944 -0.0873,0.38316 -0.0659,0.10187 -0.1693,0.29177 -0.29252,0.54009 0.0315,0.0996 0.0307,0.21574 -0.0176,0.34608 -0.33484,0.89853 -0.64796,1.63601 -0.76407,2.60609 -0.0985,0.82212 -0.68167,1.542 -0.01,2.27311 0.13634,-0.045 0.24196,-0.12397 0.32885,-0.2236 0.0547,-0.0738 0.10637,-0.15244 0.15244,-0.23335 0.29702,-0.6356 0.16031,-1.71054 0.32773,-2.23566 0.20562,-0.64571 0.29289,-1.25247 0.89516,-1.64575 0.19739,-0.12921 0.39028,-0.11948 0.54347,-0.0337 0.0569,-0.0464 0.10936,-0.0981 0.15094,-0.16105 0.0629,0.0798 0.14083,0.14532 0.22435,0.20338 0.24233,0.0472 0.44721,0.23034 0.4311,0.55358 -0.0292,0.5914 -0.0315,1.17944 -0.0225,1.77122 0.005,0.30713 0.004,0.81688 0.20151,1.07757 0.0682,0.0899 0.26967,0.15281 0.38503,0.20225 0.0251,-0.0292 0.0543,-0.058 0.0891,-0.0854 0.2075,-0.16142 0.30675,-0.47042 0.35806,-0.79965 0.001,-0.008 0.002,-0.0176 0.004,-0.0258 0.0483,-0.32698 0.0517,-0.67006 0.067,-0.9049 0.0363,-0.55396 -0.064,-1.10042 -0.0258,-1.6465 0.0206,-0.29402 0.21349,-0.47231 0.43747,-0.5371 -0.002,-0.0105 -0.002,-0.0229 -0.004,-0.033 0.0775,-0.0356 0.15094,-0.0768 0.21499,-0.12885 0.0187,0.0464 0.0404,0.0929 0.0622,0.13934 0.26106,0.0322 0.48878,0.21686 0.46444,0.55919 -0.002,0.0251 -7.5e-4,0.0502 -0.002,0.0753 0.0648,0.26631 0.15169,0.52999 0.17941,0.83412 0.10075,0.0738 0.17678,0.17641 0.19926,0.30375 0.0468,0.26743 0.14307,0.51275 0.17154,0.78617 0.0255,0.24645 0.0386,0.49178 0.0273,0.73935 -0.003,0.0603 -0.015,0.11462 -0.0311,0.16518 0.19551,0.25432 0.25582,0.60601 0.17604,0.92101 0.12135,0.0697 0.22061,0.16292 0.29551,0.27304 h 0.10825 c 0.0359,0 0.0708,0.006 0.10562,0.0109 -0.004,-0.007 -0.007,-0.0262 -0.007,-0.0412 z" />
      <path
         style="fill:#ffd700;fill-opacity:1;stroke:#da2d1c;stroke-opacity:1"
         id="path352"
         d="m 150.4065,146.0384 c -0.17192,0 -0.315,0.0427 -0.43785,0.10787 -0.009,0.0266 -0.0161,0.0536 -0.0288,0.0805 -0.1839,0.38653 -0.2618,0.74347 -0.27267,1.13412 0.49478,-0.10225 1.00678,-0.30787 1.31316,-0.72661 0.0539,-0.0734 0.11836,-0.13447 0.18952,-0.18278 -0.14607,-0.23971 -0.39702,-0.412 -0.76407,-0.412 z" />
      <path
         style="fill:#ffd700;fill-opacity:1;stroke:#da2d1c;stroke-opacity:1"
         id="path354"
         d="m 153.56017,146.574 c -0.002,0.3944 -0.01,0.7888 -0.0202,1.18319 -3.7e-4,0.009 -3.7e-4,0.0127 -3.7e-4,0.0206 7.5e-4,3.8e-4 0.002,3.8e-4 0.003,7.5e-4 0.0742,0.0165 0.1442,0.0389 0.21274,0.0663 0.12547,-0.22698 0.25881,-0.48654 0.27342,-0.66332 0.0139,-0.16668 0.082,-0.31912 0.19176,-0.42736 -0.15056,-0.1663 -0.37079,-0.27754 -0.66331,-0.27754 -0.002,0 -0.004,7.5e-4 -0.006,7.5e-4 0,0.03 0.007,0.0637 0.007,0.0974 z" />
      <path
         style="fill:#ffd700;fill-opacity:1;stroke:#da2d1c;stroke-opacity:1"
         id="path356"
         d="m 156.22318,145.68259 c -0.082,0 -0.15693,0.0101 -0.22735,0.0262 0.0479,0.0805 0.0794,0.17678 0.0809,0.29289 0.006,0.42848 -0.13071,0.84123 -0.12509,1.26896 0.001,0.0861 -0.0146,0.16143 -0.0408,0.22772 0.0828,0.0277 0.17079,0.0487 0.27117,0.0528 0.097,-0.50488 0.18465,-1.01089 0.3135,-1.50867 0.0292,-0.11348 0.0832,-0.19888 0.14907,-0.2648 -0.11986,-0.0562 -0.25844,-0.0936 -0.42324,-0.0936 z" />
      <path
         style="fill:#ffd700;fill-opacity:1;stroke:#da2d1c;stroke-opacity:1"
         id="path358"
         d="m 143.1965,147.73509 c -0.015,-0.19776 0.0438,-0.38465 0.17567,-0.51387 0.0116,-0.15319 0.0105,-0.3075 0.01,-0.46406 0,-0.0551 0.007,-0.10525 0.0191,-0.15282 -0.14795,-0.13521 -0.34983,-0.22248 -0.60902,-0.22248 -0.11835,0 -0.22135,0.0225 -0.31649,0.0547 -0.015,0.49177 -0.0554,1.17045 0.50002,1.36933 0.0757,0.027 0.13783,0.0652 0.19027,0.10975 0.0124,-0.0247 0.0236,-0.0502 0.036,-0.0753 -0.007,-0.0412 -0.0112,-0.0749 -0.0112,-0.10862 z" />
      <path
         style="fill:#ffd700;fill-opacity:1;stroke:#da2d1c;stroke-opacity:1"
         id="path360"
         d="m 140.34996,147.30062 c 0.0876,-0.14794 0.14982,-0.30113 0.22098,-0.46294 0.0461,-0.10412 0.0955,-0.20188 0.15581,-0.29888 0.0116,-0.018 0.0217,-0.0367 0.0326,-0.0547 -0.0389,-0.16854 -0.006,-0.31312 0.0674,-0.4281 -0.14233,-0.24683 -0.39777,-0.42736 -0.77119,-0.42736 -0.19177,0 -0.34983,0.0509 -0.48054,0.13072 0.0697,0.0895 0.11199,0.20712 0.10974,0.35357 -0.003,0.21873 -0.0476,0.48241 -0.0127,0.71276 0.10675,0.0217 0.206,0.0715 0.27904,0.15881 0.10712,0.12772 0.23859,0.19588 0.37417,0.29139 0.007,0.0112 0.015,0.0225 0.0225,0.03 z" />
      <path
         style="fill:#ffd700;fill-opacity:1;stroke:#da2d1c;stroke-opacity:1"
         id="path362"
         d="m 136.2824,146.69386 c -0.0438,0.31611 -0.17529,1.13038 0.28878,1.22514 0.35506,0.0727 0.68129,-0.67419 0.80002,-0.91165 0.007,-0.0135 0.0154,-0.0236 0.0229,-0.036 -0.12285,-0.30788 -0.39777,-0.54909 -0.82962,-0.54909 -0.10337,0 -0.19439,0.018 -0.28016,0.0427 0.007,0.0787 0.007,0.15357 -0.004,0.23222 z" />
      <path
         style="fill:#ffd700;fill-opacity:1;stroke:#da2d1c;stroke-width:0.994;stroke-miterlimit:4;stroke-dasharray:none;stroke-opacity:1"
         id="path364"
         d="m 160.17089,109.92102 c -0.94386,0.57118 -3.84546,-0.99179 -3.84546,0.86745 0,0.19813 -0.24944,0.29252 -0.38878,0.41387 -0.22997,-0.0959 -0.50151,-0.10375 -0.78317,0.0393 -0.82737,0.42061 -1.95662,0.0322 -2.83006,-0.0554 -0.91314,-0.0921 -1.80007,-0.0697 -2.6956,-0.18502 -1.12214,-0.52436 -2.07124,-1.35923 -2.72894,-2.42593 -0.52549,-0.85134 -0.6562,-1.86486 -0.67493,-2.8428 -0.0225,-1.18431 0.26518,-0.91651 1.01652,-0.31686 0.97044,0.77381 1.65549,1.82516 2.6705,2.55589 1.33151,0.95921 2.64542,1.85101 4.20015,2.36975 1.14911,0.38316 5.3103,-3.11809 0.68654,-1.99445 -0.96969,0.23559 -1.87497,-0.70902 -2.74017,-1.20866 -0.0648,-0.15581 -0.17191,-0.30151 -0.33821,-0.41912 -4.05071,-2.86901 -3.05067,-8.533256 -3.07539,-12.985474 0.0843,-0.02135 0.0652,-0.14832 0.13296,-0.189145 -0.006,-0.456945 0.0322,-0.921381 0.0386,-1.380948 7.5e-4,-0.07079 0.0101,-1.273079 0.0225,-1.336002 -0.13933,-0.100004 -0.31649,0.636352 -0.53485,0.636352 -0.0389,0 -0.15955,-0.200756 -0.19626,-0.164051 -0.16031,-0.157683 -0.28203,0.255065 -0.52174,0.286527 -1.08843,0.143826 -1.84239,0.469305 -2.38848,1.462224 -0.34757,0.631858 -0.41274,1.389937 -0.71013,2.044642 -0.40451,0.890294 -1.29668,1.408664 -2.11206,1.861489 -0.0221,0.01236 -0.0386,0.02772 -0.0588,0.04083 -0.23259,-0.112738 -0.55058,-0.149444 -0.80302,0.102999 -0.68055,0.680549 -1.23375,1.341621 -1.19068,2.423307 0.0202,0.50189 0.2839,0.91726 0.4959,1.37083 0.53822,1.1506 0.53859,2.17199 0.53934,3.42297 0.003,3.23981 0.58167,5.98748 3.29562,8.03811 2.37462,1.7937 4.89868,2.24053 7.7677,2.58886 2.48098,0.30151 5.59083,0.91876 7.42648,-1.07307 4.26232,-4.60691 3.33345,-5.75676 0.33334,-3.94396 z" />
      <path
         style="fill:#ffd700;fill-opacity:1;stroke:#da2d1c;stroke-width:0.594;stroke-miterlimit:4;stroke-dasharray:none;stroke-opacity:1"
         id="path366"
         d="m 136.99404,104.46015 c -2.21057,1.2963 -3.37578,3.63721 -2.36338,6.35791 0.25019,0.67305 2.12591,2.81508 0.93299,0.13633 -0.85921,-2.30982 -0.0363,-4.38779 1.88134,-5.69983 1.59556,0.58055 0.55807,-1.38207 -0.44946,-0.79029 z" />
      <path
         style="fill:#ffd700;fill-opacity:1;stroke:#da2d1c;stroke-width:0.594;stroke-miterlimit:4;stroke-dasharray:none;stroke-opacity:1"
         id="path368"
         d="m 139.29749,113.1084 c -0.52848,-1.70043 -2.45552,-5.91706 -0.28803,-6.34554 0.50302,-0.0996 0.31612,-1.25847 -0.79441,-0.79441 -2.54803,1.06483 -1.37945,3.43308 0.17117,7.26655 0.78655,0.55432 1.12364,0.56556 0.91015,-0.12735 z" />
      <path
         style="fill:#ffd700;fill-opacity:1;stroke:#da2d1c;stroke-width:0.994;stroke-miterlimit:4;stroke-dasharray:none;stroke-opacity:1"
         id="path370"
         d="m 147.36894,118.35203 c -1.60643,0.1236 -2.95741,-0.7004 -4.07655,-1.87947 -1.06109,-1.11801 -1.17982,-2.76451 -1.55399,-4.18179 -0.1618,-0.61388 -0.36518,-1.55586 -0.83037,-1.39368 -0.41911,0.14644 -1.26971,1.48582 -0.97531,1.89182 1.20716,1.66448 0.83224,3.73946 2.3027,5.28895 1.342,1.41391 3.25292,1.96974 5.13352,2.14652 1.19854,0.11237 3.25854,-2.12367 -0.004,-1.87272 z" />
      <path
         style="fill:#ffd700;fill-opacity:1;stroke:#da2d1c;stroke-opacity:1"
         id="path372"
         d="m 149.99824,84.830245 c -0.73598,-0.735981 -2.77875,0.962206 -3.47203,0.269298 -1.98022,-1.98022 -0.93187,-0.392149 -1.32402,0 -0.0206,0.0206 -0.0367,0.04607 -0.0551,0.06892 0.12623,0.167047 0.20488,0.371549 0.20488,0.593279 v 0.430727 c 0,0.105247 -0.0217,0.205251 -0.0532,0.301509 0.0771,0.05656 0.0562,0.210494 0.13371,0.265553 -0.0678,0.127719 -0.69965,4.542857 -0.79891,4.626755 -0.3045,0.972319 -0.51987,2.017675 -1.14049,2.846917 -0.10487,0.14008 -0.23296,0.254691 -0.37304,0.340087 -0.0918,0.192891 -0.20825,0.349076 -0.37043,0.468182 -0.36518,0.761825 -0.85958,1.406042 -1.42215,2.049511 -0.0138,0.01573 -0.0311,0.02659 -0.0461,0.0412 0.0843,0.02622 0.17417,0.04532 0.27567,0.04757 1.04236,0.0236 1.80531,0.02097 2.63642,-0.658451 0.89179,-0.729239 0.96371,-2.157005 1.24948,-3.169775 0.27192,-0.963704 2.59897,-0.577548 3.14356,-1.674216 0.47979,-0.965952 0.47268,-1.9761 0.69403,-3.010594 0.0483,-0.225851 0.0202,-0.426232 -0.0573,-0.595152 0.36705,-0.397018 1.26971,-2.74167 0.77156,-3.239815 z" />
      <path
         style="fill:#ffd700;fill-opacity:1;stroke:#da2d1c;stroke-width:0.374545;stroke-linecap:butt;stroke-linejoin:miter;stroke-miterlimit:4;stroke-dasharray:none;stroke-opacity:1"
         id="path4006"
         d="m 149.37204,71.157602 -1.57342,1.199758 -1.72428,-1.301926 -1.85424,2.736757 1.65528,1.847111 0.43984,2.907493 1.8883,0.276637 1.96679,-3.96974 1.93185,-1.270193 z m -1.64841,2.702286 c 0.55493,0.630652 0.34914,2.126784 -0.24412,2.770605 -0.64334,-1.071275 -0.28828,-1.881319 0.24412,-2.770605 z" />
      <path
         style="fill:#ffd700;fill-opacity:1;stroke:#da2d1c;stroke-opacity:1"
         id="path374"
         d="m 150.62373,81.441361 c -0.18465,-0.181655 -0.30113,-0.4326 -0.30113,-0.706767 v -0.07191 c 0,-0.07791 0.0116,-0.153563 0.0296,-0.226974 -0.25394,-0.65021 -0.73561,-1.099664 -1.21952,-1.583577 -1.20454,-1.204537 -3.22371,-1.028875 -4.22824,-0.01536 -0.0509,0.0041 -0.13259,0.204876 -0.18016,0.217985 -0.23409,0.06442 -0.43709,0.220982 -0.55957,0.430353 -0.13933,0.237836 -0.13221,0.459941 -0.0944,0.721373 0,7.5e-4 3.7e-4,0.0019 3.7e-4,0.003 -0.008,0.01873 -0.0165,0.03745 -0.0236,0.05581 -0.0416,0.110491 -0.0405,0.234091 -0.0517,0.350949 -0.0135,0.136709 0.0161,0.266301 0.0723,0.384658 -0.088,0.148694 -0.2105,0.26293 -0.36069,0.377541 -0.11424,0.08689 -0.25245,0.136709 -0.39664,0.166673 -0.0667,0.09176 -0.16593,0.166672 -0.30189,0.20937 -0.17603,0.05506 -0.3487,0.119855 -0.52137,0.185775 -0.0105,0.05618 -0.20262,0.02622 -0.20412,0.08465 -0.51538,0.08577 -0.83486,0.328851 -1.27832,0.612007 -0.40564,0.259185 -0.0303,0.907897 0.37829,0.646839 0.0154,-0.0097 0.0315,-0.01648 0.0468,-0.02584 0.0536,0.03933 0.11499,0.07041 0.19514,0.07716 0.46444,0.03858 0.90078,-0.04869 1.3229,-0.198884 0.0202,0.01536 0.0427,0.02697 0.064,0.04045 0.03,-0.03034 0.0622,-0.05918 0.097,-0.08502 0.0839,-0.06217 0.1854,-0.09626 0.28353,-0.130716 0.12173,-0.0427 0.24832,-0.02996 0.36219,0.0176 0.0371,-0.0079 0.0749,-0.01236 0.11348,-0.01273 0.1296,-0.0019 0.25732,0.0056 0.38391,0.02397 0.0809,-0.01161 0.15731,-0.009 0.22735,0.03895 0.22211,-0.05618 0.46631,0.406381 0.37455,0.181654 0.2045,0.500767 0.0596,0.565189 0.41237,1.033745 0.76707,1.019511 1.58582,1.779089 3.04243,2.271241 0.58054,0.196262 1.24611,0.09551 1.53751,-0.40301 0.67418,-1.153599 0.84647,-2.982128 0.77531,-4.669829 z" />
      <path
         style="fill:#ffd700;fill-opacity:1;stroke:#da2d1c;stroke-opacity:1"
         id="path376"
         d="m 144.41003,128.17635 c -0.13559,-0.21686 -0.28877,-0.42211 -0.46256,-0.64796 -0.20563,-0.2678 -0.48429,-0.38092 -0.76108,-0.38841 0.009,0.0566 0.0169,0.11386 0.0165,0.17679 -0.004,0.64646 -0.0685,1.28169 -0.15881,1.92104 -0.0127,0.0891 -0.0442,0.16967 -0.0873,0.24345 -0.002,0.042 -0.001,0.0828 -0.009,0.12623 -0.53785,3.21509 -0.6401,6.34928 -1.64313,9.47449 -0.0315,0.0985 -0.0764,0.18165 -0.12585,0.25769 -3.7e-4,0.0494 -0.004,0.0996 -0.004,0.14832 0.0169,1.20678 1.88958,1.20828 1.87272,0 -0.0116,-0.83 0.19402,-1.55811 0.45957,-2.33866 0.25919,-0.76183 0.16293,-1.61205 0.30113,-2.39597 0.33897,-1.92067 0.79441,-3.82748 0.97794,-5.79421 0.0375,-0.39327 -0.13109,-0.65171 -0.37454,-0.78655 z" />
      <path
         style="fill:#ffd700;fill-opacity:1;stroke:#da2d1c;stroke-opacity:1"
         id="path378"
         d="m 154.38042,140.7311 c -0.27005,-2.73493 -0.7813,-5.4354 -0.83524,-8.18755 -0.004,-0.2075 0.0483,-0.37755 0.13259,-0.518 -0.0183,-0.11049 -0.0363,-0.22211 -0.0543,-0.33222 -0.0509,-0.0816 -0.0929,-0.16892 -0.11161,-0.2678 -0.16031,-0.84235 -0.0476,-1.67422 -0.079,-2.51507 -0.0206,0.0195 -0.0416,0.0337 -0.0614,0.0554 -0.29515,0.32511 -0.57793,0.64422 -0.96483,0.85883 -0.1487,0.0824 -0.51088,0.10375 -0.61126,0.0356 -0.19027,-0.13034 -0.37792,-0.17603 -0.55096,-0.16143 0.16593,0.17791 0.27117,0.412 0.26556,0.66782 -0.006,0.29139 0.0135,0.37379 0.0816,0.6592 0.0551,0.22997 0.11199,0.45957 0.15693,0.69216 0.002,0.012 0.002,0.0236 0.004,0.0359 0.004,3.8e-4 0.007,0.001 0.0109,0.001 -3.7e-4,0.0569 0.001,0.11536 0.0112,0.17603 0.0371,0.22511 0.0738,0.45433 0.11124,0.68242 0.0794,0.0955 0.14645,0.21012 0.19102,0.3502 0.42136,1.3184 0.50713,2.73156 0.75358,4.09116 0.10225,0.56594 0.11087,1.15735 0.1266,1.74351 0.24383,0.64384 0.3105,1.34499 0.2236,2.04202 -0.0127,0.10225 -0.0419,0.19589 -0.079,0.28503 0.38728,0.33447 1.04199,0.31274 1.36897,-0.064 -0.0487,-0.0936 -0.0824,-0.20225 -0.0974,-0.32585 z" />
      <path
         style="fill:#ffd700;fill-opacity:1;stroke:#da2d1c;stroke-opacity:1"
         id="path380"
         d="m 146.9869,79.843926 c -0.0374,0.01648 -0.0562,0.02734 0,0 z" />
      <path
         style="fill:#ffd700;fill-opacity:1;stroke:#da2d1c;stroke-width:0.5;stroke-miterlimit:4;stroke-dasharray:none;stroke-opacity:1"
         id="path382"
         d="m 144.91567,83.023065 c -0.0161,-0.02847 -0.0326,-0.05656 -0.0491,-0.08465 -0.11873,-0.495897 -0.46256,-0.909021 -0.86408,-1.222889 -0.0464,-0.03633 -0.0959,-0.06517 -0.14682,-0.09027 -0.0929,-0.06892 -0.21049,-0.09663 -0.32847,-0.09027 -0.0513,-7.49e-4 -0.10375,0.0034 -0.15918,0.01835 -0.0892,0.02435 -0.17342,0.07903 -0.24421,0.149069 -0.027,0.0022 -0.0528,0.0041 -0.0805,0.0064 -0.23484,0.01873 -0.39177,0.152814 -0.47342,0.32136 -0.40226,0.159556 -0.81351,0.289523 -1.24686,0.27529 -0.72512,-0.0236 -0.72287,1.100414 0,1.123636 0.74797,0.02397 1.41278,-0.272295 2.08996,-0.541967 0.0404,0.0618 0.0828,0.122476 0.12585,0.182403 0.0944,-0.0648 0.20824,-0.103374 0.3296,-0.104872 0.18952,-0.0026 0.37642,-0.0015 0.55994,0.05581 0.28091,0.08802 0.46331,0.358065 0.42324,0.647588 0.14607,-0.176036 0.16854,-0.426981 0.0599,-0.64609 z" />
      <path
         style="fill:#ffd700;fill-opacity:1;stroke:#da2d1c;stroke-width:0.374545;stroke-opacity:1"
         id="path384"
         d="m 139.96043,119.72661 c -1.37345,2.12255 -10.37789,11.80342 -12.12552,12.61506 -2.37199,1.436 -11.36108,0.66594 -8.55199,-9.73818 4.43199,-7.24108 11.58805,-11.11088 12.46224,-11.98507 1.59219,1.59182 8.21527,9.10894 8.21527,9.10894 z" />
      <path
         style="fill:#ffd700;fill-opacity:1;stroke:#da2d1c;stroke-width:0.374545;stroke-opacity:1"
         id="path386"
         d="m 125.32433,129.52097 c -0.87306,0 -2.02142,-0.28129 -2.62593,-1.07045 -0.66669,-0.87045 -0.7622,-2.45964 -0.27829,-4.50503 2.62219,-4.09078 8.71754,-9.41644 10.96743,-10.94346 1.34687,1.44462 3.09712,3.34806 4.61215,5.00317 -2.70834,2.93606 -10.36404,10.49326 -11.66633,11.31726 l -0.0858,0.0393 -0.0955,0.0577 c -0.10375,0.0375 -0.3914,0.10113 -0.82587,0.10113 z" />
      <path
         style="fill:#ffd700;fill-opacity:1;stroke:#da2d1c;stroke-width:0.374545;stroke-opacity:1"
         id="path388"
         d="m 125.32433,128.77188 c -0.66257,0 -1.59219,-0.20338 -2.03115,-0.77681 -0.50339,-0.65733 -0.56519,-2.02105 -0.17267,-3.75332 2.37874,-3.64357 7.5954,-8.35385 10.16628,-10.24905 1.20304,1.29518 2.58623,2.8001 3.69339,4.00801 -3.18626,3.38476 -9.80859,9.8554 -11.01013,10.66442 l -0.0742,0.0345 -0.0408,0.0243 c -0.0846,0.015 -0.26406,0.045 -0.52961,0.045 z" />
      <path
         style="fill:#ffd700;fill-opacity:1;stroke:#da2d1c;stroke-width:0.374545;stroke-opacity:1"
         id="path390"
         d="m 125.32433,128.02279 c -0.52998,0 -1.19367,-0.16593 -1.43638,-0.48317 -0.25918,-0.33821 -0.42623,-1.32401 -0.0659,-3.00123 2.10982,-3.17015 6.57552,-7.36842 9.37637,-9.53966 0.91351,0.98618 1.89332,2.05138 2.75777,2.99336 -3.44431,3.61062 -9.20032,9.1846 -10.3513,10.01422 -0.0659,0.007 -0.15956,0.015 -0.28091,0.015 z" />
      <path
         style="fill:#ffd700;fill-opacity:1;stroke:#da2d1c;stroke-width:0.374545;stroke-opacity:1"
         id="path392"
         d="m 125.32433,127.2737 c -0.41686,0 -0.77718,-0.13222 -0.85321,-0.20263 -0.0685,-0.11424 -0.23372,-0.8079 0.0543,-2.23641 1.99558,-2.93906 6.0137,-6.73208 8.59394,-8.81792 0.60489,0.65433 1.22439,1.32776 1.80905,1.96412 -3.28663,3.40798 -8.25198,8.21527 -9.59847,9.29284 h -0.004 z" />
      <path
         style="fill:#ffd700;fill-opacity:1;stroke:#da2d1c;stroke-width:0.374545;stroke-opacity:1"
         id="path394"
         d="m 125.11684,126.47966 c -0.0154,-0.25844 -0.006,-0.6959 0.11423,-1.34686 1.72329,-2.48361 5.10767,-5.82306 7.81751,-8.08568 0.28465,0.30825 0.56968,0.618 0.84984,0.92288 -3.03306,3.11996 -7.25569,7.20999 -8.78158,8.51341 z" />
      <path
         style="fill:#ffd700;fill-opacity:1;stroke:#da2d1c;stroke-width:0.375;stroke-miterlimit:4;stroke-dasharray:none;stroke-opacity:1"
         id="path396"
         d="m 140.70578,82.954148 c 0,1.064083 3.31547,-0.514999 4.06044,0.229596 0.59965,0.599647 1.51092,7.73136 -1.91542,12.01728 -3.42634,4.28592 -2.41394,4.048083 -2.41394,5.298316 0,1.25023 -0.62512,1.25023 -0.62512,1.87535 -1.45848,0 -7.05418,-0.2678 -8.06658,8.24523 8.15572,9.04864 7.97706,8.87035 8.21527,9.10819 0.86333,-0.38691 0.89292,-0.14869 1.54762,-0.14869 0.50601,0.95246 1.78621,4.61364 1.78621,7.23321 0,2.61957 -1.1315,8.92878 -1.90494,12.50044 -1.13,1.65811 -3.51248,-0.6547 -5.14962,7.94748 0.19327,0.66968 0.37268,0.81014 0.86333,0 0.50526,-0.83449 -0.18952,-4.25034 2.60683,-3.68066 0.0802,2.10382 -0.1382,2.45402 0.15544,3.24768 0.518,0.74422 0.58691,0.0757 0.78018,-0.34083 0.3869,-1.93453 -0.3075,-3.35293 0.70452,-3.35293 0.62137,-0.24196 1.28955,1.95437 1.28955,4.09715 0.082,0.69216 0.77381,1.0712 0.77381,-0.89329 0,-1.96449 0.0891,-5.0897 -0.77381,-5.95302 0.59516,-1.548 2.37088,-12.91844 2.70347,-13.87091 0.3326,-0.95246 0.51126,-3.63121 1.70193,-3.63121 1.22065,1.22064 1.48882,4.941 4.2863,6.66765 0.5356,1.72628 1.93452,8.00703 1.93452,11.63824 -2.29184,3.06603 -3.48252,4.61365 -3.48252,6.22082 1.78658,-0.77381 1.72591,-1.78621 2.50009,-2.56002 1.96487,0 0.99346,1.14792 1.25061,2.91322 0.41649,0.29738 0.59745,-1.52403 1.57988,-2.50609 0.43698,0.16027 0.39305,-0.23711 0.92021,2.45091 0.88291,-1.47468 0.89291,-4.82252 0,-5.71544 -0.89292,-0.89292 -0.89292,-0.11873 -1.66673,-0.89292 0,-1.25023 -1.84613,-15.4777 -0.86333,-18.78193 2.02405,0.77381 0.69254,0.27529 2.64916,0.62511 1.58208,0.28278 2.17274,0.68467 2.85741,0 0,-1.66672 -2.20308,-4.46458 -2.50047,-5.35787 0.92288,-0.92288 3.92898,-3.15554 5.17921,-3.51248 1.25023,-0.35694 0.44646,-1.87497 0.95247,-2.38098 2.05363,-0.44609 1.19031,-0.47755 2.61957,2.02404 0.37567,0.6577 -0.03,-0.1487 1.30941,1.19068 1.41016,0 1.6068,-0.47605 2.02404,-1.72628 0.64085,-1.91992 0.0832,-7.14258 -1.84538,-7.14258 -9.16812,0 -8.69844,-0.89853 -9.88238,-1.84538 -1.18393,-0.94685 -6.93545,-0.48691 -8.05796,-5.813314 -0.18727,-0.888796 -0.37454,-9.286472 0.79479,-10.974921 1.36933,-2.500089 1.29442,-6.531317 0.20412,-7.917509 -0.99104,-1.25997 -2.78362,-2.494096 -5.26423,-0.357316 -0.95734,0.824748 -0.0708,1.726278 -0.66631,2.321805 -0.97382,0.214989 -3.16491,1.102286 -3.16491,1.51129 z"
        />
      <path
         style="fill:#ffd700;fill-opacity:1;stroke:#da2d1c;stroke-width:0.374545;stroke-opacity:1"
         id="path400"
         d="m 161.98743,111.68138 c 1.97947,1.30529 11.00563,9.86252 11.76296,11.52401 1.33938,2.25438 0.62137,10.79663 -9.08047,8.12725 -6.7523,-4.21251 -10.36104,-11.01312 -11.17605,-11.84312 1.47945,-1.51316 8.49094,-7.80926 8.49094,-7.80926 z" />
      <path
         style="fill:#ffd700;fill-opacity:1;stroke:#da2d1c;stroke-width:0.374545;stroke-opacity:1"
         id="path402"
         d="m 172.60204,126.34857 c 0.0221,0.87306 -0.23072,2.02816 -1.00491,2.65178 -0.85358,0.68841 -2.44016,0.82325 -4.49716,0.39027 -4.15445,-2.52031 -9.62993,-8.48119 -11.21238,-10.69251 1.41091,-1.38207 3.27015,-3.17914 4.88706,-4.73537 3.00273,2.63492 10.7472,10.10073 11.60341,11.38205 l 0.0416,0.0846 0.0599,0.0944 c 0.0412,0.10113 0.11237,0.38953 0.1236,0.824 z" />
      <path
         style="fill:#ffd700;fill-opacity:1;stroke:#da2d1c;stroke-width:0.374545;stroke-opacity:1"
         id="path404"
         d="m 171.85295,126.3673 c 0.0165,0.66257 -0.16405,1.59706 -0.72587,2.05026 -0.64459,0.51949 -2.00606,0.615 -3.7477,0.26592 -3.70163,-2.28734 -8.54,-7.38528 -10.4985,-9.90821 1.26484,-1.23488 2.73493,-2.65515 3.91475,-3.7919 3.46304,3.10086 10.09586,9.56027 10.93447,10.74158 l 0.0363,0.0734 0.0255,0.0397 c 0.0225,0.0787 0.0562,0.25844 0.0637,0.52437 z" />
      <path
         style="fill:#ffd700;fill-opacity:1;stroke:#da2d1c;stroke-width:0.374545;stroke-opacity:1"
         id="path406"
         d="m 171.10386,126.38602 c 0.0131,0.52998 -0.13634,1.19742 -0.44721,1.44799 -0.33185,0.26743 -1.31315,0.4592 -2.99861,0.14046 -3.22183,-2.03041 -7.52985,-6.39049 -9.76963,-9.13665 0.96295,-0.93749 2.00382,-1.94314 2.92407,-2.83119 3.69489,3.35368 9.41045,8.96961 10.26853,10.09961 0.007,0.0562 0.015,0.14982 0.0187,0.27342 z" />
      <path
         style="fill:#ffd700;fill-opacity:1;stroke:#da2d1c;stroke-width:0.374545;stroke-opacity:1"
         id="path408"
         d="m 170.35477,126.40475 c 0.0105,0.41649 -0.11274,0.78018 -0.18091,0.85771 -0.11273,0.0712 -0.80227,0.25394 -2.23715,10e-4 -2.98775,-1.92179 -6.87927,-5.8444 -9.02879,-8.37221 0.63935,-0.621 1.29705,-1.25697 1.9188,-1.85737 3.48813,3.20124 8.41752,8.04486 9.52805,9.36475 v 0.007 z" />
      <path
         style="fill:#ffd700;fill-opacity:1;stroke:#da2d1c;stroke-width:0.374545;stroke-opacity:1"
         id="path410"
         d="m 169.56448,126.62948 c -0.25806,0.0221 -0.69553,0.0236 -1.34911,-0.0809 -2.52556,-1.66074 -5.94815,-4.96123 -8.27782,-7.61413 0.3015,-0.29215 0.60376,-0.58467 0.90153,-0.87232 3.18737,2.95891 7.38228,7.07891 8.72315,8.5696 z" />
  
</g>
   <ellipse
       style="fill:#da2d1c;fill-opacity:1;fill-rule:evenodd;stroke-width:1.03348"
       id="path2140"
       cx="180.01917"
       cy="160.26857"
       rx="2.107918"
       ry="1.8629838" />
</g>

</svg>