<svg xmlns="http://www.w3.org/2000/svg" viewBox="25 50 300 300" width="200" height="200"><g fill="gold" stroke="#da2d1c"><path d="M177.632 127.577c-.363-2.03-3.155-2.048-4.107-.537-1.033 1.638-2.131 3.479-4.36 3.123-1.118-.18-2.06-.561-2.786-1.182-.016-.032-.033-.062-.047-.095-.21-.475-.507-.788-.845-.972a5.115 5.115 0 01-.557-1.423c-.665-2.82-4.998-1.624-4.334 1.195.373 1.584 1.112 2.914 2.112 3.98 3.51 6.334 16.345 3.836 14.93-4.09zM126.29 125.84c-.423 1.487-1.135 3.336-2.435 4.278-1.743 1.263-3.423-1.733-3.87-2.976-.974-2.706-5.318-1.539-4.334 1.195 1.29 3.584 4.065 6.908 8.246 6.426 3.702-.426 5.815-4.519 6.727-7.73.793-2.79-3.544-3.973-4.334-1.19z" transform="matrix(-2.30906 0 0 2.28284 517.5 -22.812)"/><path d="M129.721 129.82l17.15-29.705 17.957 31.103c11.534-6.349 19.42-19.185 19.42-33.987 0-21.108-16.034-38.219-35.813-38.219-19.779 0-35.813 17.111-35.813 38.219.003 13.783 6.845 25.866 17.102 32.589z" transform="matrix(-2.30906 0 0 2.28284 517.5 -22.812)"/><path d="M152.197 115.648c-1.111 0-.6-.137-2.756-.644-2.693-.632-5.922-.109-11.71-.98-1.03-.154-1.246-.704-1.862-1.658-3.826-5.929-1.367-16.225-.942-18.618 1.124-6.32 7.114-8.484 13.507-7.944 3.436.292 7.212 1.36 10.143 5.128 3.866 4.968 4.58 11.135 3.648 16.786l-1.763-.294c.798-4.841.807-10.165-2.554-14.486-2.384-3.063-5.712-5.34-9.603-5.408-5.834-.101-10.08 2.519-10.912 7.198-1.155 6.492-1.337 13.696.22 15.918.26.37.473.402.564.416 5.908.888 10.05 1.86 12.79 2.504 1.743.41 1.755-2.087 2.415-2.106.097-.55 1.67 1.005 1.604-.29-.076-1.478-.946-5.656-.946-5.656 0-2.269 1.58-6.017-.121-8.756-1.021-1.643-1.723-4.024-5.486-5.013-2.61-.686-4.341-.842-7.511 2.328l-1.4 2.09.313-2.09c1.026-2.432 3.417-4.29 7.095-4.177 4 .466 6.363 2.4 8.424 5.365 2.145 3.083 1.226 8.751 1.226 10.93.004 2.194 1.325 3.412 1.398 4.826.154 3.01-1.693 1.922-2.91 2.939-.539.45-.517.666-1.332.666l-1.532 1.023z" transform="matrix(-2.30906 0 0 2.28284 517.5 -22.812)"/><path d="M115.596 128.124c-3.637 5.337-12.981-5.772-6.648-8.248" stroke-width="1.873" transform="matrix(-2.30906 0 0 2.28284 517.5 -22.812)"/><path d="M108.03 119.367c5.66-3.721 10.577-6.575 10.577-6.575l4.642 2.336 1.249 4.973-8.638 9.059c-4.597 1.453-10.558-4.232-7.83-9.798z" stroke-width=".375" transform="matrix(-2.30906 0 0 2.28284 517.5 -22.812)"/><path d="M117.72 119.584c.793-.65 1.68-1.256 2.497-1.914" stroke-width="1.498" stroke-linecap="round" transform="matrix(-2.30906 0 0 2.28284 517.5 -22.812)"/><path transform="matrix(2.29585 -.2438 -.2466 -2.26978 517.5 -22.812)" d="M-128.436-111.523h3.761v3.761h-3.761z"/><path d="M114.602 117.69c.905-.73 2.228.2 3.43 1.692 1.204 1.493 1.831 2.984.927 3.713-.905.729-2.179-2.703-2.179-2.703s-3.083-1.974-2.178-2.7z" transform="matrix(-2.30906 0 0 2.28284 517.5 -22.812)"/><path d="M112.154 118.813c1.777-1.432 3.62-.543 5.052 1.233 1.431 1.777 1.909 3.767.132 5.199-1.776 1.432-2.592-3.216-2.592-3.216s-4.368-1.78-2.592-3.214z" transform="matrix(-2.30906 0 0 2.28284 517.5 -22.812)"/><path d="M108.31 117.82c-4.971 4.12-10.874-9.142-4.103-9.766" stroke-width="1.873" transform="matrix(-2.30906 0 0 2.28284 517.5 -22.812)"/><path d="M103.467 107.31c6.468-2.007 11.983-3.388 11.983-3.388l3.813 3.53-.177 5.125-10.808 6.312c-4.821.135-8.975-6.981-4.811-11.573z" stroke-width=".375" transform="matrix(-2.30906 0 0 2.28284 517.5 -22.812)"/><path d="M112.716 110.202c.943-.405 1.962-.741 2.93-1.148" stroke-width="1.498" stroke-linecap="round" transform="matrix(-2.30906 0 0 2.28284 517.5 -22.812)"/><path transform="matrix(2.13774 -.86292 -.87283 -2.11346 517.5 -22.812)" d="M-144.63-64.614h3.76v3.76h-3.76z"/><path d="M110.246 107.516c1.071-.45 2.085.81 2.828 2.578.742 1.768.933 3.373-.138 3.823-1.071.45-1.345-3.2-1.345-3.2s-2.416-2.753-1.345-3.202z" transform="matrix(-2.30906 0 0 2.28284 517.5 -22.812)"/><path d="M107.582 107.921c2.104-.884 3.629.48 4.512 2.584.884 2.103.792 4.148-1.311 5.032-2.104.884-1.6-3.808-1.6-3.808s-3.704-2.922-1.6-3.806z" transform="matrix(-2.30906 0 0 2.28284 517.5 -22.812)"/><path d="M104.164 105.902c-5.919 2.582-7.918-11.797-1.239-10.52" stroke-width="1.873" transform="matrix(-2.30906 0 0 2.28284 517.5 -22.812)"/><path d="M102.42 94.46c6.772-.138 12.453.062 12.453.062l2.687 4.448-1.59 4.876-12.134 3.072c-4.668-1.214-6.69-9.2-1.416-12.462z" stroke-width=".375" transform="matrix(-2.30906 0 0 2.28284 517.5 -22.812)"/><path d="M110.507 99.8c1.018-.127 2.09-.168 3.133-.291" stroke-width="1.498" stroke-linecap="round" transform="matrix(-2.30906 0 0 2.28284 517.5 -22.812)"/><path transform="scale(2.30906 -2.28284) rotate(38.288 97.666 327.804)" d="M-147.195-15.06h3.76v3.76h-3.76z"/><path d="M108.877 96.535c1.154-.136 1.779 1.356 2.003 3.26.225 1.904-.037 3.5-1.191 3.635-1.154.136-.406-3.447-.406-3.447s-1.56-3.31-.406-3.45z" transform="matrix(-2.30906 0 0 2.28284 517.5 -22.812)"/><path d="M106.205 96.186c2.266-.266 3.354 1.468 3.62 3.733.267 2.266-.388 4.205-2.654 4.471-2.266.268-.483-4.102-.483-4.102s-2.748-3.835-.483-4.105z" transform="matrix(-2.30906 0 0 2.28284 517.5 -22.812)"/><path d="M103.48 93.302c-6.402.84-4.342-13.529 1.723-10.453" stroke-width="1.873" transform="matrix(-2.30906 0 0 2.28284 517.5 -22.812)"/><path d="M104.973 81.824a251.088 251.088 0 0111.948 3.509l1.35 5.017-2.878 4.245-12.51-.409c-4.15-2.457-3.88-10.69 2.09-12.362z" stroke-width=".375" transform="matrix(-2.30906 0 0 2.28284 517.5 -22.812)"/><path d="M111.264 89.197c1.013.16 2.055.417 3.092.588" stroke-width="1.498" stroke-linecap="round" transform="matrix(-2.30906 0 0 2.28284 517.5 -22.812)"/><path transform="matrix(1.34532 -1.85535 -1.87666 -1.33005 517.5 -22.812)" d="M-135.938 33.264h3.76v3.76h-3.76z"/><path d="M110.602 85.606c1.147.189 1.334 1.795 1.022 3.686-.312 1.892-1.005 3.353-2.152 3.164-1.146-.19.565-3.425.565-3.425s-.581-3.615.565-3.427z" transform="matrix(-2.30906 0 0 2.28284 517.5 -22.812)"/><path d="M108.132 84.53c2.251.372 2.816 2.339 2.445 4.59-.372 2.25-1.538 3.933-3.789 3.561-2.251-.37.672-4.075.672-4.075s-1.58-4.446.672-4.075z" transform="matrix(-2.30906 0 0 2.28284 517.5 -22.812)"/><path d="M106.312 81.003c-6.385-.964-.425-14.2 4.55-9.566" stroke-width="1.873" transform="matrix(-2.30906 0 0 2.28284 517.5 -22.812)"/><path d="M110.925 70.388a251.003 251.003 0 0110.51 6.68l-.093 5.196-3.94 3.281-11.908-3.857c-3.308-3.509-.769-11.346 5.431-11.3z" stroke-width=".375" transform="matrix(-2.30906 0 0 2.28284 517.5 -22.812)"/><path d="M114.928 79.214c.93.433 1.86.97 2.81 1.42" stroke-width="1.498" stroke-linecap="round" transform="matrix(-2.30906 0 0 2.28284 517.5 -22.812)"/><path transform="matrix(.77307 -2.1511 -2.1758 -.76429 517.5 -22.812)" d="M-111.739 76.581h3.76v3.76h-3.76z"/><path d="M115.287 75.582c1.049.5.785 2.094-.039 3.826-.823 1.731-1.894 2.943-2.944 2.443-1.049-.498 1.491-3.134 1.491-3.134s.442-3.634 1.492-3.135z" transform="matrix(-2.30906 0 0 2.28284 517.5 -22.812)"/><path d="M113.21 73.865c2.06.98 2.06 3.026 1.079 5.086-.98 2.06-2.567 3.354-4.627 2.374-2.06-.98 1.774-3.73 1.774-3.73s-.286-4.71 1.775-3.73z" transform="matrix(-2.30906 0 0 2.28284 517.5 -22.812)"/><path d="M112.439 69.97c-5.868-2.694 3.524-13.763 7.022-7.931" stroke-width="1.873" transform="matrix(-2.30906 0 0 2.28284 517.5 -22.812)"/><path d="M119.811 61.048a251.006 251.006 0 018.249 9.33l-1.527 4.966-4.696 2.062-10.374-7.003c-2.206-4.288 2.404-11.116 8.348-9.355z" stroke-width=".375" transform="matrix(-2.30906 0 0 2.28284 517.5 -22.812)"/><path d="M121.214 70.638c.774.673 1.52 1.446 2.305 2.143" stroke-width="1.498" stroke-linecap="round" transform="matrix(-2.30906 0 0 2.28284 517.5 -22.812)"/><path transform="matrix(.14038 -2.27862 -2.30479 -.13879 517.5 -22.812)" d="M-76.494 111.502h3.761v3.761h-3.761z"/><path d="M122.564 67.247c.87.77.174 2.23-1.096 3.665-1.272 1.436-2.636 2.304-3.506 1.533-.87-.77 2.3-2.599 2.3-2.599s1.432-3.37 2.302-2.6z" transform="matrix(-2.30906 0 0 2.28284 517.5 -22.812)"/><path d="M121.045 65.022c1.708 1.512 1.14 3.478-.373 5.186-1.512 1.709-3.395 2.512-5.103 1-1.708-1.513 2.738-3.093 2.738-3.093s1.03-4.605 2.738-3.093z" transform="matrix(-2.30906 0 0 2.28284 517.5 -22.812)"/><path d="M121.382 61.066c-4.893-4.214 7.198-12.249 8.944-5.677" stroke-width="1.873" transform="matrix(-2.30906 0 0 2.28284 517.5 -22.812)"/><path d="M130.937 54.534c3.06 6.043 5.342 11.25 5.342 11.25l-2.843 4.349-5.082.681-8.03-9.603c-.932-4.73 5.39-10.015 10.613-6.677z" stroke-width=".375" transform="matrix(-2.30906 0 0 2.28284 517.5 -22.812)"/><path d="M129.629 64.137c.557.862 1.06 1.81 1.622 2.698" stroke-width="1.498" stroke-linecap="round" transform="matrix(-2.30906 0 0 2.28284 517.5 -22.812)"/><path transform="matrix(-.5034 -2.22793 -2.25352 .49768 517.5 -22.812)" d="M-32.954 135.298h3.76v3.76h-3.76z"/><path d="M131.865 61.253c.623.98-.45 2.19-2.068 3.218-1.619 1.028-3.17 1.484-3.793.503-.623-.98 2.93-1.86 2.93-1.86s2.309-2.842 2.931-1.861z" transform="matrix(-2.30906 0 0 2.28284 517.5 -22.812)"/><path d="M131.022 58.694c1.222 1.927.132 3.658-1.795 4.88-1.926 1.224-3.957 1.474-5.18-.452-1.223-1.926 3.488-2.214 3.488-2.214s2.264-4.14 3.487-2.214z" transform="matrix(-2.30906 0 0 2.28284 517.5 -22.812)"/><path d="M132.44 54.986c-3.534-5.403 10.309-9.776 10.167-2.978" stroke-width="1.873" transform="matrix(-2.30906 0 0 2.28284 517.5 -22.812)"/><path d="M143.429 51.356a250.754 250.754 0 012.018 12.29l-3.936 3.391-5.073-.753-5.055-11.45c.414-4.805 7.95-8.132 12.044-3.478z" stroke-width=".375" transform="matrix(-2.30906 0 0 2.28284 517.5 -22.812)"/><path d="M139.515 60.222c.296.982.516 2.033.811 3.04" stroke-width="1.498" stroke-linecap="round" transform="matrix(-2.30906 0 0 2.28284 517.5 -22.812)"/><path transform="matrix(-1.10769 -2.00302 -2.02603 1.09511 517.5 -22.812)" d="M15.468 146.107h3.76v3.76h-3.76z"/><path d="M142.462 58.07c.327 1.114-1.039 1.98-2.879 2.519-1.84.539-3.457.548-3.784-.568-.327-1.115 3.331-.976 3.331-.976s3.008-2.09 3.334-.976z" transform="matrix(-2.30906 0 0 2.28284 517.5 -22.812)"/><path d="M142.361 55.377c.641 2.19-.886 3.552-3.075 4.193-2.19.641-4.211.32-4.853-1.87-.641-2.19 3.964-1.162 3.964-1.162s3.326-3.35 3.967-1.16z" transform="matrix(-2.30906 0 0 2.28284 517.5 -22.812)"/><path d="M144.75 52.207c-1.898-6.171 12.613-6.54 10.594-.046" stroke-width="1.873" transform="matrix(-2.30906 0 0 2.28284 517.5 -22.812)"/><path d="M156.317 51.762c-.625 6.745-1.464 12.368-1.464 12.368l-4.721 2.169-4.666-2.129-1.687-12.402c1.73-4.502 9.892-5.612 12.54-.006z" stroke-width=".375" transform="matrix(-2.30906 0 0 2.28284 517.5 -22.812)"/><path d="M150.1 59.196c.012 1.026-.068 2.097-.064 3.147" stroke-width="1.498" stroke-linecap="round" transform="matrix(-2.30906 0 0 2.28284 517.5 -22.812)"/><path transform="matrix(-1.62558 -1.62127 -1.6399 1.60712 517.5 -22.812)" d="M65.008 143.082h3.761v3.76h-3.761z"/><path d="M153.526 57.945c.005 1.162-1.547 1.615-3.464 1.624-1.917.008-3.473-.431-3.478-1.594-.005-1.161 3.47-.015 3.47-.015s3.469-1.177 3.472-.015z" transform="matrix(-2.30906 0 0 2.28284 517.5 -22.812)"/><path d="M154.174 55.33c.01 2.28-1.834 3.167-4.116 3.176-2.281.011-4.134-.859-4.145-3.14-.01-2.281 4.132-.018 4.132-.018s4.12-2.3 4.13-.018z" transform="matrix(-2.30906 0 0 2.28284 517.5 -22.812)"/><path d="M157.35 52.946c-.116-6.456 13.93-2.792 10.192 2.889" stroke-width="1.873" transform="matrix(-2.30906 0 0 2.28284 517.5 -22.812)"/><path d="M168.587 55.721c-2.469 6.308-4.831 11.478-4.831 11.478l-5.138.777-3.894-3.337 1.814-12.385c2.91-3.848 11.06-2.653 12.053 3.467z" stroke-width=".375" transform="matrix(-2.30906 0 0 2.28284 517.5 -22.812)"/><path d="M160.553 61.143c-.272.989-.645 1.995-.932 3.006" stroke-width="1.498" stroke-linecap="round" transform="matrix(-2.30906 0 0 2.28284 517.5 -22.812)"/><path transform="matrix(-2.01608 -1.1129 -1.12569 1.99319 517.5 -22.812)" d="M111.753 126.461h3.761v3.76h-3.761z"/><path d="M164.194 60.89c-.318 1.117-1.934 1.123-3.779.6s-3.218-1.376-2.901-2.494c.316-1.118 3.34.946 3.34.946s3.655-.17 3.34.947z" transform="matrix(-2.30906 0 0 2.28284 517.5 -22.812)"/><path d="M165.538 58.556c-.622 2.194-2.64 2.535-4.835 1.912-2.195-.622-3.735-1.97-3.113-4.165.622-2.195 3.975 1.126 3.975 1.126s4.595-1.068 3.973 1.127z" transform="matrix(-2.30906 0 0 2.28284 517.5 -22.812)"/><path d="M169.25 57.144c1.677-6.236 14.158 1.176 8.993 5.599" stroke-width="1.873" transform="matrix(-2.30906 0 0 2.28284 517.5 -22.812)"/><path d="M179.28 62.923c-4.118 5.377-7.82 9.691-7.82 9.691l-5.153-.677-2.817-4.285 5.173-11.397c3.858-2.892 11.36.513 10.618 6.668z" stroke-width=".375" transform="matrix(-2.30906 0 0 2.28284 517.5 -22.812)"/><path d="M170.059 65.907c-.536.875-1.173 1.74-1.728 2.631" stroke-width="1.498" stroke-linecap="round" transform="matrix(-2.30906 0 0 2.28284 517.5 -22.812)"/><path transform="matrix(-2.24895 -.5175 -.52345 2.22341 517.5 -22.812)" d="M152.074 97.547h3.761v3.761h-3.761z"/><path d="M173.625 66.672c-.615.986-2.17.545-3.798-.468-1.627-1.014-2.71-2.214-2.097-3.2.614-.987 2.947 1.834 2.947 1.834s3.566.848 2.948 1.834z" transform="matrix(-2.30906 0 0 2.28284 517.5 -22.812)"/><path d="M175.565 64.803c-1.206 1.936-3.239 1.704-5.176.498-1.937-1.205-3.043-2.927-1.838-4.864 1.206-1.937 3.508 2.183 3.508 2.183s4.712.246 3.506 2.183z" transform="matrix(-2.30906 0 0 2.28284 517.5 -22.812)"/><path d="M179.524 64.474c3.338-5.527 13.279 5.05 7.09 7.87" stroke-width="1.873" transform="matrix(-2.30906 0 0 2.28284 517.5 -22.812)"/><path d="M187.558 72.804c-5.447 4.026-10.199 7.146-10.199 7.146l-4.763-2.077-1.521-4.897 8.127-9.52c4.51-1.71 10.776 3.64 8.356 9.348z" stroke-width=".375" transform="matrix(-2.30906 0 0 2.28284 517.5 -22.812)"/><path d="M177.872 73.118c-.757.693-1.609 1.347-2.39 2.05" stroke-width="1.498" stroke-linecap="round" transform="matrix(-2.30906 0 0 2.28284 517.5 -22.812)"/><path transform="matrix(-2.30595 .11847 .11983 2.27976 517.5 -22.812)" d="M182.813 58.592h3.761v3.761h-3.761z"/><path d="M181.09 74.842c-.864.777-2.236-.078-3.52-1.502-1.283-1.425-1.992-2.879-1.128-3.656.862-.778 2.323 2.578 2.323 2.578s3.188 1.802 2.322 2.58z" transform="matrix(-2.30906 0 0 2.28284 517.5 -22.812)"/><path d="M183.471 73.582c-1.694 1.528-3.584.742-5.11-.954-1.528-1.694-2.114-3.656-.42-5.183 1.695-1.527 2.766 3.07 2.766 3.07s4.465 1.54 2.768 3.067z" transform="matrix(-2.30906 0 0 2.28284 517.5 -22.812)"/><path d="M187.363 74.362c4.738-4.387 11.36 8.53 4.634 9.526" stroke-width="1.873" transform="matrix(-2.30906 0 0 2.28284 517.5 -22.812)"/><path d="M192.779 84.59C186.43 86.952 181 88.634 181 88.634l-4.002-3.315-.105-5.127 10.446-6.897c4.809-.392 9.349 6.483 5.442 11.297z" stroke-width=".375" transform="matrix(-2.30906 0 0 2.28284 517.5 -22.812)"/><path d="M183.385 82.211c-.92.456-1.919.849-2.863 1.308" stroke-width="1.498" stroke-linecap="round" transform="matrix(-2.30906 0 0 2.28284 517.5 -22.812)"/><path transform="matrix(-2.18259 .74514 .7537 2.1578 517.5 -22.812)" d="M201.554 12.652h3.761v3.76h-3.761z"/><path d="M186 84.76c-1.045.507-2.127-.695-2.966-2.419-.838-1.724-1.117-3.317-.072-3.825s1.52 3.121 1.52 3.121 2.565 2.613 1.52 3.122z" transform="matrix(-2.30906 0 0 2.28284 517.5 -22.812)"/><path d="M188.636 84.209c-2.051.998-3.649-.281-4.647-2.332-.998-2.052-1.018-4.099 1.033-5.097 2.052-.998 1.808 3.715 1.808 3.715s3.857 2.713 1.805 3.713z" transform="matrix(-2.30906 0 0 2.28284 517.5 -22.812)"/><path d="M192.16 86.036c5.768-2.902 8.555 11.344 1.816 10.437" stroke-width="1.873" transform="matrix(-2.30906 0 0 2.28284 517.5 -22.812)"/><path d="M194.532 97.363c-6.754.51-12.438.622-12.438.622l-2.927-4.293 1.319-4.956 11.946-3.734c4.723.952 7.184 8.817 2.098 12.36z" stroke-width=".375" transform="matrix(-2.30906 0 0 2.28284 517.5 -22.812)"/><path d="M186.164 92.475c-1.01.183-2.078.284-3.113.463" stroke-width="1.498" stroke-linecap="round" transform="matrix(-2.30906 0 0 2.28284 517.5 -22.812)"/><path transform="matrix(-1.88846 1.31362 1.32871 1.86702 517.5 -22.812)" d="M206.842-36.69h3.761v3.761h-3.761z"/><path d="M187.97 95.647c-1.145.199-1.851-1.255-2.18-3.144-.328-1.89-.155-3.497.99-3.696 1.145-.2.595 3.42.595 3.42s1.742 3.225.596 3.423z" transform="matrix(-2.30906 0 0 2.28284 517.5 -22.812)"/><path d="M190.655 95.85c-2.248.39-3.429-1.28-3.82-3.528-.39-2.248.157-4.22 2.404-4.612 2.248-.39.709 4.07.709 4.07s2.955 3.675.707 4.068z" transform="matrix(-2.30906 0 0 2.28284 517.5 -22.812)"/><path d="M193.535 98.58c6.347-1.192 5.08 13.269-1.146 10.531" stroke-width="1.873" transform="matrix(-2.30906 0 0 2.28284 517.5 -22.812)"/><path d="M192.678 110.123c-6.632-1.38-12.124-2.846-12.124-2.846l-1.624-4.936 2.64-4.397 12.514-.28c4.28 2.225 4.464 10.461-1.405 12.462z" stroke-width=".375" transform="matrix(-2.30906 0 0 2.28284 517.5 -22.812)"/><path d="M185.992 103.108c-1.021-.103-2.076-.303-3.12-.417" stroke-width="1.498" stroke-linecap="round" transform="matrix(-2.30906 0 0 2.28284 517.5 -22.812)"/><path transform="matrix(-1.44665 1.77928 1.79971 1.43022 517.5 -22.812)" d="M198.266-85.56h3.761v3.761h-3.761z"/><path d="M186.846 106.655c-1.155-.126-1.43-1.72-1.224-3.625.208-1.906.82-3.403 1.975-3.277 1.154.125-.376 3.45-.376 3.45s.783 3.577-.374 3.454z" transform="matrix(-2.30906 0 0 2.28284 517.5 -22.812)"/><path d="M189.374 107.591c-2.268-.246-2.94-2.18-2.694-4.447.247-2.269 1.32-4.012 3.587-3.766 2.27.247-.446 4.108-.446 4.108s1.817 4.348-.45 4.101z" transform="matrix(-2.30906 0 0 2.28284 517.5 -22.812)"/><path d="M191.385 111.015c6.429.612 1.206 14.156-4.018 9.802" stroke-width="1.873" transform="matrix(-2.30906 0 0 2.28284 517.5 -22.812)"/><path d="M187.363 121.869c-5.99-3.162-10.861-6.092-10.861-6.092l-.193-5.193 3.753-3.493 12.102 3.196c3.498 3.322 1.393 11.289-4.798 11.585z" stroke-width=".375" transform="matrix(-2.30906 0 0 2.28284 517.5 -22.812)"/><path d="M182.88 113.277c-.953-.382-1.911-.866-2.883-1.265" stroke-width="1.498" stroke-linecap="round" transform="matrix(-2.30906 0 0 2.28284 517.5 -22.812)"/><path transform="matrix(-.89177 2.10572 2.1299 .88164 517.5 -22.812)" d="M176.495-130.137h3.761v3.761h-3.761z"/><path d="M182.722 116.921c-1.074-.44-.898-2.048-.172-3.822.728-1.774 1.73-3.043 2.805-2.601 1.075.44-1.316 3.21-1.316 3.21s-.24 3.656-1.315 3.214z" transform="matrix(-2.30906 0 0 2.28284 517.5 -22.812)"/><path d="M184.89 118.52c-2.11-.865-2.22-2.908-1.356-5.02.866-2.11 2.38-3.488 4.49-2.624 2.11.866-1.567 3.823-1.567 3.823s.54 4.686-1.57 3.82z" transform="matrix(-2.30906 0 0 2.28284 517.5 -22.812)"/><path d="M185.872 122.367c6.007 2.368-2.762 13.937-6.575 8.306" stroke-width="1.873" transform="matrix(-2.30906 0 0 2.28284 517.5 -22.812)"/><path d="M179.003 131.682c-4.88-4.697-8.749-8.861-8.749-8.861l1.252-5.044 4.575-2.317 10.744 6.422c2.442 4.161-1.787 11.233-7.817 9.802z" stroke-width=".375" transform="matrix(-2.30906 0 0 2.28284 517.5 -22.812)"/><path d="M177.074 122.184c-.809-.632-1.596-1.362-2.42-2.014" stroke-width="1.498" stroke-linecap="round" transform="matrix(-2.30906 0 0 2.28284 517.5 -22.812)"/><path transform="matrix(-.26715 2.2675 2.29355 .26412 517.5 -22.812)" d="M143.23-166.939h3.76v3.761h-3.76z"/><path d="M175.913 125.644c-.91-.721-.296-2.217.893-3.72 1.191-1.503 2.505-2.445 3.416-1.723.911.72-2.154 2.72-2.154 2.72s-1.247 3.447-2.157 2.724z" transform="matrix(-2.30906 0 0 2.28284 517.5 -22.812)"/><path d="M177.554 127.783c-1.79-1.416-1.33-3.41.086-5.2 1.416-1.788 3.252-2.693 5.04-1.278 1.79 1.416-2.564 3.24-2.564 3.24s-.775 4.652-2.562 3.236z" transform="matrix(-2.30906 0 0 2.28284 517.5 -22.812)"/><path d="M126.82 106.224c.765-.375 3.755-1.741 4.541-2.12" stroke-width="1.498" stroke-linecap="round" transform="matrix(-2.30906 0 0 2.28284 517.5 -22.812)"/><path transform="matrix(-.86485 0 0 .85503 293.919 81.629)" d="M65.517 168.552l3.075-7.183 7.543 2.069-3.077 7.185z"/><path d="M124.815 104.43c.869-.418 1.692.434 2.295 1.683.603 1.25.758 2.424-.111 2.843-.869.418-1.092-2.263-1.092-2.263s-1.96-1.843-1.092-2.262z" transform="matrix(-2.30906 0 0 2.28284 517.5 -22.812)"/><path d="M122.655 104.943c1.706-.821 2.943.068 3.661 1.555.717 1.487.643 3.008-1.062 3.83-1.707.822-1.3-2.692-1.3-2.692s-3.005-1.873-1.299-2.693z" transform="matrix(-2.30906 0 0 2.28284 517.5 -22.812)"/><path d="M125.19 100.127c.837-.157 4.084-.676 4.942-.83" stroke-width="1.498" stroke-linecap="round" transform="matrix(-2.30906 0 0 2.28284 517.5 -22.812)"/><path transform="matrix(-.86485 0 0 .85503 293.919 81.629)" d="M59.8 148.126l4.881-6.102 6.717 4.008-4.883 6.102z"/><path d="M123.737 97.864c.948-.17 1.514.87 1.762 2.235.248 1.366.084 2.538-.866 2.71-.948.17-.448-2.473-.448-2.473s-1.397-2.303-.448-2.472z" transform="matrix(-2.30906 0 0 2.28284 517.5 -22.812)"/><path d="M121.518 97.778c1.863-.336 2.819.85 3.113 2.476.295 1.624-.183 3.07-2.046 3.407-1.864.337-.533-2.941-.533-2.941s-2.398-2.607-.534-2.944z" transform="matrix(-2.30906 0 0 2.28284 517.5 -22.812)"/><path d="M125.247 93.812c.849.072 4.116.44 4.984.519" stroke-width="1.498" stroke-linecap="round" transform="matrix(-2.30906 0 0 2.28284 517.5 -22.812)"/><path transform="matrix(-.86485 0 0 .85503 293.919 81.629)" d="M59.743 126.916l6.333-4.579 5.403 5.656-6.335 4.577z"/><path d="M124.45 91.246c.96.089 1.228 1.242 1.102 2.624-.125 1.382-.597 2.469-1.557 2.38-.96-.088.227-2.502.227-2.502s-.731-2.592.229-2.502z" transform="matrix(-2.30906 0 0 2.28284 517.5 -22.812)"/><path d="M122.335 90.572c1.886.173 2.49 1.572 2.34 3.217-.15 1.644-.997 2.91-2.882 2.738-1.886-.174.271-2.978.271-2.978s-1.615-3.15.271-2.977z" transform="matrix(-2.30906 0 0 2.28284 517.5 -22.812)"/><path d="M126.987 87.744c.798.296 3.85 1.522 4.665 1.831" stroke-width="1.498" stroke-linecap="round" transform="matrix(-2.30906 0 0 2.28284 517.5 -22.812)"/><path transform="matrix(-.86485 0 0 .85503 293.919 81.629)" d="M65.35 106.459l7.326-2.721 3.697 6.892-7.327 2.721z"/><path d="M126.905 85.059c.902.341.851 1.524.362 2.823-.49 1.298-1.234 2.22-2.137 1.878-.902-.342.887-2.35.887-2.35s-.014-2.69.888-2.349z" transform="matrix(-2.30906 0 0 2.28284 517.5 -22.812)"/><path d="M125.046 83.845c1.77.67 1.98 2.18 1.396 3.725-.584 1.544-1.738 2.538-3.508 1.869-1.771-.67 1.056-2.797 1.056-2.797s-.715-3.466 1.056-2.794z" transform="matrix(-2.30906 0 0 2.28284 517.5 -22.812)"/><path d="M130.284 82.362c.69.499 3.303 2.495 4.007 3.01" stroke-width="1.498" stroke-linecap="round" transform="matrix(-2.30906 0 0 2.28284 517.5 -22.812)"/><path transform="matrix(-.86485 0 0 .85503 293.919 81.629)" d="M76.215 88.242l7.786-.667 1.723 7.629-7.787.666z"/><path d="M130.923 79.75c.778.57.413 1.697-.406 2.817s-1.782 1.81-2.56 1.24c-.778-.57 1.482-2.03 1.482-2.03s.706-2.599 1.484-2.029z" transform="matrix(-2.30906 0 0 2.28284 517.5 -22.812)"/><path d="M129.455 78.084c1.527 1.119 1.325 2.63.35 3.962-.974 1.333-2.351 1.983-3.879.865-1.528-1.12 1.764-2.414 1.764-2.414s.237-3.532 1.765-2.413z" transform="matrix(-2.30906 0 0 2.28284 517.5 -22.812)"/><path d="M134.897 78.055c.532.665 2.517 3.286 3.057 3.97" stroke-width="1.498" stroke-linecap="round" transform="matrix(-2.30906 0 0 2.28284 517.5 -22.812)"/><path transform="matrix(-.86485 0 0 .85503 293.919 81.629)" d="M91.548 73.586l7.682 1.435-.376 7.812-7.683-1.437z"/><path d="M136.211 75.707c.598.757-.054 1.746-1.142 2.607-1.089.861-2.2 1.268-2.798.51-.598-.756 1.97-1.558 1.97-1.558s1.371-2.316 1.97-1.559z" transform="matrix(-2.30906 0 0 2.28284 517.5 -22.812)"/><path d="M135.241 73.71c1.174 1.486.576 2.887-.72 3.912-1.294 1.024-2.795 1.283-3.97-.203-1.173-1.486 2.346-1.855 2.346-1.855s1.17-3.34 2.344-1.854z" transform="matrix(-2.30906 0 0 2.28284 517.5 -22.812)"/><path d="M140.496 75.135c.336.783 1.55 3.838 1.887 4.642" stroke-width="1.498" stroke-linecap="round" transform="matrix(-2.30906 0 0 2.28284 517.5 -22.812)"/><path transform="matrix(-.86485 0 0 .85503 293.919 81.629)" d="M110.238 63.555l7.019 3.434-2.447 7.428-7.02-3.436z"/><path d="M142.387 73.223c.374.89-.518 1.668-1.797 2.208-1.278.539-2.458.634-2.833-.255-.373-.889 2.315-.976 2.315-.976s1.94-1.865 2.315-.977z" transform="matrix(-2.30906 0 0 2.28284 517.5 -22.812)"/><path d="M141.983 71.04c.734 1.745-.216 2.936-1.738 3.578-1.52.641-3.036.49-3.771-1.255-.735-1.746 2.754-1.162 2.754-1.162s2.023-2.907 2.757-1.161z" transform="matrix(-2.30906 0 0 2.28284 517.5 -22.812)"/><path d="M146.669 73.815c.114.844.468 4.113.579 4.978" stroke-width="1.498" stroke-linecap="round" transform="matrix(-2.30906 0 0 2.28284 517.5 -22.812)"/><path transform="matrix(-.86485 0 0 .85503 293.919 81.629)" d="M130.927 58.877l5.847 5.184-4.341 6.505-5.848-5.185z"/><path d="M149.002 72.478c.123.956-.945 1.468-2.321 1.647-1.377.179-2.54-.045-2.662-1.002-.123-.956 2.491-.323 2.491-.323s2.371-1.278 2.495-.322z" transform="matrix(-2.30906 0 0 2.28284 517.5 -22.812)"/><path d="M149.197 70.266c.241 1.878-.992 2.772-2.63 2.985-1.637.212-3.058-.338-3.3-2.216-.242-1.879 2.965-.385 2.965-.385s2.723-2.262 2.963-.384z" transform="matrix(-2.30906 0 0 2.28284 517.5 -22.812)"/><path d="M152.968 74.19c-.115.845-.646 4.09-.77 4.953" stroke-width="1.498" stroke-linecap="round" transform="matrix(-2.30906 0 0 2.28284 517.5 -22.812)"/><path transform="matrix(-.86485 0 0 .85503 293.919 81.629)" d="M152.113 59.893l4.252 6.556-5.921 5.11-4.251-6.558z"/><path d="M155.575 73.525c-.136.955-1.303 1.164-2.676.968-1.374-.195-2.435-.72-2.299-1.676.137-.954 2.488.354 2.488.354s2.625-.6 2.49.354z" transform="matrix(-2.30906 0 0 2.28284 517.5 -22.812)"/><path d="M156.354 71.446c-.268 1.874-1.696 2.407-3.33 2.174-1.635-.232-2.857-1.142-2.589-3.016.268-1.875 2.96.42 2.96.42s3.228-1.452 2.958.422z" transform="matrix(-2.30906 0 0 2.28284 517.5 -22.812)"/><path d="M158.942 76.236c-.336.782-1.714 3.767-2.064 4.566" stroke-width="1.498" stroke-linecap="round" transform="matrix(-2.30906 0 0 2.28284 517.5 -22.812)"/><path transform="matrix(-.86485 0 0 .85503 293.919 81.629)" d="M172.26 66.526l2.347 7.453-7.07 3.345-2.346-7.455z"/><path d="M161.632 76.29c-.387.883-1.567.773-2.838.218-1.272-.555-2.154-1.345-1.768-2.229.386-.882 2.303 1.005 2.303 1.005s2.69.122 2.303 1.005z" transform="matrix(-2.30906 0 0 2.28284 517.5 -22.812)"/><path d="M162.935 74.494c-.759 1.734-2.277 1.866-3.79 1.206-1.513-.66-2.448-1.863-1.69-3.598.76-1.735 2.74 1.196 2.74 1.196s3.502-.539 2.742 1.196z" transform="matrix(-2.30906 0 0 2.28284 517.5 -22.812)"/><path d="M164.149 79.8c-.533.664-2.659 3.173-3.209 3.85" stroke-width="1.498" stroke-linecap="round" transform="matrix(-2.30906 0 0 2.28284 517.5 -22.812)"/><path transform="matrix(-.86485 0 0 .85503 293.919 81.629)" d="M189.904 78.297l.274 7.81-7.707 1.335-.271-7.81z"/><path d="M166.73 80.57c-.61.748-1.717.327-2.794-.547-1.078-.875-1.717-1.871-1.108-2.62.607-.748 1.95 1.583 1.95 1.583s2.559.836 1.952 1.584z" transform="matrix(-2.30906 0 0 2.28284 517.5 -22.812)"/><path d="M168.467 79.188c-1.194 1.47-2.692 1.191-3.975.15-1.281-1.04-1.861-2.448-.667-3.917 1.194-1.47 2.321 1.883 2.321 1.883s3.513.415 2.318 1.884z" transform="matrix(-2.30906 0 0 2.28284 517.5 -22.812)"/><path d="M168.22 84.624c-.691.499-3.409 2.349-4.12 2.854" stroke-width="1.498" stroke-linecap="round" transform="matrix(-2.30906 0 0 2.28284 517.5 -22.812)"/><path transform="matrix(-.86485 0 0 .85503 293.919 81.629)" d="M203.767 94.352l-1.822 7.599-7.784-.771 1.825-7.599z"/><path d="M170.497 86.055c-.786.558-1.74-.143-2.546-1.273-.805-1.13-1.155-2.262-.368-2.82.785-.559 1.457 2.046 1.457 2.046s2.244 1.49 1.457 2.049z" transform="matrix(-2.30906 0 0 2.28284 517.5 -22.812)"/><path d="M172.542 85.19c-1.543 1.097-2.912.429-3.87-.916-.958-1.345-1.14-2.857.402-3.954 1.544-1.098 1.734 2.434 1.734 2.434s3.274 1.34 1.73 2.437z" transform="matrix(-2.30906 0 0 2.28284 517.5 -22.812)"/><path d="M170.853 90.362c-.799.296-3.912 1.354-4.732 1.65" stroke-width="1.498" stroke-linecap="round" transform="matrix(-2.30906 0 0 2.28284 517.5 -22.812)"/><path transform="matrix(-.86485 0 0 .85503 293.919 81.629)" d="M212.84 113.523l-3.783 6.838-7.296-2.821 3.787-6.836z"/><path d="M172.666 92.347c-.907.329-1.64-.602-2.114-1.906-.474-1.304-.51-2.488.398-2.816.906-.329.858 2.36.858 2.36s1.764 2.038.858 2.364z" transform="matrix(-2.30906 0 0 2.28284 517.5 -22.812)"/><path d="M174.868 92.059c-1.78.645-2.921-.364-3.485-1.916-.565-1.552-.336-3.058 1.443-3.703 1.78-.646 1.021 2.809 1.021 2.809s2.802 2.168 1.023 2.813z" transform="matrix(-2.30906 0 0 2.28284 517.5 -22.812)"/><path d="M171.86 96.595c-.849.072-4.13.26-5 .327" stroke-width="1.498" stroke-linecap="round" transform="matrix(-2.30906 0 0 2.28284 517.5 -22.812)"/><path transform="matrix(-.86485 0 0 .85503 293.919 81.629)" d="M216.467 134.422l-5.472 5.579-6.278-4.666 5.474-5.577z"/><path d="M173.078 98.992c-.961.074-1.42-1.019-1.528-2.402-.11-1.383.173-2.534 1.135-2.608.96-.075.196 2.505.196 2.505s1.154 2.427.195 2.502z" transform="matrix(-2.30906 0 0 2.28284 517.5 -22.812)"/><path d="M175.276 99.299c-1.887.147-2.718-1.131-2.847-2.777-.13-1.646.492-3.037 2.38-3.184 1.888-.147.234 2.98.234 2.98s2.124 2.831.236 2.978z" transform="matrix(-2.30906 0 0 2.28284 517.5 -22.812)"/><path d="M171.164 102.868c-.837-.157-4.05-.852-4.907-1.02" stroke-width="1.498" stroke-linecap="round" transform="matrix(-2.30906 0 0 2.28284 517.5 -22.812)"/><path transform="matrix(-.86485 0 0 .85503 293.919 81.629)" d="M214.383 155.53l-6.763 3.917-4.805-6.174 6.765-3.912z"/><path d="M171.7 105.505c-.946-.185-1.096-1.36-.832-2.722.264-1.363.843-2.396 1.79-2.21.945.184-.48 2.466-.48 2.466s.465 2.648-.479 2.464z" transform="matrix(-2.30906 0 0 2.28284 517.5 -22.812)"/><path d="M173.737 106.39c-1.858-.363-2.318-1.816-2.002-3.437.314-1.62 1.285-2.795 3.143-2.433 1.859.363-.57 2.935-.57 2.935s1.289 3.3-.57 2.936z" transform="matrix(-2.30906 0 0 2.28284 517.5 -22.812)"/><path d="M168.823 108.73c-.765-.375-3.676-1.903-4.456-2.292" stroke-width="1.498" stroke-linecap="round" transform="matrix(-2.30906 0 0 2.28284 517.5 -22.812)"/><path transform="matrix(-.86485 0 0 .85503 293.919 81.629)" d="M206.74 175.316l-7.563 1.97-2.983-7.233 7.564-1.965z"/><path d="M168.632 111.412c-.862-.431-.693-1.603-.075-2.846.619-1.242 1.452-2.084 2.316-1.652.862.43-1.12 2.249-1.12 2.249s-.259 2.682-1.12 2.251z" transform="matrix(-2.30906 0 0 2.28284 517.5 -22.812)"/><path d="M170.359 112.809c-1.694-.846-1.75-2.368-1.013-3.846.736-1.478 1.985-2.35 3.679-1.506 1.695.846-1.333 2.676-1.333 2.676s.36 3.52-1.333 2.674z" transform="matrix(-2.30906 0 0 2.28284 517.5 -22.812)"/><path d="M167.205 106.142c-.946-.249-2.284-.142-3.33-.142-1.738 0-3.464.06-5.14-.616-.248-.1-.481-.317-.663-.217-.044-.095-.348-.185-.421-.266-.287-.317-.438-.46-.808-.68-.363-.216-2.36-.804-2.474-.753-.284-.095-2.453-.925-2.63-1.045-1.348-.91-3.029-2.73-3.116-4.475-.03-.588.161-1.396-.296-1.408-.458-.012-1.564.77-1.573 1.335-.138.149-.219.358-.191.634.147 1.471.898 3.045 2.01 4.214-.35.328-.506.907-.113 1.38.91 1.092 1.523 2.379 2.56 3.37 1.04.994 2.59 1.5 3.909 1.99a.91.91 0 00.294.056c-2.203 2.138-6.263-3.289-7.938-4.577-.478-.368-1.246.023-1.375.559-.452 1.881.553 3.223 1.889 4.45 1.678 1.541 3.246 2.023 5.506 2.042a.95.95 0 00.4-.08c1.187.202 2.336-.207 3.347-1.675.487-.002.974 0 1.461.024.697.033 1.325.349 1.996.45-.201.644-.18 1.292-.123 1.948-.372.407-1.369.645-1.727.803-.896.395-1.637 1.071-2.403 1.693-.144-.242-.398-.416-.766-.417-3.997-.003-7.66-.57-10.79-3.27-1.442-1.243-2.574-3.113-3.166-5.096a.97.97 0 00.002-.434c-.196-.906.177-1.834-.013-2.756.384-.03.544-.288.638-.679a7.83 7.83 0 00.22-1.747.944.944 0 00-.936-.936.946.946 0 00-.936.936 6.097 6.097 0 01-.017.397c-.297.397-.313-.15-.406.492-.026.174-.271.537-.288.712-.155-.05-.836-.131-1.037-.07-.956.293-1.865.289-2.76.791a7.75 7.75 0 00-2.075 1.66c-1.147 1.313-1.76 3.145-2.124 4.82a.964.964 0 000 .43c-.075.277-.022.588.241.855 2.486 2.529 4.525 5.669 7.202 7.982.036.03.075.055.111.083.021.451.335.694.917.694.225 0 1.163.042 1.304-.064.37.15-.043.403.255.678-.088.177.082.334.156.582.402 1.35.895 2.76 1.095 4.17.069.389.046.538.156.82.168.43-.026.881.206 1.285a.91.91 0 00.393.363c.195.47.967 1.032.984 1.562.274-1.396.123-.571.356-1.78.134-.6.225-1.093.424-1.763.092-.313.231-.924.397-1.493.234-.426.58-.847.59-.853.766-.956 1.508 2.004 1.68 2.403.598 1.389 1.58 2.614 2.563 3.748.167.193.357.281.547.3a.88.88 0 00.989.378l.25-.062c.385-.097.71-.498.687-.903-.09-1.567-.323-3.111-.187-4.682.03-.257.053-.514.07-.773.027-.152.302-1.062.33-1.214.575.022.97.482 1.546.52.257.018.672.049.89.124.717.098 1.073.205 1.784.31.505.075 1.12.063 1.267-.474.018-.062-.09-.309-.088-.377.027-.182-.018-.374-.121-.586-.77-1.577-1.414-2.674-2.239-4.24.64-.61 1.58-1.342 2.216-1.82.604-.452 1.211-.697 1.845-1.091.469-.291 1.008-.47 1.381-.732.3-.161.474-.534.44-.883 0-.007.1-1.33.114-1.37.288-.054.453-.105.74-.162.05-.01.659-.028.704-.047.553.295.6.89.717 1.135.405.847.893 1.675 1.655 2.094 1.846 1.017 2.529-2.01 2.501-3.356-.06-2.004-.363-4.379-1.682-5.191zm-22.173 13.206c-.542-.185-1.048-.383-1.574-.483a.942.942 0 00-.23-.605c-1.204-1.432-1.67-3.166-2.073-4.952-.1-.442-.2-.879-.304-1.315.229.333.484.65.759.952a.767.767 0 00-.168.546c.332 3.446 3.357 5.467 6.578 5.813l.096.375c-1.045.012-2.098.004-3.086-.333zM156.714 143.93c-.09-.588-.137-1.226-.405-1.743a1.426 1.426 0 00-.346-.422.629.629 0 01-.32-.064l-.02-.011-.034-.008c-.035-.01-.07-.02-.105-.028-.071-.017-.144-.032-.214-.051a1.374 1.374 0 01-.467-.206.82.82 0 01-.169-.169 1.298 1.298 0 00-.226.008c-.406-.302-1.04-.327-1.386.228-.457.735-1.053 1.403-1.652 2.045-.147.648-.699 1.166-1.028 1.727a6.466 6.466 0 00-.342.676.605.605 0 01-.058.315 2.702 2.702 0 00-.273 1.133c.495-.102 1.007-.307 1.313-.726a.707.707 0 01.368-.269c.138-.172.272-.35.358-.536.102-.22.17-.445.315-.644a.602.602 0 01.623-.242c.039-.048.076-.097.116-.144a.976.976 0 00.481.155c.032.088.055.18.075.272a.553.553 0 01.32.502c.018.565-.016 1.13-.092 1.69-.002.088-.002.177-.005.266a.286.286 0 00.04.016.86.86 0 00.199.028l.004-.02c.066-.179.15-.344.24-.507 0-.006.003-.014.004-.02a.64.64 0 01.312-.516.939.939 0 00.148-.416.563.563 0 01.362-.514l.01-.043v-.004l.007-.008a.618.618 0 01.182-.268c.024-.05.05-.101.065-.156.013.01.023.024.037.034l-.002.056c.282-.148.606-.036.777.223.018.027.026.057.04.086a.568.568 0 01.114.346c.003.185-.023.367-.05.549.015.003.03.006.046.006a.872.872 0 00.323-.07c.033-.148.061-.297.1-.444a.57.57 0 01.136-.253c.044-.49.04-.982-.024-1.47a.418.418 0 01.094-.38zM143.196 147.735a.64.64 0 01.17-.507l.014-.115c.004-.117.003-.236.003-.356 0-.055.007-.104.018-.151.004-.47-.029-.943-.036-1.422-.015-.833.157-1.69.029-2.516a1.111 1.111 0 01-.012-.234 1.068 1.068 0 00-.199-.119c-.01-.027-.02-.056-.033-.083-.047-.092-.043-.39-.064-.572-.04-.359-.116-.705-.333-1.002a1.379 1.379 0 00-1.07-.593c-.085-.007-.102-.005-.103-.003a.97.97 0 00-.084-.022.861.861 0 00-.496-.39.677.677 0 01-.494.273c.097-.01-.11.036-.103.034-.043.014-.085.03-.128.046-.084.033-.168.07-.254.1a1.736 1.736 0 01-.46.097c-.705.314-1.283.865-1.705 1.513.02.119 0 .25-.087.384-.066.102-.17.291-.293.54.032.1.031.215-.017.346-.335.898-.648 1.636-.764 2.606-.099.822-.682 1.542-.01 2.273a.736.736 0 00.329-.224c.054-.073.106-.152.152-.233.297-.636.16-1.71.328-2.236.205-.645.293-1.252.895-1.645.197-.13.39-.12.543-.034a.726.726 0 00.151-.161c.063.08.141.145.225.203.242.047.447.23.43.554-.028.591-.03 1.18-.022 1.771.005.307.004.817.202 1.078.068.09.27.152.385.202a.634.634 0 01.089-.085c.207-.162.307-.47.358-.8 0-.008.002-.018.004-.026.048-.327.052-.67.067-.905.036-.554-.064-1.1-.026-1.646a.584.584 0 01.438-.537l-.004-.033a1 1 0 00.215-.13c.018.047.04.094.062.14.26.032.489.217.464.56-.002.024 0 .05-.002.075.065.266.152.53.18.834.1.073.176.176.199.303.047.268.143.513.171.787.026.246.039.491.028.739a.644.644 0 01-.031.165c.195.254.255.606.176.921.121.07.22.163.295.273h.108c.036 0 .071.006.106.011a.11.11 0 01-.007-.041z" transform="matrix(-2.30906 0 0 2.28284 517.5 -22.812)"/><path d="M150.406 146.038a.915.915 0 00-.437.108c-.01.027-.016.054-.03.08a2.71 2.71 0 00-.272 1.135c.495-.102 1.007-.308 1.313-.727a.775.775 0 01.19-.182c-.146-.24-.397-.413-.764-.413zM153.56 146.574c-.002.394-.01.789-.02 1.183v.02l.003.002c.074.016.144.038.212.066.126-.227.26-.487.274-.663a.677.677 0 01.192-.428.863.863 0 00-.664-.277h-.006c0 .03.007.064.007.098zM156.223 145.683c-.082 0-.157.01-.227.026.048.08.08.177.08.293.007.428-.13.84-.124 1.269a.594.594 0 01-.041.227c.083.028.17.05.271.053.097-.505.185-1.01.314-1.509a.565.565 0 01.149-.264.98.98 0 00-.424-.094zM143.196 147.735a.64.64 0 01.176-.514c.012-.153.01-.307.01-.464 0-.055.007-.105.02-.153a.876.876 0 00-.61-.222.969.969 0 00-.316.055c-.015.491-.056 1.17.5 1.369a.604.604 0 01.19.11l.036-.076a.64.64 0 01-.011-.108zM140.35 147.3c.088-.147.15-.3.22-.462.047-.104.096-.202.157-.3l.032-.054a.545.545 0 01.068-.428c-.143-.247-.398-.427-.771-.427-.192 0-.35.05-.481.13.07.09.112.207.11.354-.003.219-.048.482-.013.713a.48.48 0 01.28.159c.106.127.238.195.373.29a.179.179 0 00.023.03zM136.282 146.694c-.043.316-.175 1.13.29 1.225.354.073.68-.674.8-.912.006-.013.015-.023.022-.036a.85.85 0 00-.83-.549.993.993 0 00-.28.043c.007.079.007.154-.004.232z" transform="matrix(-2.30906 0 0 2.28284 517.5 -22.812)"/><path d="M160.17 109.921c-.943.571-3.845-.992-3.845.867 0 .199-.249.293-.388.414a.91.91 0 00-.784.04c-.827.42-1.956.032-2.83-.056-.913-.092-1.8-.07-2.695-.185a6.359 6.359 0 01-2.73-2.426c-.525-.851-.655-1.865-.674-2.843-.023-1.184.265-.916 1.016-.316.97.773 1.656 1.825 2.671 2.556 1.331.959 2.645 1.85 4.2 2.37 1.15.382 5.31-3.119.687-1.995-.97.235-1.875-.71-2.74-1.209a.956.956 0 00-.339-.419c-4.05-2.869-3.05-8.533-3.075-12.985.084-.022.065-.149.133-.19-.006-.457.032-.921.038-1.38.001-.071.01-1.274.023-1.337-.14-.1-.317.637-.535.637-.039 0-.16-.2-.196-.164-.16-.158-.282.255-.522.286-1.088.144-1.842.47-2.388 1.463-.348.631-.413 1.39-.71 2.044-.405.89-1.297 1.409-2.113 1.862-.022.012-.038.027-.058.04-.233-.112-.55-.149-.803.103-.68.681-1.234 1.342-1.191 2.424.02.502.284.917.496 1.37.538 1.151.538 2.173.54 3.424.002 3.24.58 5.987 3.295 8.038 2.374 1.793 4.898 2.24 7.767 2.589 2.481.301 5.591.918 7.427-1.074 4.262-4.606 3.333-5.756.333-3.943z" stroke-width=".994" transform="matrix(-2.30906 0 0 2.28284 517.5 -22.812)"/><path d="M136.994 104.46c-2.21 1.296-3.376 3.637-2.363 6.358.25.673 2.126 2.815.933.136-.86-2.31-.037-4.387 1.881-5.7 1.596.581.558-1.382-.45-.79z" stroke-width=".594" transform="matrix(-2.30906 0 0 2.28284 517.5 -22.812)"/><path d="M139.297 113.108c-.528-1.7-2.455-5.917-.288-6.345.503-.1.317-1.259-.794-.795-2.548 1.065-1.38 3.434.171 7.267.787.554 1.124.566.91-.127z" stroke-width=".594" transform="matrix(-2.30906 0 0 2.28284 517.5 -22.812)"/><path d="M147.369 118.352c-1.606.124-2.957-.7-4.077-1.88-1.06-1.117-1.18-2.764-1.554-4.181-.161-.614-.365-1.556-.83-1.394-.42.147-1.27 1.486-.975 1.892 1.207 1.664.832 3.74 2.302 5.289 1.342 1.414 3.253 1.97 5.134 2.146 1.198.113 3.258-2.123-.004-1.872z" stroke-width=".994" transform="matrix(-2.30906 0 0 2.28284 517.5 -22.812)"/><path d="M149.998 84.83c-.736-.736-2.779.962-3.472.27-1.98-1.98-.932-.393-1.324 0-.02.02-.037.046-.055.068a.983.983 0 01.205.594v.43a.965.965 0 01-.053.302c.077.057.056.21.133.266-.067.127-.7 4.542-.798 4.626-.305.973-.52 2.018-1.14 2.847-.106.14-.234.255-.374.34-.092.193-.208.35-.37.468-.366.762-.86 1.407-1.423 2.05-.013.016-.03.027-.046.041a.986.986 0 00.276.048c1.042.023 1.805.02 2.636-.659.892-.729.964-2.157 1.25-3.17.272-.963 2.599-.577 3.143-1.674.48-.966.473-1.976.695-3.01a.934.934 0 00-.058-.595c.367-.397 1.27-2.742.772-3.24z" transform="matrix(-2.30906 0 0 2.28284 517.5 -22.812)"/><path d="M149.372 71.158l-1.573 1.2-1.725-1.303-1.854 2.737 1.655 1.847.44 2.908 1.889.276 1.966-3.97 1.932-1.27zm-1.648 2.702c.555.63.349 2.127-.244 2.77-.644-1.07-.289-1.88.244-2.77z" stroke-width=".375" transform="matrix(-2.30906 0 0 2.28284 517.5 -22.812)"/><path d="M150.624 81.441a.993.993 0 01-.301-.706v-.072c0-.078.011-.154.03-.227-.255-.65-.736-1.1-1.22-1.584-1.205-1.204-3.224-1.029-4.229-.015-.05.004-.132.205-.18.218a.942.942 0 00-.56.43c-.139.238-.132.46-.094.721v.003c-.007.02-.016.038-.023.056-.042.11-.04.234-.052.351a.724.724 0 00.073.385c-.088.149-.21.263-.361.377a.975.975 0 01-.397.167.577.577 0 01-.302.21c-.176.055-.348.12-.52.185-.011.056-.204.026-.205.085-.515.086-.835.329-1.278.612-.406.26-.03.908.378.647.015-.01.031-.017.047-.026.053.04.115.07.195.077.464.039.9-.049 1.323-.199.02.016.042.027.064.04.03-.03.062-.059.097-.084.084-.063.185-.097.283-.131a.501.501 0 01.363.018.57.57 0 01.113-.013c.13-.002.257.005.384.024.08-.012.157-.01.227.039.222-.056.467.406.375.181.204.501.06.566.412 1.034.767 1.02 1.586 1.78 3.043 2.271.58.197 1.246.096 1.537-.403.674-1.153.847-2.982.775-4.67zM144.41 128.176a8.166 8.166 0 00-.463-.648.969.969 0 00-.76-.388c.008.057.016.114.016.177a14.318 14.318 0 01-.159 1.92.666.666 0 01-.087.244c-.002.042-.001.083-.01.126-.537 3.216-.64 6.35-1.642 9.475a1.059 1.059 0 01-.126.258c0 .05-.004.1-.004.148.017 1.207 1.89 1.208 1.873 0-.012-.83.194-1.558.46-2.339.258-.761.162-1.612.3-2.396.34-1.92.795-3.827.978-5.794.038-.393-.13-.652-.374-.786zM154.38 140.731c-.27-2.735-.78-5.435-.835-8.187a.949.949 0 01.133-.518l-.055-.333a.778.778 0 01-.111-.267c-.16-.843-.048-1.675-.08-2.516-.02.02-.04.034-.06.056-.296.325-.578.644-.965.859-.15.082-.511.103-.612.035a.84.84 0 00-.55-.161.95.95 0 01.265.668c-.006.291.013.373.082.659.055.23.112.46.156.692l.004.036h.011c0 .058.001.116.012.177l.11.682c.08.096.147.21.192.35.421 1.319.507 2.732.753 4.092.103.566.111 1.157.127 1.743.244.644.31 1.345.224 2.042a1.084 1.084 0 01-.08.285c.388.335 1.043.313 1.37-.064a.95.95 0 01-.098-.326z" transform="matrix(-2.30906 0 0 2.28284 517.5 -22.812)"/><path d="M146.987 79.844c-.038.016-.056.027 0 0z" transform="matrix(-2.30906 0 0 2.28284 517.5 -22.812)"/><path d="M144.916 83.023l-.05-.085c-.118-.495-.462-.909-.864-1.222a.832.832 0 00-.146-.09.503.503 0 00-.329-.091.568.568 0 00-.159.018.57.57 0 00-.244.15l-.08.006a.558.558 0 00-.474.321c-.402.16-.814.29-1.247.275-.725-.023-.723 1.1 0 1.124.748.024 1.413-.272 2.09-.542.04.062.083.123.126.183a.595.595 0 01.33-.105c.189-.003.376-.002.56.055.28.088.463.359.423.648a.593.593 0 00.06-.646z" stroke-width=".5" transform="matrix(-2.30906 0 0 2.28284 517.5 -22.812)"/><path d="M139.96 119.727c-1.373 2.122-10.377 11.803-12.125 12.615-2.372 1.436-11.361.666-8.552-9.739 4.432-7.24 11.588-11.11 12.462-11.985 1.592 1.592 8.215 9.11 8.215 9.11z" stroke-width=".375" transform="matrix(-2.30906 0 0 2.28284 517.5 -22.812)"/><path d="M125.324 129.521c-.873 0-2.021-.281-2.626-1.07-.666-.87-.762-2.46-.278-4.506 2.622-4.09 8.718-9.416 10.968-10.943a810.447 810.447 0 014.612 5.003c-2.709 2.936-10.364 10.493-11.667 11.317l-.085.04-.096.057c-.104.038-.391.102-.826.102z" stroke-width=".375" transform="matrix(-2.30906 0 0 2.28284 517.5 -22.812)"/><path d="M125.324 128.772c-.662 0-1.592-.203-2.03-.777-.504-.657-.566-2.021-.173-3.753 2.378-3.644 7.595-8.354 10.166-10.25 1.203 1.296 2.586 2.8 3.693 4.009-3.186 3.384-9.808 9.855-11.01 10.664l-.074.035-.041.024a2.92 2.92 0 01-.53.045z" stroke-width=".375" transform="matrix(-2.30906 0 0 2.28284 517.5 -22.812)"/><path d="M125.324 128.023c-.53 0-1.193-.166-1.436-.483-.26-.339-.426-1.324-.066-3.002 2.11-3.17 6.576-7.368 9.376-9.54.914.987 1.894 2.052 2.758 2.994-3.444 3.61-9.2 9.185-10.351 10.014-.066.007-.16.015-.281.015z" stroke-width=".375" transform="matrix(-2.30906 0 0 2.28284 517.5 -22.812)"/><path d="M125.324 127.274c-.417 0-.777-.133-.853-.203-.068-.114-.234-.808.054-2.236 1.996-2.94 6.014-6.732 8.594-8.818.605.654 1.225 1.328 1.81 1.964-3.287 3.408-8.253 8.215-9.6 9.293h-.003z" stroke-width=".375" transform="matrix(-2.30906 0 0 2.28284 517.5 -22.812)"/><path d="M125.117 126.48c-.016-.259-.006-.696.114-1.347 1.723-2.484 5.108-5.823 7.818-8.086l.85.923c-3.034 3.12-7.256 7.21-8.782 8.513z" stroke-width=".375" transform="matrix(-2.30906 0 0 2.28284 517.5 -22.812)"/><path d="M140.706 82.954c0 1.064 3.315-.515 4.06.23.6.6 1.511 7.731-1.915 12.017-3.427 4.286-2.414 4.048-2.414 5.298s-.625 1.25-.625 1.876c-1.459 0-7.054-.268-8.067 8.245 8.156 9.049 7.977 8.87 8.215 9.108.864-.387.893-.149 1.548-.149.506.953 1.786 4.614 1.786 7.234s-1.131 8.928-1.905 12.5c-1.13 1.658-3.512-.655-5.15 7.948.194.67.373.81.864 0 .505-.835-.19-4.25 2.607-3.681.08 2.104-.138 2.454.155 3.248.518.744.587.075.78-.341.387-1.935-.307-3.353.705-3.353.621-.242 1.29 1.954 1.29 4.097.082.692.773 1.071.773-.893 0-1.965.09-5.09-.773-5.953.595-1.548 2.37-12.919 2.703-13.871.333-.953.511-3.631 1.702-3.631 1.22 1.22 1.489 4.94 4.286 6.667.536 1.726 1.935 8.007 1.935 11.638-2.292 3.066-3.483 4.614-3.483 6.221 1.787-.774 1.726-1.786 2.5-2.56 1.965 0 .994 1.148 1.251 2.913.416.298.597-1.524 1.58-2.506.437.16.393-.237.92 2.451.883-1.474.893-4.822 0-5.715-.893-.893-.893-.119-1.667-.893 0-1.25-1.846-15.478-.863-18.782 2.024.774.693.275 2.65.625 1.581.283 2.172.685 2.857 0 0-1.667-2.204-4.464-2.5-5.358.922-.923 3.928-3.155 5.178-3.512 1.25-.357.447-1.875.953-2.381 2.053-.446 1.19-.478 2.62 2.024.375.657-.03-.149 1.309 1.19 1.41 0 1.607-.476 2.024-1.726.64-1.92.083-7.142-1.846-7.142-9.168 0-8.698-.899-9.882-1.846-1.184-.947-6.935-.487-8.058-5.813-.187-.889-.374-9.287.795-10.975 1.37-2.5 1.294-6.531.204-7.918-.991-1.26-2.784-2.494-5.264-.357-.958.825-.071 1.726-.667 2.322-.973.215-3.164 1.102-3.164 1.511z" stroke-width=".375" transform="matrix(-2.30906 0 0 2.28284 517.5 -22.812)"/><path d="M161.987 111.681c1.98 1.306 11.006 9.863 11.763 11.524 1.34 2.255.622 10.797-9.08 8.128-6.752-4.213-10.361-11.013-11.176-11.843 1.48-1.514 8.49-7.81 8.49-7.81z" stroke-width=".375" transform="matrix(-2.30906 0 0 2.28284 517.5 -22.812)"/><path d="M172.602 126.349c.022.873-.23 2.028-1.005 2.651-.853.689-2.44.824-4.497.39-4.154-2.52-9.63-8.48-11.212-10.692 1.41-1.382 3.27-3.179 4.887-4.735 3.002 2.635 10.747 10.1 11.603 11.382l.042.084.06.095c.04.1.112.39.123.824z" stroke-width=".375" transform="matrix(-2.30906 0 0 2.28284 517.5 -22.812)"/><path d="M171.853 126.367c.016.663-.164 1.597-.726 2.05-.645.52-2.006.616-3.748.266-3.701-2.287-8.54-7.385-10.498-9.908a873.379 873.379 0 013.915-3.792c3.463 3.101 10.095 9.56 10.934 10.742l.036.073.026.04c.022.079.056.258.064.524z" stroke-width=".375" transform="matrix(-2.30906 0 0 2.28284 517.5 -22.812)"/><path d="M171.104 126.386c.013.53-.136 1.197-.447 1.448-.332.267-1.314.46-2.999.14-3.222-2.03-7.53-6.39-9.77-9.136.963-.938 2.004-1.943 2.924-2.831 3.695 3.353 9.41 8.97 10.269 10.1.007.055.015.15.019.273z" stroke-width=".375" transform="matrix(-2.30906 0 0 2.28284 517.5 -22.812)"/><path d="M170.355 126.405c.01.416-.113.78-.181.857-.113.072-.802.254-2.237.001-2.988-1.921-6.88-5.844-9.03-8.372.64-.62 1.298-1.257 1.92-1.857 3.488 3.201 8.417 8.045 9.528 9.365v.007z" stroke-width=".375" transform="matrix(-2.30906 0 0 2.28284 517.5 -22.812)"/><path d="M169.564 126.63c-.258.022-.695.023-1.349-.081-2.525-1.661-5.948-4.962-8.277-7.615l.901-.872c3.187 2.959 7.382 7.079 8.723 8.57z" stroke-width=".375" transform="matrix(-2.30906 0 0 2.28284 517.5 -22.812)"/></g><ellipse cx="180.019" cy="160.269" rx="2.108" ry="1.863" fill="#da2d1c" fill-rule="evenodd"/></svg>