<?xml version="1.0" standalone="no"?>
<!DOCTYPE svg PUBLIC "-//W3C//DTD SVG 20010904//EN"
 "http://www.w3.org/TR/2001/REC-SVG-20010904/DTD/svg10.dtd">
<svg version="1.0" xmlns="http://www.w3.org/2000/svg"
 width="1024.000000pt" height="1024.000000pt" viewBox="0 0 1024.000000 1024.000000"
 preserveAspectRatio="xMidYMid meet">

<g transform="translate(0.000000,1024.000000) scale(0.100000,-0.100000)"
fill="currentcolor" stroke="none">
<path d="M4900 9490 c-20 -6 -21 -8 -5 -8 11 0 34 4 50 8 27 7 27 8 5 8 -14 0
-36 -4 -50 -8z"/>
<path d="M4994 9467 c-21 -4 -56 -10 -76 -13 -21 -4 -38 -11 -38 -16 0 -5 -5
-6 -10 -3 -6 4 -9 1 -8 -6 2 -7 -20 -21 -51 -32 -29 -10 -87 -41 -129 -68 -41
-27 -78 -49 -83 -49 -19 0 50 61 91 80 43 20 44 21 10 14 -19 -3 -51 -14 -70
-24 -19 -9 -53 -23 -75 -30 -57 -18 -122 -52 -108 -57 10 -4 81 24 118 45 6 3
5 -1 -2 -9 -7 -9 -35 -26 -63 -39 -27 -13 -50 -27 -50 -32 0 -11 30 -3 83 22
20 10 37 14 37 9 0 -5 -29 -22 -64 -38 -35 -16 -73 -42 -85 -57 -25 -32 -28
-58 -2 -28 9 12 36 31 59 43 22 11 43 25 47 31 8 12 25 13 25 1 0 -5 -22 -23
-50 -40 -27 -17 -56 -41 -65 -55 -9 -14 -22 -23 -29 -20 -17 7 -198 -154 -190
-168 4 -6 2 -8 -3 -5 -6 4 -44 -28 -85 -71 -40 -42 -70 -73 -66 -68 13 16 9
29 -4 18 -7 -6 -17 -10 -21 -10 -5 0 -12 -4 -15 -8 -4 -4 -1 -4 6 0 26 15 10
-17 -29 -57 -23 -23 -48 -55 -55 -72 -7 -16 -13 -24 -14 -17 0 18 26 66 44 81
9 8 16 24 16 37 0 13 5 24 10 24 6 0 10 6 10 13 0 6 12 20 25 30 24 17 24 17
18 0 -6 -16 -5 -16 10 -4 9 7 17 10 17 5 0 -4 11 3 25 16 34 32 32 50 -2 19
-16 -14 -11 -4 14 26 22 28 50 59 62 69 35 32 24 5 -16 -39 -21 -22 -12 -15
20 15 53 50 77 79 42 50 -9 -7 -18 -10 -22 -6 -3 3 -15 -1 -25 -11 -10 -9 -21
-13 -25 -9 -4 3 13 27 38 52 24 25 36 42 27 38 -10 -3 -18 -10 -18 -15 0 -5
-6 -9 -13 -9 -7 0 -26 -14 -43 -32 -16 -17 -22 -27 -14 -23 8 5 5 -3 -7 -17
-32 -34 -29 -47 4 -17 24 21 23 19 -6 -18 -36 -47 -62 -69 -37 -32 8 14 12 30
7 37 -5 9 -25 -9 -64 -58 -31 -40 -57 -69 -57 -65 0 16 51 83 152 199 16 17
28 38 27 46 0 13 -1 13 -6 0 -7 -16 -55 -57 -61 -52 -15 14 -135 -146 -137
-183 -1 -11 -6 -31 -12 -45 -6 -14 -18 -43 -27 -65 l-16 -40 6 40 c14 84 45
151 113 240 25 33 45 64 43 68 -1 5 1 6 6 3 4 -2 18 11 31 30 13 19 26 32 29
29 3 -3 -3 -14 -13 -25 -10 -11 -15 -20 -12 -20 10 0 91 90 99 109 4 9 7 12 7
7 1 -14 51 36 51 51 0 7 6 13 14 13 18 0 30 16 18 24 -17 10 -223 -180 -269
-248 -15 -22 -36 -50 -47 -61 -18 -20 -18 -20 -6 5 17 33 52 83 65 93 6 4 5
10 -4 16 -8 5 -9 11 -3 15 6 3 12 1 14 -4 2 -6 11 -1 20 10 10 11 14 20 9 20
-20 0 -3 33 40 76 52 54 158 138 165 131 3 -2 -26 -27 -63 -55 -82 -61 -148
-128 -135 -136 5 -3 26 11 46 32 51 52 76 74 114 99 18 13 41 31 52 40 30 29
179 103 205 103 13 0 25 4 27 8 2 7 179 49 225 54 7 1 10 5 7 10 -3 4 9 8 27
8 51 0 25 12 -29 14 -36 1 -48 -2 -45 -11 3 -8 -4 -13 -19 -13 -13 0 -28 -4
-33 -9 -15 -14 -95 -25 -95 -13 0 7 -12 6 -35 -1 -19 -6 -35 -16 -35 -24 0 -7
-9 -13 -20 -13 -11 0 -54 -20 -96 -45 -42 -25 -78 -44 -80 -42 -4 3 99 73 119
80 6 2 9 7 6 11 -7 8 -144 -63 -221 -115 -33 -23 -92 -76 -132 -117 -39 -42
-89 -95 -110 -117 -57 -59 -107 -181 -122 -295 -2 -19 -6 -44 -9 -56 -2 -11
-7 -86 -11 -167 -5 -123 -3 -155 12 -206 10 -33 21 -58 25 -55 4 2 7 -19 6
-48 -1 -35 5 -62 16 -79 37 -56 90 -223 93 -294 2 -60 1 -66 -9 -42 -6 15 -14
27 -18 27 -11 0 9 -90 24 -104 10 -10 12 -56 10 -197 -1 -101 -3 -229 -3 -283
l0 -100 -27 26 c-16 14 -36 28 -46 31 -10 4 -15 11 -12 17 3 6 -1 13 -9 16 -9
3 -14 10 -11 14 6 10 -40 170 -65 228 -11 24 -26 78 -35 120 -9 42 -30 128
-47 191 l-32 114 23 91 c33 130 45 154 83 171 18 8 27 14 20 15 -25 0 -71 -33
-82 -60 -6 -14 -13 -39 -16 -55 -3 -16 -9 -34 -14 -40 -13 -16 -29 -117 -23
-150 2 -16 17 -73 33 -125 15 -52 37 -133 49 -180 36 -148 81 -314 92 -343 14
-35 74 -87 99 -87 20 0 25 -12 34 -85 3 -22 10 -64 16 -93 12 -52 12 -53 -24
-96 -19 -24 -66 -90 -105 -148 -69 -104 -102 -138 -151 -153 -14 -4 -36 -14
-48 -22 -13 -8 -26 -12 -29 -10 -2 3 -29 -3 -60 -14 -54 -18 -83 -23 -213 -34
-79 -7 -137 -22 -146 -37 -5 -8 -2 -9 10 -5 10 4 15 3 11 -4 -4 -5 -15 -7 -25
-4 -10 3 -22 0 -27 -7 -12 -21 -132 -107 -185 -134 -26 -13 -82 -36 -125 -50
-96 -32 -179 -69 -211 -95 -26 -20 -47 -26 -37 -9 3 6 2 10 -4 10 -17 0 -22
-18 -6 -24 8 -3 43 8 77 24 35 17 69 30 76 30 6 0 12 4 12 10 0 5 6 7 14 4 8
-3 34 4 58 16 23 12 56 23 72 25 53 8 170 72 236 130 85 75 132 94 239 100
185 10 243 24 309 73 18 14 34 23 37 21 4 -4 -42 -79 -65 -106 -5 -7 -10 -20
-9 -30 0 -16 1 -16 7 -1 10 23 114 148 124 148 4 0 8 5 8 11 0 6 15 29 34 52
18 23 46 66 62 95 16 29 36 61 44 70 9 9 22 32 29 50 7 17 17 32 20 32 12 0
51 -127 45 -147 -4 -13 -3 -15 4 -4 12 17 42 -66 42 -118 0 -46 35 -245 51
-291 14 -42 50 -120 139 -305 37 -77 76 -160 86 -185 24 -58 124 -252 137
-265 22 -22 -6 55 -57 160 -30 61 -64 133 -76 160 -12 28 -25 54 -28 59 -3 5
-1 6 4 3 5 -3 23 -33 39 -66 16 -34 32 -61 37 -61 4 0 4 8 -2 18 -5 9 -37 75
-70 146 -34 70 -63 126 -66 123 -3 -3 6 -27 19 -54 13 -26 27 -59 31 -73 3
-14 -14 16 -39 65 -28 56 -42 97 -39 109 5 15 3 18 -10 13 -9 -4 -16 -2 -16 3
0 6 6 10 13 10 8 0 9 2 1 8 -6 4 -14 17 -18 30 -4 12 -12 20 -17 17 -5 -4 -9
-1 -9 4 0 6 5 11 10 11 6 0 10 5 10 11 0 5 -4 7 -10 4 -5 -3 -7 0 -4 9 6 16
-13 59 -24 52 -4 -2 -8 10 -9 27 l-2 32 15 -25 15 -25 -4 28 c-2 15 -1 27 4
27 4 0 1 17 -7 37 -17 38 -25 73 -19 73 2 0 13 -16 25 -35 12 -20 27 -41 34
-48 6 -6 37 -46 68 -87 81 -105 102 -130 114 -130 6 0 17 -11 24 -24 12 -23
38 -41 46 -33 2 1 -13 21 -34 43 -40 43 -73 84 -100 125 -9 14 -47 66 -83 114
-124 163 -212 359 -256 565 -25 120 -26 139 -27 440 0 364 3 482 16 548 25
127 36 217 29 222 -16 10 -23 50 -9 50 10 0 10 2 -1 9 -11 7 -12 13 -3 23 6 8
14 29 17 48 3 19 8 43 11 53 11 34 12 127 2 121 -5 -3 -3 7 5 23 8 15 17 46
18 68 4 39 14 58 54 97 19 19 19 19 1 12 -19 -7 -18 -5 3 24 12 18 27 32 32
32 5 0 8 4 6 9 -4 16 136 142 151 136 16 -6 87 66 137 139 19 28 43 62 54 76
23 29 27 50 9 51 -7 0 1 5 19 10 20 6 36 19 44 38 7 16 17 28 21 25 4 -3 12 5
18 17 9 17 9 20 0 14 -8 -5 -11 -3 -9 4 3 7 8 12 12 11 5 -1 23 10 40 23 40
31 231 127 252 127 8 0 15 4 15 8 0 11 140 32 210 32 30 0 71 -4 90 -9 75 -19
92 -22 86 -12 -16 25 -238 45 -322 28z m-457 -73 c-3 -3 -12 -4 -19 -1 -8 3
-5 6 6 6 11 1 17 -2 13 -5z m-27 -260 c0 -3 -14 -19 -31 -35 -17 -16 -25 -29
-18 -29 7 0 3 -10 -11 -25 -13 -14 -28 -25 -34 -25 -6 1 -1 9 12 19 31 27 27
34 -8 16 -17 -9 -30 -11 -30 -5 0 5 4 10 9 10 5 0 31 18 57 40 51 42 54 44 54
34z m-166 -99 c-4 -8 -10 -15 -14 -15 -4 0 -10 -7 -14 -15 -4 -12 0 -14 22 -9
15 4 24 4 20 0 -3 -4 -10 -8 -15 -9 -8 -1 -50 -38 -119 -104 -18 -18 -38 -33
-45 -33 -6 0 7 17 30 38 37 34 56 62 31 47 -5 -3 -10 -2 -10 3 0 6 7 13 16 16
8 3 12 2 9 -4 -9 -15 4 -12 21 4 7 8 19 16 26 19 7 2 10 8 6 12 -4 4 -16 2
-25 -6 -10 -7 0 6 22 29 43 46 47 49 39 27z m56 -19 c0 -2 -7 -7 -16 -10 -8
-3 -12 -2 -9 4 6 10 25 14 25 6z m12 -22 c-5 -8 -22 -24 -38 -35 -16 -10 -23
-19 -15 -19 11 0 10 -5 -4 -20 -10 -11 -25 -20 -34 -20 -13 1 -11 5 6 19 12
10 20 21 17 23 -5 5 62 68 72 68 3 0 1 -7 -4 -16z m-148 -115 c-10 -17 -84
-83 -103 -92 -9 -4 11 17 44 47 61 57 72 65 59 45z m-367 -66 c-8 -15 -18 -48
-23 -73 -4 -25 -9 -48 -10 -52 -1 -5 -2 -18 -3 -30 0 -12 -4 -18 -8 -14 -18
17 3 126 36 184 18 33 26 20 8 -15z m223 -57 c0 -2 -7 -9 -15 -16 -13 -11 -14
-10 -9 4 5 14 24 23 24 12z m-130 -118 c-17 -29 -40 -72 -52 -95 -36 -72 -33
-38 4 39 31 65 60 108 74 108 2 0 -9 -24 -26 -52z m47 -29 c-17 -40 -33 -67
-35 -61 -3 10 54 132 63 132 2 0 -10 -32 -28 -71z m-146 8 c-8 -8 -11 -7 -11
4 0 20 13 34 18 19 3 -7 -1 -17 -7 -23z m10 -54 c-9 -16 -10 -16 -11 -1 0 9 3
25 7 35 7 16 8 17 11 1 2 -10 -1 -25 -7 -35z m69 -32 c-18 -34 -34 -61 -36
-61 -8 0 11 66 23 78 7 8 18 23 24 34 6 11 13 18 16 15 2 -3 -10 -33 -27 -66z
m1 -69 c-5 -10 -19 -52 -30 -93 -20 -71 -21 -72 -17 -24 5 51 42 153 52 142 3
-3 1 -14 -5 -25z m-134 -54 c-3 -8 -6 -5 -6 6 -1 11 2 17 5 13 3 -3 4 -12 1
-19z m55 -22 c-3 -5 -9 -1 -12 10 -4 10 -5 23 -2 28 3 5 9 1 12 -10 4 -10 5
-23 2 -28z m101 19 c-3 -9 -8 -14 -10 -11 -3 3 -2 9 2 15 9 16 15 13 8 -4z
m-18 -66 c-5 -20 -4 -29 3 -25 6 4 8 -2 4 -16 -5 -21 -6 -21 -13 -2 -4 11 -8
13 -8 5 -1 -8 -3 -12 -6 -10 -6 6 14 79 21 79 3 0 3 -14 -1 -31z m-82 -38 c3
-13 1 -18 -9 -14 -7 2 -10 11 -7 19 7 19 10 18 16 -5z m4 -68 c-3 -10 -5 -4
-5 12 0 17 2 24 5 18 2 -7 2 -21 0 -30z m50 -5 c-3 -8 -6 -5 -6 6 -1 11 2 17
5 13 3 -3 4 -12 1 -19z"/>
<path d="M4658 9443 c7 -3 16 -2 19 1 4 3 -2 6 -13 5 -11 0 -14 -3 -6 -6z"/>
<path d="M5356 9421 c12 -12 84 -34 90 -28 3 3 -16 12 -42 21 -54 18 -62 19
-48 7z"/>
<path d="M5468 9378 c5 -5 16 -8 23 -6 8 3 3 7 -10 11 -17 4 -21 3 -13 -5z"/>
<path d="M5515 9371 c-3 -6 14 -19 37 -31 24 -11 34 -18 23 -15 -28 7 62 -73
101 -90 37 -17 86 -70 114 -125 25 -50 25 -62 -1 -30 -15 19 -14 13 7 -27 14
-29 32 -53 38 -53 7 0 23 -24 35 -52 75 -171 112 -235 172 -298 113 -118 163
-212 182 -341 9 -60 18 -93 25 -92 7 2 12 -2 12 -7 0 -6 -4 -10 -10 -10 -5 0
-9 -15 -9 -32 l1 -33 9 30 c6 22 7 13 4 -34 -2 -39 -9 -67 -17 -72 -8 -6 -9
-9 -2 -9 8 0 9 -11 4 -36 -5 -20 -6 -43 -3 -50 3 -8 1 -14 -4 -14 -5 0 -9 -49
-9 -110 1 -61 -2 -110 -5 -110 -3 0 -6 -28 -7 -62 -7 -221 -101 -782 -157
-938 -49 -136 -166 -336 -259 -440 -17 -20 -47 -56 -66 -80 -54 -69 -122 -140
-133 -140 -6 0 -35 -27 -66 -59 -31 -32 -75 -71 -98 -85 -24 -14 -43 -31 -43
-37 0 -13 70 24 125 66 21 16 36 23 31 15 -4 -8 10 4 32 28 22 23 44 42 49 42
5 0 16 9 26 20 9 11 14 20 11 20 -4 0 5 9 19 20 38 30 41 25 12 -23 -14 -24
-25 -53 -25 -65 0 -11 -4 -24 -10 -27 -5 -3 -10 -11 -10 -16 0 -6 4 -8 9 -5 5
3 12 -1 15 -10 4 -10 2 -13 -6 -8 -7 5 -9 2 -5 -9 3 -8 -3 -38 -13 -65 -11
-27 -17 -52 -15 -54 3 -3 -11 -45 -31 -94 -19 -49 -46 -120 -60 -158 -13 -38
-31 -80 -39 -93 -16 -24 -13 -43 6 -43 6 0 8 9 4 19 -4 13 0 23 10 29 9 5 17
13 17 18 0 5 9 27 20 49 12 22 32 69 45 105 65 171 86 229 105 284 62 185 184
457 236 524 41 54 78 114 86 140 4 12 10 22 14 22 10 0 58 -72 54 -82 -1 -5 5
-11 13 -14 8 -3 12 -10 9 -15 -3 -5 0 -9 5 -9 6 0 11 3 11 6 0 10 -54 99 -64
106 -6 4 -7 10 -3 14 4 4 3 12 -2 18 -6 7 -1 39 15 86 13 41 34 121 46 178
l21 102 32 0 c61 0 109 83 124 216 6 53 22 123 41 174 50 134 90 258 90 278 0
9 -18 -35 -39 -98 -22 -63 -52 -152 -69 -196 -16 -45 -33 -110 -36 -144 -8
-78 -39 -160 -71 -190 -14 -13 -25 -20 -25 -16 0 5 -7 3 -15 -4 -9 -7 -18 -10
-21 -8 -11 12 38 353 52 364 18 14 37 74 23 74 -5 0 -9 -6 -9 -13 0 -7 -6 -22
-14 -32 -11 -15 -10 5 5 98 22 145 21 142 81 246 47 82 62 101 82 101 8 0 2
-115 -9 -170 -4 -18 -1 -15 11 10 22 48 22 146 0 168 -16 16 -20 15 -49 -19
-18 -21 -45 -61 -60 -90 -15 -29 -27 -50 -27 -45 0 28 67 233 80 243 25 20 58
15 75 -11 9 -13 22 -55 30 -92 l15 -69 -4 68 c-3 59 -8 73 -32 99 -23 23 -36
29 -61 26 -18 -2 -33 -1 -33 4 0 4 13 40 29 80 46 118 56 172 55 313 -1 195
-17 278 -81 425 -68 154 -121 225 -239 320 -84 68 -233 158 -262 159 -20 1 9
-26 34 -31 11 -2 18 -11 16 -21 -2 -10 4 -17 13 -17 9 0 13 5 9 11 -3 6 5 3
20 -6 30 -20 34 -30 9 -21 -17 7 -17 6 0 -11 13 -13 20 -15 25 -6 6 9 16 5 37
-12 21 -18 24 -23 10 -18 -11 3 -25 10 -31 15 -7 5 -14 3 -17 -6 -6 -15 35
-60 46 -50 6 6 10 3 60 -41 15 -14 32 -25 37 -25 11 0 109 -148 143 -216 14
-27 32 -75 41 -105 8 -29 18 -65 22 -78 5 -18 4 -22 -5 -16 -10 6 -12 0 -7
-26 10 -50 -10 -14 -34 62 -23 71 -23 72 -11 65 5 -4 7 3 4 14 -3 11 -10 17
-16 13 -6 -3 -7 -1 -3 5 4 6 -2 28 -13 49 -11 21 -20 34 -21 30 0 -5 5 -17 11
-28 8 -15 7 -24 -3 -37 -9 -11 -10 -14 0 -8 12 7 16 -7 14 -44 0 -8 8 -35 19
-60 35 -80 37 -85 48 -117 16 -51 -4 -39 -28 16 -11 27 -21 53 -21 58 0 4 -8
17 -17 28 -15 19 -15 18 -10 -15 l6 -35 -17 33 c-10 18 -21 30 -24 26 -4 -3
-16 9 -27 27 -12 19 -21 27 -21 19 0 -8 9 -28 21 -45 29 -42 90 -168 84 -174
-6 -5 -2 -11 -45 74 -19 39 -60 108 -91 155 -52 79 -101 155 -143 223 -9 15
-14 33 -10 39 4 6 3 9 -2 5 -5 -3 -14 6 -21 19 -14 30 -6 31 25 2 l24 -23 -20
34 c-12 19 -19 38 -16 43 8 13 -16 39 -29 31 -6 -3 -7 -1 -3 5 4 7 -4 24 -19
39 -14 16 -20 30 -14 32 6 2 3 11 -7 22 -9 10 -21 16 -26 13 -4 -3 -7 0 -6 6
2 6 -15 23 -36 38 -22 15 -39 32 -39 37 0 10 -69 56 -75 50 -6 -6 82 -86 106
-96 26 -10 30 -31 5 -22 -10 3 -34 18 -53 32 -19 14 -40 25 -47 23 -6 -1 -14
2 -18 8 -4 6 1 7 12 3 41 -14 -31 47 -86 73 -31 15 -59 29 -63 31 -4 2 -9 -1
-13 -6z m115 -73 c0 -6 -6 -5 -15 2 -8 7 -15 14 -15 16 0 2 7 1 15 -2 8 -4 15
-11 15 -16z m190 -149 c22 -28 40 -55 40 -61 0 -6 -10 2 -22 18 -12 16 -35 44
-52 62 -16 17 -25 32 -18 32 6 0 30 -23 52 -51z m395 -214 c55 -82 99 -180 91
-201 -6 -15 -18 3 -53 76 -25 52 -66 124 -92 160 -66 90 -71 101 -22 55 24
-22 58 -62 76 -90z m-237 -130 c-3 -3 -9 2 -12 12 -6 14 -5 15 5 6 7 -7 10
-15 7 -18z m22 -36 c0 -6 -4 -7 -10 -4 -5 3 -10 11 -10 16 0 6 5 7 10 4 6 -3
10 -11 10 -16z m270 -399 c0 -5 -2 -10 -4 -10 -3 0 -8 5 -11 10 -3 6 -1 10 4
10 6 0 11 -4 11 -10z m61 -291 c-5 -13 -10 -19 -10 -12 -1 15 10 45 15 40 3
-2 0 -15 -5 -28z m-590 -1986 c-8 -15 -10 -15 -11 -2 0 17 10 32 18 25 2 -3
-1 -13 -7 -23z"/>
<path d="M4542 9356 c-18 -6 -30 -15 -25 -20 4 -5 0 -6 -9 -3 -10 4 -18 2 -18
-3 0 -14 11 -12 58 10 61 30 57 39 -6 16z"/>
<path d="M4420 9300 c-18 -12 -2 -12 25 0 13 6 15 9 5 9 -8 0 -22 -4 -30 -9z"/>
<path d="M5806 9245 c10 -8 23 -15 28 -15 6 0 1 7 -10 15 -10 8 -23 15 -28 15
-6 0 -1 -7 10 -15z"/>
<path d="M5885 9172 c27 -29 51 -52 52 -52 13 0 -24 44 -59 71 l-43 32 50 -51z"/>
<path d="M5708 9182 c13 -17 28 -35 34 -39 7 -3 2 8 -10 25 -13 17 -28 35 -34
39 -7 3 -2 -8 10 -25z"/>
<path d="M4262 9147 c-12 -13 -19 -26 -16 -30 4 -3 16 5 26 19 26 33 18 41
-10 11z"/>
<path d="M5871 9155 c0 -5 27 -39 61 -75 33 -36 55 -56 49 -45 -16 29 -111
132 -110 120z"/>
<path d="M4355 9110 c-3 -5 -1 -10 4 -10 6 0 11 5 11 10 0 6 -2 10 -4 10 -3 0
-8 -4 -11 -10z"/>
<path d="M5950 9111 c0 -5 7 -15 17 -22 15 -13 15 -12 4 9 -12 23 -21 28 -21
13z"/>
<path d="M4198 9070 c-14 -10 -29 -16 -33 -12 -5 4 -5 1 -1 -6 6 -9 14 -7 37
8 26 19 35 30 25 30 -2 0 -15 -9 -28 -20z"/>
<path d="M4319 9073 c-13 -16 -12 -17 4 -4 9 7 17 15 17 17 0 8 -8 3 -21 -13z"/>
<path d="M4275 9030 c-22 -24 -43 -27 -24 -3 13 15 12 15 -8 2 -28 -17 -29
-24 -4 -26 10 -1 29 9 42 23 12 13 20 24 17 24 -3 0 -13 -9 -23 -20z"/>
<path d="M5942 9030 c7 -11 17 -20 22 -20 5 0 1 9 -9 20 -10 11 -20 20 -22 20
-2 0 2 -9 9 -20z"/>
<path d="M6009 8962 c5 -10 18 -25 28 -33 12 -10 11 -5 -6 19 -24 35 -38 43
-22 14z"/>
<path d="M4099 8943 c-13 -16 -12 -17 4 -4 16 13 21 21 13 21 -2 0 -10 -8 -17
-17z"/>
<path d="M5152 8898 c-10 -30 -10 -31 3 -14 13 17 21 46 12 46 -1 0 -8 -15
-15 -32z"/>
<path d="M5470 8891 c0 -7 -4 -10 -9 -7 -5 3 -16 -6 -25 -20 -21 -31 -54 -44
-125 -49 -58 -4 -126 -26 -115 -38 4 -4 12 -3 18 2 6 6 54 17 106 25 84 14 97
18 129 50 19 20 32 38 28 42 -4 4 -7 2 -7 -5z"/>
<path d="M6156 8891 c-3 -5 1 -11 9 -14 9 -4 12 -1 8 9 -6 16 -10 17 -17 5z"/>
<path d="M5130 8853 c0 -23 -132 -140 -182 -162 -29 -13 -60 -26 -68 -30 -8
-4 -27 -6 -42 -6 -15 1 -24 -3 -22 -7 8 -13 37 -9 106 12 51 15 76 31 124 77
65 62 101 110 90 120 -3 3 -6 2 -6 -4z"/>
<path d="M4770 8825 c-13 -14 -21 -25 -17 -25 3 0 17 11 31 25 14 14 22 25 17
25 -4 0 -18 -11 -31 -25z"/>
<path d="M5075 8829 c-4 -6 -5 -12 -2 -15 2 -3 7 2 10 11 7 17 1 20 -8 4z"/>
<path d="M4255 8820 c-3 -5 -1 -10 4 -10 6 0 11 5 11 10 0 6 -2 10 -4 10 -3 0
-8 -4 -11 -10z"/>
<path d="M4847 8814 c-15 -8 -32 -12 -37 -9 -5 3 -11 1 -15 -5 -3 -5 1 -10 10
-10 17 0 75 27 75 35 0 7 -1 6 -33 -11z"/>
<path d="M4701 8806 c-13 -7 -19 -16 -14 -19 12 -8 53 3 53 14 0 15 -15 17
-39 5z"/>
<path d="M6155 8800 c-3 -5 -1 -10 4 -10 6 0 11 5 11 10 0 6 -2 10 -4 10 -3 0
-8 -4 -11 -10z"/>
<path d="M4957 8767 l-17 -32 20 24 c17 20 26 41 18 41 -2 0 -11 -15 -21 -33z"/>
<path d="M4007 8773 c-4 -3 -7 -11 -7 -17 0 -6 5 -5 12 2 6 6 9 14 7 17 -3 3
-9 2 -12 -2z"/>
<path d="M4209 8763 c-13 -16 -12 -17 4 -4 9 7 17 15 17 17 0 8 -8 3 -21 -13z"/>
<path d="M4989 8753 c-13 -16 -12 -17 4 -4 9 7 17 15 17 17 0 8 -8 3 -21 -13z"/>
<path d="M6101 8743 c7 -12 15 -20 18 -17 3 2 -3 12 -13 22 -17 16 -18 16 -5
-5z"/>
<path d="M4939 8724 c-15 -8 -33 -21 -40 -31 -12 -14 -9 -14 19 3 19 10 38 25
44 32 12 14 11 14 -23 -4z"/>
<path d="M6140 8726 c0 -8 4 -17 9 -20 5 -4 7 3 4 14 -6 23 -13 26 -13 6z"/>
<path d="M6230 8110 c0 -5 5 -10 10 -10 6 0 10 5 10 10 0 6 -4 10 -10 10 -5 0
-10 -4 -10 -10z"/>
<path d="M4630 8060 c-17 -5 -19 -8 -7 -9 9 -1 17 -6 17 -12 0 -6 9 -8 20 -4
11 3 20 3 20 -2 0 -12 -38 -14 -45 -2 -4 5 -18 9 -33 8 -20 0 -9 -7 37 -24 36
-13 68 -22 72 -19 4 2 10 0 14 -6 4 -6 11 -8 16 -4 5 3 16 0 24 -6 23 -19 115
-23 115 -5 0 14 -18 30 -35 30 -5 0 -10 7 -10 15 0 8 -9 16 -20 18 -11 2 -26
9 -33 15 -18 15 -64 19 -56 5 4 -6 3 -8 -3 -5 -18 11 -68 15 -93 7z"/>
<path d="M4870 8018 c18 -27 35 -48 37 -48 8 0 -33 62 -51 78 -11 9 -5 -4 14
-30z"/>
<path d="M3778 8039 c39 -15 86 -80 117 -162 19 -52 35 -69 35 -40 0 31 -66
158 -96 187 -16 14 -40 26 -54 25 l-25 0 23 -10z"/>
<path d="M4450 8040 c-8 -5 -10 -10 -5 -10 6 0 17 5 25 10 8 5 11 10 5 10 -5
0 -17 -5 -25 -10z"/>
<path d="M3756 8011 c-12 -13 -19 -41 -22 -83 -2 -35 -1 -55 2 -44 16 53 41
146 39 146 -1 0 -10 -9 -19 -19z"/>
<path d="M4405 8010 c-3 -6 1 -7 9 -4 18 7 21 14 7 14 -6 0 -13 -4 -16 -10z"/>
<path d="M4921 7990 c14 -31 19 -36 19 -24 0 6 -7 19 -16 30 -14 18 -14 18 -3
-6z"/>
<path d="M5629 7995 c-2 -2 -27 -6 -54 -10 -27 -3 -58 -13 -69 -23 -18 -16
-19 -16 -12 2 5 16 4 17 -9 6 -8 -7 -15 -15 -15 -19 0 -13 63 -12 73 1 5 8 6
3 2 -15 l-6 -29 65 5 c36 3 66 1 68 -3 2 -4 30 5 63 21 33 15 66 28 73 28 7 1
10 6 6 13 -5 8 -2 9 10 5 11 -4 15 -3 11 4 -10 16 -94 0 -145 -27 -44 -23 -33
-9 18 26 22 14 21 15 -26 17 -27 2 -51 1 -53 -2z m46 -15 c-3 -5 -11 -10 -16
-10 -6 0 -7 5 -4 10 3 6 11 10 16 10 6 0 7 -4 4 -10z m61 -30 c-22 -11 -41
-18 -44 -16 -6 6 50 35 68 35 8 0 -3 -9 -24 -19z"/>
<path d="M4408 7963 c6 -2 18 -2 25 0 6 3 1 5 -13 5 -14 0 -19 -2 -12 -5z"/>
<path d="M3822 7932 c-15 -34 -27 -92 -19 -92 8 0 41 110 35 115 -2 2 -9 -8
-16 -23z"/>
<path d="M5848 7933 c7 -3 16 -2 19 1 4 3 -2 6 -13 5 -11 0 -14 -3 -6 -6z"/>
<path d="M3792 7805 c0 -16 2 -22 5 -12 2 9 2 23 0 30 -3 6 -5 -1 -5 -18z"/>
<path d="M5461 7783 c-21 -26 -22 -41 -2 -28 6 3 11 13 11 21 0 8 4 13 8 10 5
-3 9 1 9 9 0 20 -2 19 -26 -12z"/>
<path d="M5350 7778 c-23 -35 -34 -54 -24 -43 44 49 56 65 48 65 -5 0 -16 -10
-24 -22z"/>
<path d="M6332 7765 c-1 -16 3 -48 7 -70 11 -53 12 -5 2 55 -6 34 -9 37 -9 15z"/>
<path d="M4617 7765 c-96 -16 -177 -45 -177 -62 0 -7 6 -13 13 -13 8 0 7 -4
-3 -11 -11 -8 -7 -9 18 -5 32 5 99 -17 114 -39 4 -5 10 -7 13 -3 3 3 -8 17
-25 31 -32 28 -31 31 15 41 27 6 31 4 32 -15 3 -29 39 -67 74 -74 34 -8 84 16
100 48 6 12 13 23 14 25 6 6 50 -21 75 -45 17 -17 26 -21 29 -12 5 16 -39 52
-98 81 -30 14 -71 23 -125 26 l-81 5 65 18 c77 20 55 22 -53 4z m-67 -45 c-8
-5 -19 -10 -25 -10 -5 0 -3 5 5 10 8 5 20 10 25 10 6 0 3 -5 -5 -10z m192 -15
c0 -5 -5 -11 -11 -13 -6 -2 -11 4 -11 13 0 9 5 15 11 13 6 -2 11 -8 11 -13z
m-242 -5 c-8 -5 -19 -10 -25 -10 -5 0 -3 5 5 10 8 5 20 10 25 10 6 0 3 -5 -5
-10z"/>
<path d="M6440 7743 c-3 -23 -2 -39 3 -34 5 5 7 24 5 42 -3 33 -4 33 -8 -8z"/>
<path d="M3782 7750 c0 -14 2 -19 5 -12 2 6 2 18 0 25 -3 6 -5 1 -5 -13z"/>
<path d="M4780 7763 c0 -5 22 -20 48 -35 26 -15 57 -35 70 -44 20 -15 22 -15
16 -1 -7 19 -57 58 -97 75 -33 14 -37 15 -37 5z"/>
<path d="M5414 7713 c-23 -35 -29 -83 -10 -83 15 0 16 31 1 42 -5 4 0 18 14
32 14 14 22 28 19 31 -3 3 -14 -7 -24 -22z"/>
<path d="M5031 7714 c0 -11 3 -14 6 -6 3 7 2 16 -1 19 -3 4 -6 -2 -5 -13z"/>
<path d="M5565 7709 c-22 -6 -57 -21 -77 -35 -20 -14 -41 -23 -46 -20 -5 3 -9
-1 -9 -9 0 -20 19 -19 48 3 13 10 40 25 59 33 76 33 85 38 75 37 -5 0 -28 -4
-50 -9z"/>
<path d="M4415 7701 c-3 -5 -1 -12 5 -16 5 -3 10 1 10 9 0 18 -6 21 -15 7z"/>
<path d="M5008 7686 c-3 -14 -2 -26 2 -26 12 0 19 26 10 39 -5 9 -9 4 -12 -13z"/>
<path d="M5800 7661 c82 -44 121 -54 80 -21 -34 27 -78 47 -120 54 -28 5 -21
-1 40 -33z"/>
<path d="M4976 7675 c-3 -8 -1 -15 4 -15 6 0 10 7 10 15 0 8 -2 15 -4 15 -2 0
-6 -7 -10 -15z"/>
<path d="M3920 7644 c-14 -41 -7 -161 10 -178 11 -11 7 57 -5 86 -4 9 -2 41 4
69 14 62 8 75 -9 23z"/>
<path d="M5340 7665 c-6 -8 -10 -19 -8 -26 2 -6 9 0 16 15 13 29 10 33 -8 11z"/>
<path d="M5549 7665 c-62 -23 -133 -75 -101 -75 4 0 25 11 47 25 52 32 59 31
73 -9 9 -23 22 -38 42 -44 57 -20 130 19 130 70 0 17 3 17 41 -2 35 -18 39
-23 27 -37 -12 -15 -11 -15 10 -4 14 8 38 10 62 6 21 -4 41 -2 44 3 3 6 -2 8
-12 6 -9 -3 -40 7 -67 22 -97 52 -218 68 -296 39z m126 -15 c-3 -5 -10 -10
-16 -10 -5 0 -9 5 -9 10 0 6 7 10 16 10 8 0 12 -4 9 -10z"/>
<path d="M5954 7672 c3 -5 0 -13 -6 -15 -9 -4 -10 -6 -1 -6 17 -1 25 16 12 25
-7 4 -9 3 -5 -4z"/>
<path d="M5372 7606 c1 -13 6 -22 10 -20 11 7 10 32 -2 39 -6 3 -9 -4 -8 -19z"/>
<path d="M5482 7591 c-10 -6 -7 -10 11 -13 18 -4 24 -1 20 9 -6 15 -13 16 -31
4z"/>
<path d="M3810 7522 c0 -5 10 -17 22 -28 l21 -19 -18 28 c-18 28 -25 33 -25
19z"/>
<path d="M5490 7511 c0 -5 16 -18 36 -30 38 -23 48 -26 40 -12 -9 14 -76 51
-76 42z"/>
<path d="M6247 7507 c-11 -29 -9 -43 4 -30 6 6 9 19 7 29 -3 18 -4 18 -11 1z"/>
<path d="M4875 7210 c-3 -5 -1 -10 4 -10 6 0 11 5 11 10 0 6 -2 10 -4 10 -3 0
-8 -4 -11 -10z"/>
<path d="M5406 7130 c4 -25 7 -47 6 -50 -1 -82 -22 -112 -93 -130 -79 -20 -88
-29 -25 -24 70 4 102 23 122 69 19 46 18 136 -1 161 -14 17 -14 15 -9 -26z"/>
<path d="M4847 7133 c-4 -3 -7 -27 -7 -53 0 -37 5 -51 28 -72 35 -34 114 -65
98 -39 -3 5 -21 12 -40 15 -51 10 -71 38 -71 102 0 30 0 54 -1 54 0 0 -4 -3
-7 -7z"/>
<path d="M4729 7033 c-13 -16 -12 -17 4 -4 9 7 17 15 17 17 0 8 -8 3 -21 -13z"/>
<path d="M4943 7023 c-19 -7 -16 -23 5 -23 30 -1 95 -28 104 -44 5 -8 24 -18
43 -22 22 -4 32 -10 28 -18 -4 -6 2 -4 12 4 14 11 19 12 22 3 3 -7 9 -13 14
-13 6 0 8 4 5 8 -6 10 56 34 109 41 27 4 41 12 43 24 5 25 -42 23 -85 -4 -75
-46 -129 -42 -193 16 -24 22 -82 37 -107 28z"/>
<path d="M4699 6993 c-13 -16 -12 -17 4 -4 9 7 17 15 17 17 0 8 -8 3 -21 -13z"/>
<path d="M5190 6903 c0 -17 8 -16 26 1 12 13 12 15 -6 13 -11 -1 -20 -7 -20
-14z"/>
<path d="M5046 6742 c12 -11 64 -33 64 -27 0 5 -56 35 -67 35 -4 0 -3 -4 3 -8z"/>
<path d="M4875 6710 c-3 -5 -2 -10 4 -10 5 0 13 5 16 10 3 6 2 10 -4 10 -5 0
-13 -4 -16 -10z"/>
<path d="M4680 6695 c-7 -8 -10 -18 -7 -21 8 -9 144 -17 247 -16 52 1 111 -4
130 -10 50 -17 490 -18 490 -1 0 22 -37 35 -61 22 -12 -6 -39 -9 -60 -6 -22 3
-42 1 -45 -4 -3 -5 -11 -6 -17 -2 -7 4 -19 6 -28 5 -9 -2 -35 2 -59 7 -29 6
-60 6 -96 -2 -45 -9 -61 -8 -102 6 -31 11 -77 18 -123 17 -115 0 -222 5 -240
14 -10 4 -21 1 -29 -9z"/>
<path d="M6005 6669 c-4 -6 -5 -12 -2 -15 2 -3 7 2 10 11 7 17 1 20 -8 4z"/>
<path d="M6120 6600 c19 -16 45 -32 57 -36 13 -3 20 -10 17 -15 -3 -5 0 -9 5
-9 24 0 8 19 -44 54 -66 44 -82 47 -35 6z"/>
<path d="M5900 6550 c-6 -11 -8 -20 -6 -20 3 0 10 9 16 20 6 11 8 20 6 20 -3
0 -10 -9 -16 -20z"/>
<path d="M4865 6541 c28 -27 134 -69 174 -69 24 -1 46 -3 49 -6 3 -3 -19 -6
-48 -6 -69 0 -60 -9 14 -14 67 -6 106 4 66 15 -23 6 -22 7 8 8 18 1 31 -3 27
-8 -12 -20 39 -36 64 -21 10 6 11 10 4 10 -28 0 -11 18 24 25 41 7 88 29 98
45 4 6 -12 1 -34 -11 -38 -19 -53 -21 -189 -17 -117 3 -155 8 -187 23 -69 32
-81 37 -70 26z m335 -81 c0 -5 -7 -10 -15 -10 -8 0 -15 5 -15 10 0 6 7 10 15
10 8 0 15 -4 15 -10z"/>
<path d="M6230 6530 c0 -5 5 -10 11 -10 5 0 7 5 4 10 -3 6 -8 10 -11 10 -2 0
-4 -4 -4 -10z"/>
<path d="M6270 6511 c0 -5 7 -11 15 -15 8 -3 15 -1 15 3 0 5 -7 11 -15 15 -8
3 -15 1 -15 -3z"/>
<path d="M6324 6485 c11 -8 22 -12 25 -9 6 6 -19 24 -34 24 -5 -1 -1 -7 9 -15z"/>
<path d="M6146 6472 c-3 -5 1 -9 9 -9 8 0 12 4 9 9 -3 4 -7 8 -9 8 -2 0 -6 -4
-9 -8z"/>
<path d="M6170 6444 c0 -4 15 -39 34 -78 19 -39 44 -93 55 -120 12 -26 24 -46
27 -44 7 8 -100 248 -111 248 -3 0 -5 -3 -5 -6z"/>
<path d="M6485 6430 c-11 -4 22 -6 78 -4 73 3 106 0 127 -11 16 -8 37 -15 47
-15 10 1 -4 10 -32 20 -52 21 -180 27 -220 10z"/>
<path d="M5070 6419 c0 -4 -8 -10 -17 -12 -10 -3 3 -5 30 -6 26 0 47 3 47 8 0
5 8 11 18 14 9 2 -4 4 -30 4 -27 0 -48 -4 -48 -8z"/>
<path d="M5155 6409 c-16 -7 -14 -8 12 -5 20 3 33 1 36 -7 2 -7 8 -8 13 -4 5
4 2 12 -6 17 -18 12 -29 11 -55 -1z"/>
<path d="M6820 6370 c8 -5 20 -10 25 -10 6 0 3 5 -5 10 -8 5 -19 10 -25 10 -5
0 -3 -5 5 -10z"/>
<path d="M6964 6308 c-4 -6 -3 -8 3 -5 6 4 31 -12 56 -36 74 -68 108 -91 116
-79 4 7 12 8 21 1 13 -8 13 -10 0 -19 -11 -7 -5 -8 20 -4 19 4 37 8 38 10 2 1
-22 15 -55 30 -32 15 -60 30 -63 34 -9 12 -112 80 -121 80 -4 0 -11 -5 -15
-12z"/>
<path d="M3622 6192 c-12 -59 -25 -118 -28 -132 -4 -14 -7 -38 -8 -55 -5 -60
-6 -66 -14 -61 -5 3 -8 -5 -7 -17 1 -12 -1 -24 -4 -27 -10 -8 -83 -301 -77
-308 4 -3 6 2 6 11 0 8 6 22 13 29 6 7 13 22 13 33 2 33 13 82 26 112 6 15 12
33 13 38 1 6 3 13 5 18 1 4 3 10 4 15 1 4 8 25 14 47 7 22 21 93 32 157 10 65
23 134 29 155 19 77 21 93 14 93 -5 0 -18 -48 -31 -108z"/>
<path d="M4220 6281 c0 -6 4 -13 10 -16 6 -3 7 1 4 9 -7 18 -14 21 -14 7z"/>
<path d="M4240 6244 c0 -6 7 -19 15 -30 8 -10 14 -14 14 -9 0 6 -6 19 -14 29
-8 11 -15 15 -15 10z"/>
<path d="M4572 6189 c2 -7 10 -15 17 -17 8 -3 12 1 9 9 -2 7 -10 15 -17 17 -8
3 -12 -1 -9 -9z"/>
<path d="M4610 6196 c0 -2 8 -10 18 -17 15 -13 16 -12 3 4 -13 16 -21 21 -21
13z"/>
<path d="M4275 6143 c16 -38 35 -66 42 -60 4 4 -46 97 -53 97 -2 0 3 -17 11
-37z"/>
<path d="M6290 6171 c0 -6 4 -13 10 -16 6 -3 7 1 4 9 -7 18 -14 21 -14 7z"/>
<path d="M7230 6170 c0 -5 8 -11 18 -12 17 -1 33 -4 42 -8 3 -1 19 -3 35 -5
21 -3 16 1 -20 15 -58 22 -75 24 -75 10z"/>
<path d="M4610 6163 c1 -10 86 -73 99 -73 5 0 11 -4 13 -8 6 -15 135 -71 212
-92 46 -13 90 -19 111 -16 19 3 35 2 35 -3 0 -6 15 -8 33 -5 17 2 52 6 77 8
112 12 209 56 305 140 48 42 28 48 -24 7 -62 -49 -117 -80 -180 -101 -109 -36
-302 -26 -457 25 -46 15 -153 64 -141 65 4 0 3 9 -3 20 -6 11 -15 18 -21 14
-5 -3 -21 2 -34 10 -14 9 -25 13 -25 9z"/>
<path d="M7420 6116 c36 -12 96 -38 135 -57 73 -36 75 -37 115 -70 78 -66 108
-88 139 -104 19 -9 46 -28 60 -41 14 -13 31 -24 38 -24 14 0 84 -46 84 -54 -1
-3 20 -46 45 -96 25 -50 42 -96 38 -103 -4 -6 -3 -9 1 -4 11 9 65 -84 157
-267 38 -77 75 -145 81 -152 23 -26 32 -40 56 -84 29 -54 42 -72 49 -66 2 3
-12 31 -31 63 -48 81 -79 144 -73 150 5 5 -2 15 -32 48 -7 8 -11 19 -7 24 3 6
-3 14 -12 20 -10 5 -16 11 -14 13 6 4 -35 85 -98 198 -27 47 -73 130 -103 185
-48 89 -61 104 -114 139 -32 22 -99 69 -149 106 -150 112 -332 202 -404 199
-18 -1 -5 -8 39 -23z"/>
<path d="M4260 6125 c0 -5 5 -17 10 -25 5 -8 10 -10 10 -5 0 6 -5 17 -10 25
-5 8 -10 11 -10 5z"/>
<path d="M2505 6069 c-56 -29 -259 -158 -332 -211 -17 -13 -29 -27 -26 -31 3
-5 15 0 27 11 33 31 207 147 249 167 20 9 37 21 37 25 0 4 16 11 35 14 19 4
35 10 35 14 0 4 12 15 28 24 45 29 10 20 -53 -13z"/>
<path d="M6317 6079 c4 -13 8 -18 11 -10 2 7 -1 18 -6 23 -8 8 -9 4 -5 -13z"/>
<path d="M4334 6066 c4 -24 31 -76 40 -76 1 0 3 7 3 15 0 8 -4 15 -9 15 -5 0
-7 4 -4 9 3 5 -1 12 -10 15 -8 3 -13 9 -10 14 2 4 0 14 -5 22 -7 11 -8 7 -5
-14z"/>
<path d="M4978 6083 c6 -2 18 -2 25 0 6 3 1 5 -13 5 -14 0 -19 -2 -12 -5z"/>
<path d="M6331 6040 c0 -8 4 -24 9 -35 5 -13 9 -14 9 -5 0 8 -4 24 -9 35 -5
13 -9 14 -9 5z"/>
<path d="M6356 5887 c34 -128 106 -349 111 -344 2 3 -9 51 -25 108 -17 57 -43
152 -58 211 -16 59 -34 110 -40 112 -8 3 -4 -27 12 -87z"/>
<path d="M4386 5958 c3 -5 10 -6 15 -3 13 9 11 12 -6 12 -8 0 -12 -4 -9 -9z"/>
<path d="M5635 5930 c-3 -5 -1 -10 4 -10 6 0 11 5 11 10 0 6 -2 10 -4 10 -3 0
-8 -4 -11 -10z"/>
<path d="M5333 5855 c0 -8 4 -15 9 -15 4 0 8 7 8 15 0 8 -4 15 -8 15 -5 0 -9
-7 -9 -15z"/>
<path d="M5610 5861 c0 -5 -3 -18 -6 -28 -5 -16 -4 -16 10 1 18 23 20 36 6 36
-5 0 -10 -4 -10 -9z"/>
<path d="M2120 5796 c0 -2 7 -7 16 -10 8 -3 12 -2 9 4 -6 10 -25 14 -25 6z"/>
<path d="M5595 5762 c-29 -61 -46 -102 -40 -102 7 0 67 131 62 136 -2 2 -12
-13 -22 -34z"/>
<path d="M2105 5769 c-11 -17 1 -21 15 -4 8 9 8 15 2 15 -6 0 -14 -5 -17 -11z"/>
<path d="M2029 5713 c-13 -16 -12 -17 4 -4 9 7 17 15 17 17 0 8 -8 3 -21 -13z"/>
<path d="M4485 5670 c9 -16 18 -30 21 -30 2 0 -2 14 -11 30 -9 17 -18 30 -21
30 -2 0 2 -13 11 -30z"/>
<path d="M5536 5634 c-9 -8 -13 -20 -10 -26 5 -7 12 -4 21 7 23 33 16 46 -11
19z"/>
<path d="M1941 5622 c-7 -13 -6 -19 2 -19 7 0 13 9 13 19 0 10 -1 18 -3 18 -1
0 -7 -8 -12 -18z"/>
<path d="M5495 5589 c-11 -17 1 -21 15 -4 8 9 8 15 2 15 -6 0 -14 -5 -17 -11z"/>
<path d="M1891 5516 c-16 -39 -41 -109 -55 -155 -41 -126 -148 -336 -340 -666
-146 -250 -192 -345 -201 -415 -4 -30 -9 -66 -11 -79 -1 -13 -8 -27 -15 -32
-8 -5 -15 -65 -20 -196 -9 -210 -6 -192 -83 -578 -61 -306 -103 -463 -147
-547 -5 -10 -9 -27 -9 -38 0 -14 -4 -19 -12 -14 -7 4 -8 3 -4 -4 4 -7 1 -26
-7 -44 -8 -18 -20 -49 -27 -68 -7 -19 -50 -112 -97 -206 -64 -131 -85 -184
-89 -225 l-4 -54 14 50 c18 63 86 210 130 283 19 32 62 134 96 227 34 94 72
194 86 223 20 43 23 56 13 68 -10 12 -9 13 3 9 18 -7 34 25 18 35 -7 4 -4 27
9 71 11 35 27 109 36 164 9 55 18 111 21 125 3 14 9 50 14 80 5 30 11 64 14
75 19 70 25 105 27 140 2 22 7 43 12 46 6 4 9 49 9 100 -1 77 16 271 33 364 8
50 52 142 125 268 44 75 80 139 80 141 0 3 23 44 51 93 45 77 90 163 174 333
65 131 96 205 124 295 17 55 44 123 59 151 19 34 24 51 15 51 -7 0 -26 -32
-42 -71z"/>
<path d="M3467 5553 c-9 -47 13 -43 28 5 4 16 2 22 -8 22 -8 0 -17 -12 -20
-27z"/>
<path d="M4550 5510 c24 -35 81 -111 90 -120 3 -3 31 -40 63 -82 31 -43 67
-83 79 -89 13 -7 29 -18 36 -26 8 -7 17 -11 22 -8 10 6 93 -103 143 -189 10
-17 25 -38 34 -46 13 -13 13 -11 0 22 -38 93 -84 148 -248 303 -41 39 -100
104 -131 145 -31 41 -69 86 -84 100 l-28 25 24 -35z"/>
<path d="M6472 5515 c0 -11 3 -29 8 -40 11 -25 11 1 0 35 -6 20 -8 21 -8 5z"/>
<path d="M3464 5494 c-4 -10 -9 -22 -11 -26 -2 -5 0 -8 5 -8 10 0 24 41 17 48
-3 3 -8 -4 -11 -14z"/>
<path d="M5809 5500 c13 -6 58 -17 100 -26 42 -9 81 -19 86 -24 6 -4 44 -17
85 -29 41 -12 89 -29 107 -37 17 -8 39 -14 48 -14 10 0 43 -11 74 -24 31 -13
92 -39 136 -56 44 -18 86 -37 93 -43 7 -5 15 -8 17 -5 9 9 -67 53 -155 92 -47
20 -98 43 -114 52 -23 12 -32 12 -45 2 -9 -7 -13 -8 -9 -4 8 9 -19 35 -37 36
-5 0 -3 -5 5 -10 9 -6 10 -10 3 -10 -6 0 -14 4 -18 9 -3 5 -20 13 -38 17 -27
6 -29 8 -12 14 13 5 4 7 -25 6 -25 0 -54 3 -65 8 -11 5 -26 10 -34 12 -8 1
-17 6 -20 11 -6 8 -14 9 -96 17 -22 2 -56 7 -75 10 -30 6 -32 5 -11 -4z"/>
<path d="M4195 5480 c-4 -6 6 -7 27 -3 44 8 48 13 10 13 -17 0 -34 -4 -37 -10z"/>
<path d="M4313 5428 c12 -35 25 -64 30 -66 4 -2 7 -12 7 -22 0 -32 53 -83 134
-129 91 -52 112 -50 26 3 -99 61 -120 85 -167 183 -25 51 -46 93 -48 93 -2 0
6 -28 18 -62z"/>
<path d="M5726 5410 c-25 -45 -44 -86 -41 -91 3 -4 -3 -13 -14 -18 -10 -6 -22
-18 -25 -28 -13 -33 45 30 66 72 11 22 26 47 33 55 14 17 37 81 31 87 -2 3
-25 -32 -50 -77z"/>
<path d="M4045 5472 c-1 -2 -25 -5 -51 -8 -72 -8 -168 -31 -238 -58 -33 -13
-103 -38 -154 -55 -52 -17 -110 -41 -130 -52 -50 -27 -24 -20 163 46 88 31
178 60 200 65 115 25 194 41 225 45 139 19 162 28 57 23 -38 -2 -70 -4 -72 -6z"/>
<path d="M3445 5420 c-4 -12 -5 -24 -2 -27 3 -2 8 5 12 17 4 12 5 24 2 27 -3
2 -8 -5 -12 -17z"/>
<path d="M5369 5340 c-37 -39 -96 -105 -130 -148 -35 -42 -82 -100 -105 -129
-23 -28 -61 -82 -84 -120 -22 -37 -59 -97 -81 -132 -22 -35 -38 -66 -35 -68 2
-2 30 38 62 89 96 152 172 249 340 433 85 94 124 145 108 145 -4 0 -37 -32
-75 -70z"/>
<path d="M3858 5393 c7 -3 16 -2 19 1 4 3 -2 6 -13 5 -11 0 -14 -3 -6 -6z"/>
<path d="M3432 5350 c0 -14 2 -19 5 -12 2 6 2 18 0 25 -3 6 -5 1 -5 -13z"/>
<path d="M5605 5250 c-3 -5 -2 -10 4 -10 5 0 13 5 16 10 3 6 2 10 -4 10 -5 0
-13 -4 -16 -10z"/>
<path d="M5520 5220 c-30 -11 -63 -19 -74 -19 -10 -1 -38 -18 -61 -38 -23 -21
-73 -60 -111 -88 -89 -66 -217 -193 -258 -258 -39 -61 -79 -137 -71 -137 2 0
16 22 29 48 22 43 102 151 132 177 6 6 67 55 135 109 68 55 138 112 154 127
17 15 67 42 113 59 45 17 82 33 82 36 0 6 -9 4 -70 -16z"/>
<path d="M4729 5112 c44 -31 101 -63 101 -57 0 7 -107 75 -117 74 -4 0 3 -8
16 -17z"/>
<path d="M4714 5092 c3 -6 1 -12 -5 -14 -6 -2 5 -16 25 -32 20 -15 47 -38 61
-52 32 -32 45 -31 15 1 -13 14 -19 25 -14 25 4 0 42 -33 82 -72 41 -40 69 -64
64 -52 -15 29 -168 171 -204 190 -17 9 -27 11 -24 6z m51 -38 c39 -36 25 -40
-16 -4 -19 16 -29 30 -23 30 6 0 23 -11 39 -26z"/>
<path d="M4869 4920 c24 -22 46 -40 49 -40 3 0 -12 18 -33 40 -21 22 -44 40
-50 40 -5 0 10 -18 34 -40z"/>
<path d="M5120 4772 c0 -15 -7 -38 -16 -51 -13 -18 -23 -22 -48 -17 -29 5 -30
5 -12 -9 26 -20 33 -19 61 10 17 16 25 35 25 60 0 19 -2 35 -5 35 -3 0 -5 -12
-5 -28z"/>
<path d="M8605 4680 c-4 -11 3 -45 14 -75 12 -31 21 -65 21 -75 0 -11 4 -20 9
-20 6 0 8 10 5 23 -3 12 -7 29 -8 37 -9 55 -20 90 -28 90 -5 0 -6 9 -3 20 3
11 4 20 1 20 -2 0 -8 -9 -11 -20z"/>
<path d="M4900 4669 c0 -5 5 -7 10 -4 6 3 10 8 10 11 0 2 -4 4 -10 4 -5 0 -10
-5 -10 -11z"/>
<path d="M4926 4653 c-6 -14 -5 -15 5 -6 7 7 10 15 7 18 -3 3 -9 -2 -12 -12z"/>
<path d="M4886 4613 c-16 -86 -27 -253 -17 -253 4 0 9 25 10 56 1 31 4 60 6
64 2 4 7 38 10 76 4 37 9 72 11 76 3 4 1 8 -5 8 -5 0 -12 -12 -15 -27z"/>
<path d="M8661 4496 c-11 -13 -5 -23 31 -61 23 -26 49 -57 57 -70 15 -24 57
-44 45 -22 -21 37 -88 116 -96 114 -6 -1 -11 8 -13 20 -2 31 -10 36 -24 19z"/>
<path d="M2730 4421 c0 -26 15 -35 17 -11 1 11 -2 22 -8 25 -5 4 -9 -3 -9 -14z"/>
<path d="M2743 4340 c0 -25 2 -35 4 -22 2 12 2 32 0 45 -2 12 -4 2 -4 -23z"/>
<path d="M4872 4320 c0 -19 2 -27 5 -17 2 9 2 25 0 35 -3 9 -5 1 -5 -18z"/>
<path d="M8780 4313 c0 -6 8 -17 18 -24 16 -13 16 -13 2 6 -8 11 -16 22 -17
24 -2 2 -3 0 -3 -6z"/>
<path d="M2750 4271 c0 -11 4 -22 9 -25 4 -3 6 6 3 19 -5 30 -12 33 -12 6z"/>
<path d="M8840 4260 c6 -11 13 -20 16 -20 2 0 0 9 -6 20 -6 11 -13 20 -16 20
-2 0 0 -9 6 -20z"/>
<path d="M1262 4215 c0 -16 2 -22 5 -12 2 9 2 23 0 30 -3 6 -5 -1 -5 -18z"/>
<path d="M8850 4210 c6 -11 13 -20 16 -20 2 0 0 9 -6 20 -6 11 -13 20 -16 20
-2 0 0 -9 6 -20z"/>
<path d="M8886 4187 c3 -10 9 -15 12 -12 3 3 0 11 -7 18 -10 9 -11 8 -5 -6z"/>
<path d="M7956 4173 c-2 -2 -13 -6 -25 -8 -37 -7 -138 -74 -158 -104 -10 -16
-30 -46 -45 -67 -78 -111 -43 -350 69 -474 25 -28 50 -50 57 -50 6 0 16 -8 23
-19 12 -20 53 -35 53 -20 0 5 -4 9 -8 9 -19 0 -108 102 -134 152 -16 31 -30
78 -34 115 -3 35 -10 60 -15 57 -14 -8 -11 9 7 44 10 21 23 32 37 33 12 0 16
3 10 6 -7 2 -13 8 -13 13 0 15 52 70 60 65 5 -3 12 0 16 6 4 8 3 9 -4 5 -7 -4
-12 -1 -12 6 0 14 -47 -34 -66 -67 -5 -10 -19 -24 -30 -32 -18 -11 -21 -11
-21 1 0 8 5 12 11 10 6 -2 19 13 29 34 19 40 100 130 157 175 20 16 27 25 15
21 -27 -9 -74 -44 -128 -96 -36 -35 -47 -41 -56 -30 -10 10 -2 25 36 72 49 61
88 86 203 128 l55 21 -42 -1 c-24 -1 -45 -3 -47 -5z m-208 -278 c-16 -31 -17
-30 -16 14 0 37 2 39 13 24 10 -13 10 -23 3 -38z"/>
<path d="M8023 4154 c-18 -9 -33 -20 -33 -25 0 -9 28 -1 47 14 7 5 24 7 38 5
14 -3 28 -1 32 5 3 5 1 7 -5 3 -6 -3 -13 -2 -17 4 -9 14 -24 12 -62 -6z"/>
<path d="M7545 4138 c-6 -29 -11 -439 -8 -753 4 -429 1 -379 26 -505 22 -109
31 -224 18 -215 -7 3 -11 -2 -11 -14 0 -12 4 -21 8 -21 5 0 10 -60 11 -132 2
-161 14 -254 36 -278 14 -15 14 -19 1 -29 -17 -14 -36 -7 -36 13 0 7 -11 40
-25 74 -18 45 -25 80 -25 131 0 38 -4 72 -9 75 -21 13 -29 -144 -8 -166 30
-32 57 -110 57 -166 1 -101 27 -219 66 -291 45 -83 65 -157 67 -246 1 -49 -3
-80 -15 -104 -13 -24 -15 -38 -7 -52 12 -23 21 -25 12 -3 -3 9 5 26 19 42 13
15 33 46 43 69 15 36 16 51 7 96 -10 49 -65 167 -129 276 -21 35 -27 60 -31
133 -6 101 -2 108 61 108 20 0 37 3 37 8 0 4 15 8 33 9 17 1 59 11 92 22 33
11 49 19 35 17 -14 -3 -47 -7 -75 -10 -45 -5 -47 -5 -24 7 15 6 26 15 25 19 0
3 3 10 8 15 5 5 6 3 2 -4 -11 -19 -2 -16 53 18 53 33 59 54 13 43 -15 -4 -24
-3 -20 1 4 4 -25 29 -65 55 -40 26 -93 70 -119 98 -45 48 -48 55 -48 105 0 29
-3 56 -6 60 -3 3 -8 45 -10 94 -7 143 -11 169 -30 198 -16 25 -18 60 -21 369
-5 497 -5 516 2 694 7 149 3 196 -10 140z m158 -1738 c14 -15 31 -30 38 -32 9
-3 14 -21 13 -53 0 -27 2 -43 4 -37 2 7 8 10 12 7 5 -3 8 8 7 25 -1 16 -5 30
-9 30 -5 0 -8 5 -8 11 0 5 18 0 40 -12 46 -26 48 -32 17 -46 -12 -6 -38 -23
-56 -39 -41 -34 -86 -42 -78 -13 3 10 1 19 -4 19 -5 0 -9 -11 -9 -25 0 -14 -4
-25 -10 -25 -6 0 -10 40 -10 99 0 55 -3 106 -6 114 -9 25 31 9 59 -23z m34
-822 c-3 -8 -6 -5 -6 6 -1 11 2 17 5 13 3 -3 4 -12 1 -19z"/>
<path d="M7660 2316 c0 -28 4 -45 10 -41 9 6 6 73 -5 83 -3 3 -5 -16 -5 -42z"/>
<path d="M7727 2335 c-6 -35 -6 -37 9 -21 6 6 8 20 4 31 -6 16 -8 15 -13 -10z"/>
<path d="M8150 4140 c0 -5 12 -16 28 -24 43 -23 166 -150 168 -175 2 -27 5
-32 13 -27 12 8 37 -56 52 -135 17 -85 34 -102 25 -25 -8 69 -56 193 -100 255
-17 23 -60 65 -96 92 -63 47 -90 59 -90 39z"/>
<path d="M7910 4101 c-30 -16 -64 -39 -75 -52 -18 -21 -17 -21 15 3 19 14 56
35 83 47 26 12 47 24 47 26 0 9 -15 4 -70 -24z"/>
<path d="M4870 4070 c0 -29 2 -51 4 -49 8 8 10 88 3 95 -4 4 -7 -17 -7 -46z"/>
<path d="M7988 4103 c7 -3 16 -2 19 1 4 3 -2 6 -13 5 -11 0 -14 -3 -6 -6z"/>
<path d="M8916 4050 c8 -34 18 -68 21 -74 7 -10 9 -16 16 -50 1 -7 10 -24 19
-37 l16 -24 -2 27 c0 16 -5 28 -10 28 -5 0 -6 3 -3 7 4 3 3 11 -2 17 -4 6 -18
43 -31 81 -29 91 -43 105 -24 25z"/>
<path d="M8088 4063 c6 -2 18 -2 25 0 6 3 1 5 -13 5 -14 0 -19 -2 -12 -5z"/>
<path d="M7950 4044 c-14 -8 -24 -18 -23 -24 2 -5 -3 -7 -11 -4 -7 3 -19 -3
-27 -12 -13 -16 -12 -16 7 -6 12 6 24 8 28 5 3 -3 14 1 23 9 10 9 28 19 41 23
12 3 20 11 17 16 -8 12 -25 10 -55 -7z"/>
<path d="M8140 4056 c0 -2 7 -6 15 -10 8 -3 15 -1 15 4 0 6 -7 10 -15 10 -8 0
-15 -2 -15 -4z"/>
<path d="M7786 4004 c-5 -14 -4 -15 9 -4 17 14 19 20 6 20 -5 0 -12 -7 -15
-16z"/>
<path d="M4868 3975 c-2 -19 0 -35 4 -35 4 0 8 16 8 35 0 19 -2 35 -4 35 -2 0
-6 -16 -8 -35z"/>
<path d="M7856 3981 c-4 -7 -5 -15 -2 -18 9 -9 19 4 14 18 -4 11 -6 11 -12 0z"/>
<path d="M7895 3980 c-3 -5 -1 -10 4 -10 6 0 11 5 11 10 0 6 -2 10 -4 10 -3 0
-8 -4 -11 -10z"/>
<path d="M7105 3910 c-13 -5 -14 -9 -5 -9 8 0 24 4 35 9 13 5 14 9 5 9 -8 0
-24 -4 -35 -9z"/>
<path d="M6930 3868 c-52 -17 -131 -40 -175 -50 -102 -26 -109 -28 -104 -33 7
-6 152 29 284 69 146 45 146 44 115 44 -14 0 -68 -14 -120 -30z"/>
<path d="M7850 3890 c0 -6 -4 -9 -8 -6 -10 6 -34 -34 -31 -50 4 -21 -2 -34
-15 -34 -8 0 -16 6 -19 13 -2 6 -5 -9 -5 -35 -1 -27 3 -48 7 -48 5 0 9 11 9
25 0 14 2 29 6 32 12 13 16 -6 10 -46 -5 -29 -10 -38 -15 -29 -6 9 -9 7 -9 -9
0 -13 5 -23 11 -23 7 0 9 -12 4 -36 -4 -24 -3 -34 4 -29 6 3 11 16 11 28 0 18
2 19 10 7 5 -8 10 -25 10 -38 0 -14 4 -20 10 -17 6 4 8 15 5 25 -3 10 -2 27 3
37 52 101 59 120 52 137 -4 12 -9 16 -13 9 -4 -6 -4 -19 0 -29 4 -12 3 -15 -5
-10 -8 5 -10 1 -5 -10 4 -11 2 -15 -4 -11 -7 4 -13 -7 -17 -28 -7 -38 -26 -57
-26 -26 0 10 -5 21 -12 23 -7 3 -9 12 -5 22 4 10 12 14 18 10 8 -4 9 -3 5 4
-4 7 -2 12 3 12 6 0 11 5 11 11 0 5 -5 7 -11 3 -8 -4 -9 3 -4 25 4 18 3 31 -3
31 -6 0 -8 9 -5 20 3 11 10 20 15 20 5 0 6 -10 3 -21 -5 -15 -4 -19 4 -15 22
14 29 41 15 54 -9 8 -14 9 -14 2z"/>
<path d="M4863 3845 c0 -27 2 -38 4 -22 2 15 2 37 0 50 -2 12 -4 0 -4 -28z"/>
<path d="M7930 3865 c-7 -9 -8 -15 -2 -15 5 0 12 7 16 15 3 8 4 15 2 15 -2 0
-9 -7 -16 -15z"/>
<path d="M9020 3860 c6 -11 13 -20 16 -20 2 0 0 9 -6 20 -6 11 -13 20 -16 20
-2 0 0 -9 6 -20z"/>
<path d="M8145 3855 c-58 -11 -122 -41 -157 -73 -12 -10 -18 -11 -18 -3 0 7
-5 9 -11 6 -6 -4 -8 -12 -6 -19 3 -6 -3 -18 -11 -26 -14 -13 -15 -12 -9 3 10
28 0 20 -27 -20 -14 -20 -23 -40 -20 -44 3 -5 -2 -29 -11 -54 -20 -61 -19
-109 3 -126 9 -7 14 -10 11 -6 -13 15 22 131 52 179 63 98 135 148 242 169 54
10 77 10 114 1 49 -14 71 -9 31 7 -42 16 -120 19 -183 6z m-233 -157 c-7 -7
-12 -8 -12 -2 0 14 12 26 19 19 2 -3 -1 -11 -7 -17z"/>
<path d="M9004 3832 c8 -15 39 -51 70 -80 31 -29 56 -55 56 -57 0 -2 29 -48
63 -102 35 -54 76 -118 91 -141 15 -24 30 -42 33 -39 8 8 -122 221 -195 320
-66 89 -81 104 -62 65 7 -15 0 -11 -20 12 -16 19 -30 38 -30 42 0 4 -5 8 -10
8 -6 0 -5 -11 4 -28z"/>
<path d="M8005 3840 c-3 -6 1 -7 9 -4 18 7 21 14 7 14 -6 0 -13 -4 -16 -10z"/>
<path d="M5963 3830 c-13 -5 -23 -15 -23 -22 0 -9 3 -9 12 0 7 7 22 12 35 12
13 0 23 5 23 10 0 12 -17 12 -47 0z"/>
<path d="M6028 3770 c3 -50 1 -60 -12 -60 -9 0 -16 5 -16 11 0 8 -5 8 -15 -1
-8 -7 -15 -20 -15 -29 0 -12 2 -13 8 -3 5 7 30 13 58 14 27 1 42 3 33 5 -11 3
-18 20 -22 55 -9 73 -23 79 -19 8z"/>
<path d="M5930 3764 c0 -46 -11 -53 -85 -57 l-70 -3 72 -2 c66 -2 72 -4 75
-24 2 -13 8 5 12 40 4 35 5 66 2 69 -3 4 -6 -7 -6 -23z"/>
<path d="M8175 3746 c-116 -37 -199 -126 -210 -227 -7 -61 7 -58 23 4 19 68
68 132 138 177 54 36 70 42 99 37 19 -3 35 -2 35 2 0 4 21 7 48 5 36 -3 41 -1
22 5 -37 13 -109 11 -155 -3z"/>
<path d="M4852 3700 c0 -19 2 -27 5 -17 2 9 2 25 0 35 -3 9 -5 1 -5 -18z"/>
<path d="M8198 3723 c7 -3 16 -2 19 1 4 3 -2 6 -13 5 -11 0 -14 -3 -6 -6z"/>
<path d="M6110 3710 c-9 -6 5 -7 40 -3 30 3 57 7 59 9 9 9 -85 3 -99 -6z"/>
<path d="M8420 3683 c0 -5 6 -17 14 -28 7 -11 14 -24 14 -28 0 -4 5 -21 12
-37 11 -26 16 -28 48 -24 36 4 38 3 50 -36 14 -45 159 -317 174 -326 23 -15
14 11 -47 127 -36 68 -80 152 -97 187 -32 61 -33 62 -73 62 -29 0 -42 4 -42
14 0 18 -31 83 -43 91 -6 3 -10 2 -10 -2z"/>
<path d="M5954 3613 c-4 -31 -4 -126 0 -210 5 -103 3 -153 -4 -153 -5 0 -10
25 -11 58 -1 31 -5 82 -9 112 -5 36 -6 14 -3 -65 6 -130 7 -135 29 -135 12 0
14 34 12 225 -2 124 -4 225 -5 225 -1 0 -5 -26 -9 -57z"/>
<path d="M4852 3635 c0 -16 2 -22 5 -12 2 9 2 23 0 30 -3 6 -5 -1 -5 -18z"/>
<path d="M7850 3629 c0 -5 5 -7 10 -4 6 3 10 8 10 11 0 2 -4 4 -10 4 -5 0 -10
-5 -10 -11z"/>
<path d="M5016 3604 c-16 -42 8 -104 41 -104 12 0 9 6 -10 23 -20 18 -24 29
-22 60 4 39 1 47 -9 21z"/>
<path d="M5132 3575 c0 -16 2 -22 5 -12 2 9 2 23 0 30 -3 6 -5 -1 -5 -18z"/>
<path d="M2750 3490 c0 -57 3 -100 7 -97 7 8 6 188 -2 195 -3 3 -5 -41 -5 -98z"/>
<path d="M4852 3545 c0 -16 2 -22 5 -12 2 9 2 23 0 30 -3 6 -5 -1 -5 -18z"/>
<path d="M8035 3509 c-20 -23 -47 -63 -60 -91 -19 -41 -21 -55 -13 -88 6 -21
19 -48 29 -59 11 -12 17 -21 13 -21 -3 0 -2 -6 4 -12 5 -7 22 -35 37 -63 15
-27 41 -69 56 -93 16 -24 36 -56 44 -72 19 -37 74 -100 87 -100 5 0 -4 19 -20
43 -16 23 -44 70 -61 105 -18 35 -52 94 -76 133 -25 38 -45 72 -45 75 0 4 -10
15 -21 25 -32 27 -33 75 -3 135 23 47 79 113 87 103 2 -2 20 -31 39 -64 19
-33 53 -89 75 -125 34 -56 71 -139 46 -103 -14 19 -38 -16 -52 -73 -15 -63
-11 -164 6 -164 7 0 13 7 13 17 0 26 11 8 15 -25 2 -17 23 -60 47 -95 24 -36
77 -124 118 -194 41 -70 80 -134 87 -141 25 -26 30 -48 24 -97 -3 -27 -4 -81
-1 -119 5 -66 6 -68 19 -43 10 19 12 46 7 106 -8 93 -2 112 25 78 21 -28 61
-43 52 -21 -6 16 13 19 22 4 3 -5 14 -10 23 -10 15 0 15 2 2 10 -9 6 -10 10
-3 10 6 0 14 -4 17 -9 3 -4 18 -6 33 -4 27 4 27 4 9 -11 -11 -9 -34 -16 -50
-16 -28 -1 -29 -2 -12 -12 25 -14 136 -4 182 18 68 32 122 146 108 227 -9 56
-31 104 -112 248 -62 111 -70 132 -75 193 -6 69 -12 85 -23 73 -3 -3 -1 -29 6
-57 7 -28 10 -53 8 -55 -2 -3 -35 57 -74 133 -38 75 -81 159 -96 185 -15 26
-27 51 -26 55 3 14 -14 42 -23 36 -5 -3 -19 12 -31 32 -12 21 -24 32 -26 26
-4 -12 108 -232 133 -262 6 -8 38 -64 69 -125 56 -107 134 -240 188 -320 14
-22 25 -41 23 -43 -2 -2 -21 6 -44 17 -69 36 -164 21 -238 -35 -42 -32 -83
-118 -76 -160 7 -44 -13 -51 -33 -12 -19 36 -147 244 -201 324 -40 62 -50 124
-33 209 20 97 23 135 11 135 -6 0 -11 5 -11 10 0 6 -34 69 -76 140 -52 90 -82
130 -94 130 -10 0 -34 -18 -55 -41z m205 -336 c-11 -17 -11 -17 -6 0 3 10 7
26 7 35 1 15 2 15 6 0 2 -10 -1 -25 -7 -35z m646 -406 c31 -33 46 -154 22
-178 -20 -19 -43 -62 -40 -74 2 -12 -86 -55 -112 -55 -15 0 -16 3 -6 14 6 8
17 13 24 10 20 -8 64 33 71 66 4 17 10 28 15 25 8 -5 25 64 17 71 -2 3 -16
-22 -30 -53 -15 -32 -35 -69 -45 -82 -16 -20 -22 -22 -41 -11 -17 9 -26 9 -37
-1 -19 -15 -31 -4 -15 15 6 8 20 12 30 9 10 -3 22 1 26 8 5 8 4 10 -3 5 -7 -4
-12 -2 -12 3 0 6 4 11 9 11 5 0 16 17 24 38 49 119 49 118 32 97 -8 -11 -22
-28 -30 -37 -11 -13 -11 -18 -2 -18 8 0 9 -2 1 -8 -6 -4 -15 -18 -19 -32 -9
-30 -24 -50 -37 -50 -5 0 0 16 12 35 12 19 17 35 11 35 -6 0 -11 -3 -11 -7 0
-5 -10 -24 -22 -43 -22 -34 -24 -40 -27 -60 -1 -13 -31 -13 -31 -1 0 6 4 12 9
15 5 4 22 39 37 79 15 39 34 80 42 90 8 9 13 20 9 23 -9 9 -54 -69 -77 -132
-11 -32 -27 -65 -36 -74 -15 -14 -16 -12 -10 15 7 30 7 30 -9 8 -21 -29 -33
-29 -47 2 -8 18 -8 28 1 39 7 8 9 27 6 43 -4 23 -4 24 4 8 7 -15 10 -16 11 -5
2 8 2 18 1 23 0 4 4 7 10 7 7 0 9 -10 7 -25 -3 -14 -1 -25 3 -25 9 0 13 15 10
33 -1 4 4 17 10 29 8 15 8 18 0 14 -24 -16 -5 51 23 79 20 20 67 48 65 39 -4
-24 3 -26 17 -5 15 20 23 23 66 19 37 -4 56 -12 74 -31z m-246 -31 c0 -2 -8
-10 -17 -17 -16 -13 -17 -12 -4 4 13 16 21 21 21 13z m-25 -66 c-6 -9 -9 -9
-16 1 -10 17 0 34 13 21 6 -6 7 -16 3 -22z m-28 -22 c-3 -8 -6 -5 -6 6 -1 11
2 17 5 13 3 -3 4 -12 1 -19z"/>
<path d="M8695 2744 c-9 -15 -12 -23 -6 -20 11 7 35 46 28 46 -3 0 -12 -12
-22 -26z"/>
<path d="M8712 2730 c-18 -29 -15 -38 4 -12 9 13 14 25 12 27 -2 2 -9 -5 -16
-15z"/>
<path d="M8771 2692 c-6 -12 -11 -27 -11 -34 0 -7 7 0 15 16 9 16 13 31 11 33
-2 3 -9 -4 -15 -15z"/>
<path d="M8673 2675 c-3 -9 -3 -18 -1 -21 3 -3 8 4 11 16 6 23 -1 27 -10 5z"/>
<path d="M8844 2662 c3 -5 1 -12 -6 -14 -8 -3 -9 -6 -1 -11 6 -4 13 0 17 8 3
8 0 17 -6 21 -6 4 -8 3 -4 -4z"/>
<path d="M8815 2609 c-11 -16 -1 -19 13 -3 7 8 8 14 3 14 -5 0 -13 -5 -16 -11z"/>
<path d="M8640 2590 c-12 -22 -6 -40 12 -40 6 0 8 3 5 6 -3 4 -2 15 3 25 6 11
7 20 1 24 -6 3 -15 -4 -21 -15z"/>
<path d="M8787 2553 c-4 -3 -7 -11 -7 -17 0 -6 5 -5 12 2 6 6 9 14 7 17 -3 3
-9 2 -12 -2z"/>
<path d="M5916 3515 c8 -37 14 -45 14 -19 0 10 -5 26 -10 34 -8 11 -9 7 -4
-15z"/>
<path d="M2778 3430 c-4 -13 -6 -58 -4 -100 2 -45 0 -65 -4 -50 -9 29 -7 45
-16 -145 -2 -60 -8 -121 -14 -135 -13 -36 -30 -126 -30 -160 0 -39 25 -63 51
-49 16 8 18 13 8 25 -6 8 -18 14 -26 14 -8 0 -13 7 -11 16 2 8 7 14 12 14 16
-3 26 25 26 78 0 29 5 83 10 120 12 73 9 412 -2 372z m-1 -212 c-3 -7 -5 -2
-5 12 0 14 2 19 5 13 2 -7 2 -19 0 -25z"/>
<path d="M9320 3395 c0 -5 5 -17 10 -25 5 -8 10 -10 10 -5 0 6 -5 17 -10 25
-5 8 -10 11 -10 5z"/>
<path d="M4847 3370 c3 -11 7 -20 9 -20 2 0 4 9 4 20 0 11 -4 20 -9 20 -5 0
-7 -9 -4 -20z"/>
<path d="M4863 3285 c4 -27 7 -113 8 -189 0 -86 4 -134 10 -125 14 22 -1 344
-18 358 -3 3 -3 -16 0 -44z"/>
<path d="M9340 3322 c0 -4 32 -66 71 -137 39 -72 94 -175 121 -230 59 -118
167 -287 178 -280 5 3 11 1 15 -5 3 -5 0 -10 -7 -11 -7 0 -3 -4 10 -9 12 -5
22 -14 22 -20 0 -6 8 -30 19 -53 10 -23 21 -49 25 -57 3 -8 3 0 0 19 -3 18
-26 73 -51 122 -43 87 -63 115 -43 63 29 -75 -44 41 -112 179 -17 34 -47 91
-68 127 -21 36 -68 118 -105 183 -63 110 -75 128 -75 109z"/>
<path d="M1147 3133 c-4 -3 -7 -13 -7 -22 1 -13 3 -13 11 2 11 19 8 33 -4 20z"/>
<path d="M7313 3085 c0 -22 2 -30 4 -17 2 12 2 30 0 40 -3 9 -5 -1 -4 -23z"/>
<path d="M7322 3000 c0 -14 2 -19 5 -12 2 6 2 18 0 25 -3 6 -5 1 -5 -13z"/>
<path d="M4869 2898 c-6 -92 -5 -176 2 -188 5 -9 9 26 9 93 0 59 -2 107 -5
107 -3 0 -5 -6 -6 -12z"/>
<path d="M7940 2870 c-6 -11 -8 -20 -6 -20 3 0 10 9 16 20 6 11 8 20 6 20 -3
0 -10 -9 -16 -20z"/>
<path d="M8400 2861 c0 -6 4 -13 10 -16 6 -3 7 1 4 9 -7 18 -14 21 -14 7z"/>
<path d="M6790 2840 c0 -5 12 -10 28 -11 15 0 36 -5 47 -10 19 -9 18 -9 -2 -5
-13 2 -23 1 -23 -4 0 -9 99 -18 285 -26 168 -6 175 -10 226 -113 26 -52 47
-80 75 -98 22 -14 49 -35 62 -46 12 -11 22 -16 22 -11 -1 16 -24 39 -63 63
-26 16 -47 41 -69 85 -37 74 -53 93 -98 116 -39 19 -274 46 -315 36 -15 -4
-25 -2 -25 5 0 6 -10 9 -22 8 -13 -1 -30 1 -38 4 -34 13 -90 18 -90 7z"/>
<path d="M2795 2821 c-3 -7 3 -11 14 -11 25 0 26 -14 7 -72 -8 -24 -24 -79
-36 -123 -23 -79 -80 -257 -86 -263 -1 -2 -18 1 -36 6 -18 6 -55 13 -83 16
-27 3 -77 10 -109 16 -33 5 -62 8 -64 6 -8 -9 44 -29 82 -32 23 -2 69 -5 103
-8 45 -4 69 -11 85 -25 12 -12 25 -22 30 -22 17 -3 61 -19 103 -39 11 -5 31
-12 45 -16 24 -7 24 -6 -5 18 -16 14 -51 34 -77 46 l-47 20 25 64 c14 35 29
79 34 98 5 19 18 72 29 116 28 109 32 207 9 212 -9 2 -19 -2 -23 -7z"/>
<path d="M9198 2823 c6 -2 18 -2 25 0 6 3 1 5 -13 5 -14 0 -19 -2 -12 -5z"/>
<path d="M8257 2810 c-8 -22 -30 -491 -23 -498 12 -11 18 8 26 80 21 181 19
476 -3 418z"/>
<path d="M6540 2776 c-160 -80 -350 -195 -412 -248 -36 -31 -59 -89 -45 -114
19 -36 50 -64 71 -64 18 0 16 4 -12 21 -17 12 -35 31 -38 43 -7 30 11 72 36
86 11 6 18 15 15 19 -6 12 168 125 243 157 63 28 210 113 218 126 9 14 -9 8
-76 -26z"/>
<path d="M8450 2785 c0 -5 5 -17 10 -25 5 -8 10 -10 10 -5 0 6 -5 17 -10 25
-5 8 -10 11 -10 5z"/>
<path d="M9258 2723 c6 -2 18 -2 25 0 6 3 1 5 -13 5 -14 0 -19 -2 -12 -5z"/>
<path d="M9385 2690 c103 -48 175 -78 175 -74 0 8 -186 94 -201 93 -8 0 4 -9
26 -19z"/>
<path d="M2293 2680 c57 -93 180 -280 184 -280 7 0 -53 105 -103 180 -44 67
-112 150 -81 100z"/>
<path d="M4861 2674 c0 -11 3 -14 6 -6 3 7 2 16 -1 19 -3 4 -6 -2 -5 -13z"/>
<path d="M1617 2673 c18 -2 50 -2 70 0 21 2 7 4 -32 4 -38 0 -55 -2 -38 -4z"/>
<path d="M2500 2670 c8 -5 20 -10 25 -10 6 0 3 5 -5 10 -8 5 -19 10 -25 10 -5
0 -3 -5 5 -10z"/>
<path d="M1860 2660 c0 -5 5 -10 11 -10 7 0 34 -13 60 -30 27 -16 49 -27 49
-23 0 4 7 -3 16 -15 8 -12 24 -22 34 -22 10 0 20 -4 22 -8 2 -4 35 -25 73 -46
39 -20 57 -28 42 -16 -22 18 -25 25 -16 36 9 11 9 13 -2 9 -8 -3 -74 26 -147
65 -73 38 -135 70 -138 70 -2 0 -4 -4 -4 -10z"/>
<path d="M2000 2667 c0 -3 21 -22 47 -43 26 -21 44 -33 40 -27 -9 14 -87 77
-87 70z"/>
<path d="M2550 2650 c8 -5 20 -10 25 -10 6 0 3 5 -5 10 -8 5 -19 10 -25 10 -5
0 -3 -5 5 -10z"/>
<path d="M6770 2636 c-192 -71 -326 -132 -465 -212 -27 -16 -62 -36 -78 -43
-15 -8 -42 -29 -60 -47 -29 -30 -40 -33 -127 -43 -52 -5 -151 -13 -220 -16
-69 -3 -165 -11 -215 -16 -49 -5 -137 -12 -195 -15 -58 -3 -109 -10 -114 -15
-11 -10 225 -4 353 11 47 5 129 12 181 15 149 8 243 16 268 22 19 4 22 1 22
-22 0 -28 29 -99 37 -91 3 2 13 -4 24 -15 12 -12 33 -19 59 -19 21 0 43 -6 47
-13 10 -15 64 -52 78 -52 6 0 16 -4 23 -8 6 -5 12 -4 12 1 0 13 -42 40 -74 48
-21 5 -24 9 -15 20 6 8 18 14 26 14 8 0 27 7 44 15 16 9 46 18 67 21 100 12
98 17 27 -58 -63 -67 -65 -70 -63 -118 1 -28 6 -50 11 -50 4 0 6 -4 3 -8 -3
-5 6 -15 19 -22 14 -7 25 -17 25 -22 0 -4 7 -8 15 -8 9 0 28 -20 43 -45 15
-26 32 -43 39 -40 7 2 13 -2 13 -10 0 -8 5 -15 10 -15 15 0 -2 29 -34 59 -29
27 -34 46 -11 37 8 -3 35 4 61 15 25 12 57 19 70 16 12 -2 22 0 21 6 -2 11
157 83 201 91 15 3 38 8 52 11 24 6 25 6 5 -10 -11 -9 -28 -14 -38 -11 -11 2
-16 2 -13 -1 3 -3 -2 -12 -12 -20 -19 -17 -25 -18 86 23 67 26 118 32 106 13
-4 -8 0 -8 15 0 12 7 27 9 33 5 7 -5 25 -7 40 -6 14 1 29 -2 32 -7 6 -10 -51
-24 -139 -36 -70 -9 -269 -72 -335 -106 -72 -37 -112 -68 -87 -69 9 0 17 4 17
10 0 5 3 9 8 8 9 -3 153 52 168 64 18 13 158 53 279 78 158 32 251 60 235 70
-7 4 -26 4 -41 -1 -16 -5 -42 -13 -59 -18 -16 -5 -30 -6 -30 -1 0 8 43 25 82
32 12 2 15 7 9 17 -6 10 -13 10 -28 2 -20 -10 -20 -8 3 47 28 67 29 91 9 158
-16 54 -45 87 -85 99 -28 8 -22 -2 12 -19 27 -14 67 -91 68 -132 0 -45 -28
-132 -51 -155 -18 -18 -75 -28 -67 -11 43 83 50 108 45 154 -4 26 -18 72 -32
100 -16 32 -22 54 -16 56 6 2 11 8 11 13 0 5 -10 5 -22 0 -13 -5 -48 -5 -78 0
-106 15 -137 7 -37 -10 l99 -16 26 -45 c22 -36 27 -58 27 -111 0 -56 -4 -71
-26 -100 l-27 -34 -113 -2 c-103 -1 -121 -4 -189 -32 -41 -18 -95 -39 -120
-48 -25 -8 -70 -28 -100 -42 -43 -21 -63 -26 -92 -21 -55 10 -86 35 -94 76 -8
43 4 72 53 126 54 57 105 90 265 170 135 67 174 97 86 66 -24 -9 -65 -21 -93
-28 -27 -7 -59 -18 -70 -24 -11 -5 -29 -11 -41 -13 -17 -3 -122 -39 -333 -115
-63 -23 -87 -19 -130 21 -44 41 -44 96 1 136 53 47 244 163 288 175 22 6 84
31 138 56 217 102 235 107 352 102 67 -4 91 -2 65 3 -80 16 -177 10 -245 -15z"/>
<path d="M7070 2639 c0 -10 0 -10 48 -14 41 -3 35 4 -12 15 -21 4 -36 4 -36
-1z"/>
<path d="M7188 2643 c7 -3 16 -2 19 1 4 3 -2 6 -13 5 -11 0 -14 -3 -6 -6z"/>
<path d="M2977 2630 c-27 -5 -51 -11 -54 -14 -3 -3 92 -4 210 -3 128 1 209 6
200 11 -22 12 -298 17 -356 6z"/>
<path d="M1203 2586 c-35 -22 -61 -46 -58 -53 2 -7 0 -15 -5 -18 -4 -3 -10 0
-12 6 -2 7 -10 4 -18 -7 -11 -12 -11 -15 -2 -10 8 5 18 1 26 -10 10 -13 15
-14 21 -4 6 9 4 11 -5 5 -24 -15 -5 18 21 34 23 15 24 15 10 -4 -7 -11 -2 -6
13 10 15 17 41 45 59 62 42 43 26 40 -50 -11z"/>
<path d="M4863 2570 c0 -25 2 -35 4 -22 2 12 2 32 0 45 -2 12 -4 2 -4 -23z"/>
<path d="M8392 2575 c0 -16 2 -22 5 -12 2 9 2 23 0 30 -3 6 -5 -1 -5 -18z"/>
<path d="M2881 2562 c-10 -24 -12 -55 -7 -119 14 -172 35 -130 26 52 -5 96 -6
99 -19 67z"/>
<path d="M3379 2585 c-10 -17 -11 -229 -1 -255 8 -19 11 -3 13 70 4 103 -2
201 -12 185z"/>
<path d="M3930 2570 c0 -12 229 -13 248 -2 7 5 -46 9 -118 10 -80 1 -130 -2
-130 -8z"/>
<path d="M4308 2573 c12 -2 30 -2 40 0 9 3 -1 5 -23 4 -22 0 -30 -2 -17 -4z"/>
<path d="M2990 2560 c0 -5 7 -10 16 -10 8 0 12 5 9 10 -3 6 -10 10 -16 10 -5
0 -9 -4 -9 -10z"/>
<path d="M3776 2535 c-59 -41 -82 -62 -74 -70 3 -3 23 10 44 30 22 20 51 43
67 51 26 14 35 25 20 23 -5 0 -30 -15 -57 -34z"/>
<path d="M3060 2550 c0 -5 5 -10 10 -10 6 0 10 5 10 10 0 6 -4 10 -10 10 -5 0
-10 -4 -10 -10z"/>
<path d="M3090 2550 c0 -5 17 -10 37 -10 43 0 41 7 -5 15 -19 3 -32 1 -32 -5z"/>
<path d="M3185 2549 c-16 -7 -15 -8 7 -6 15 2 30 5 33 8 8 8 -18 7 -40 -2z"/>
<path d="M6260 2520 c18 -17 35 -28 37 -26 7 7 -44 56 -58 56 -6 0 3 -14 21
-30z"/>
<path d="M8413 2437 c1 -65 5 -123 9 -130 10 -14 7 163 -3 213 -4 21 -7 -13
-6 -83z"/>
<path d="M6185 2530 c-16 -7 -17 -9 -3 -9 9 -1 20 4 23 9 7 11 7 11 -20 0z"/>
<path d="M8393 2460 c0 -47 2 -66 4 -42 2 23 2 61 0 85 -2 23 -4 4 -4 -43z"/>
<path d="M2170 2523 c0 -10 40 -36 46 -30 3 2 -7 12 -21 21 -14 9 -25 13 -25
9z"/>
<path d="M4510 2524 c0 -3 7 -12 15 -20 13 -13 15 -13 15 -1 0 8 -7 17 -15 21
-8 3 -15 3 -15 0z"/>
<path d="M9497 2499 c18 -18 35 -30 38 -27 3 3 -11 18 -32 33 l-38 28 32 -34z"/>
<path d="M8471 2504 c0 -11 3 -14 6 -6 3 7 2 16 -1 19 -3 4 -6 -2 -5 -13z"/>
<path d="M8153 2487 c-40 -14 -83 -40 -120 -72 -32 -27 -62 -48 -68 -47 -5 2
-7 0 -2 -4 4 -4 -5 -16 -20 -26 -16 -10 -22 -18 -15 -18 23 0 68 28 128 80 33
27 83 61 112 76 28 14 52 27 52 30 0 5 3 6 -67 -19z"/>
<path d="M4550 2492 c0 -5 48 -35 108 -67 147 -79 251 -159 300 -231 7 -11 3
1 -10 25 -31 60 -136 144 -276 220 -116 64 -122 66 -122 53z"/>
<path d="M1104 2479 c-5 -8 -9 -18 -9 -24 0 -5 -7 -10 -15 -10 -8 -1 -14 -6
-12 -13 3 -17 -40 -57 -58 -54 -13 2 -13 2 0 -7 12 -9 12 -13 -6 -33 -23 -26
-73 -99 -57 -83 12 12 128 146 160 185 13 16 18 31 14 39 -7 11 -10 11 -17 0z"/>
<path d="M4757 2466 c-62 -17 -74 -31 -17 -20 81 15 118 11 147 -19 20 -20 27
-36 26 -64 -1 -34 0 -36 10 -15 17 37 -12 85 -67 110 -25 12 -47 22 -48 21 -2
0 -24 -6 -51 -13z"/>
<path d="M8450 2455 c0 -21 3 -26 9 -16 13 20 19 2 20 -63 0 -66 10 -90 12
-30 1 21 1 43 0 48 -1 6 -3 27 -3 48 0 21 -4 38 -9 38 -5 0 -9 -6 -9 -12 0 -9
-4 -8 -10 2 -7 12 -10 8 -10 -15z"/>
<path d="M2200 2467 c0 -3 12 -12 26 -22 15 -9 23 -12 20 -6 -7 11 -46 35 -46
28z"/>
<path d="M3685 2450 c3 -6 -1 -10 -9 -10 -9 0 -16 -5 -16 -10 0 -6 -17 -34
-37 -63 -20 -28 -46 -65 -57 -82 -11 -16 -40 -54 -64 -82 -24 -29 -39 -53 -33
-53 5 0 14 6 18 13 4 7 36 37 70 67 46 40 61 59 57 72 -3 10 0 18 6 18 6 0 8
-5 4 -12 -5 -7 -3 -8 5 -4 7 5 10 14 7 22 -3 8 0 13 6 11 6 -1 20 14 31 33
l19 35 -25 -30 c-32 -37 -35 -25 -6 22 14 23 24 31 29 23 5 -8 9 -5 13 9 3 12
-1 22 -10 25 -8 3 -11 1 -8 -4z"/>
<path d="M7895 2420 c-13 -6 -15 -9 -5 -9 8 0 22 4 30 9 18 12 2 12 -25 0z"/>
<path d="M7848 2403 c7 -3 16 -2 19 1 4 3 -2 6 -13 5 -11 0 -14 -3 -6 -6z"/>
<path d="M9771 2400 c-10 -49 -15 -201 -6 -204 6 -3 4 -5 -2 -5 -9 -1 -13 -26
-13 -89 0 -109 -28 -227 -70 -290 -16 -25 -30 -49 -30 -53 0 -10 -70 -113 -82
-120 -6 -4 -7 -16 -4 -27 4 -13 -1 -37 -14 -62 -12 -23 -20 -44 -17 -46 8 -8
71 91 69 110 -1 15 1 17 7 7 6 -10 16 -2 35 31 14 25 26 48 26 52 0 3 10 23
23 44 33 54 59 114 46 106 -8 -4 -9 0 -4 16 4 12 10 43 15 68 6 38 8 41 10 17
1 -16 1 -37 0 -45 -1 -10 2 -12 8 -5 6 6 7 27 3 50 -4 22 -3 58 1 80 5 22 7
117 6 210 -2 94 -5 163 -7 155z m-111 -700 c0 -5 -5 -10 -11 -10 -5 0 -7 5 -4
10 3 6 8 10 11 10 2 0 4 -4 4 -10z"/>
<path d="M5898 2385 c-2 -1 -52 -5 -113 -9 -312 -18 -509 -38 -295 -30 74 3
164 7 200 10 36 2 99 6 140 9 151 10 235 17 239 21 5 5 -166 4 -171 -1z"/>
<path d="M7910 2379 c0 -5 5 -7 10 -4 6 3 10 8 10 11 0 2 -4 4 -10 4 -5 0 -10
-5 -10 -11z"/>
<path d="M8462 2350 c0 -14 2 -19 5 -12 2 6 2 18 0 25 -3 6 -5 1 -5 -13z"/>
<path d="M1675 2338 c-90 -8 -200 -27 -193 -33 2 -2 46 3 98 11 52 7 139 14
193 14 59 0 97 4 97 10 0 11 -49 11 -195 -2z"/>
<path d="M1885 2340 c3 -5 18 -10 32 -10 32 0 22 13 -13 18 -16 2 -23 -1 -19
-8z"/>
<path d="M1954 2338 c-3 -4 30 -8 72 -8 43 0 75 2 73 4 -8 9 -140 12 -145 4z"/>
<path d="M5330 2340 c0 -5 5 -10 11 -10 5 0 7 5 4 10 -3 6 -8 10 -11 10 -2 0
-4 -4 -4 -10z"/>
<path d="M5248 2333 c6 -2 18 -2 25 0 6 3 1 5 -13 5 -14 0 -19 -2 -12 -5z"/>
<path d="M6300 2336 c0 -2 8 -10 18 -17 15 -13 16 -12 3 4 -13 16 -21 21 -21
13z"/>
<path d="M5113 2323 c9 -2 25 -2 35 0 9 3 1 5 -18 5 -19 0 -27 -2 -17 -5z"/>
<path d="M2945 2302 c-4 -11 1 -13 20 -10 13 3 22 2 20 -3 -6 -9 36 -18 100
-20 60 -2 237 10 244 16 2 3 -43 5 -100 6 -57 0 -143 6 -191 13 -74 10 -88 10
-93 -2z"/>
<path d="M3962 2298 c6 -18 128 -57 183 -59 28 -1 41 -3 30 -6 -48 -10 -211
-56 -225 -64 -13 -7 -13 -8 0 -13 50 -18 222 -33 345 -31 160 4 146 8 270 -95
89 -75 155 -144 155 -163 0 -6 -4 -27 -9 -45 -5 -17 -6 -32 -1 -32 4 0 11 20
14 45 8 53 3 63 -85 152 l-61 61 26 35 27 35 82 -34 c47 -19 99 -34 122 -33
l40 0 -60 20 c-33 12 -64 25 -70 29 -5 4 -77 36 -160 70 -82 34 -171 72 -197
85 -25 13 -49 21 -52 18 -10 -10 -7 -25 3 -18 5 3 12 1 15 -4 4 -5 -4 -11 -16
-14 -14 -2 -9 -4 12 -4 19 0 58 -12 85 -26 28 -14 63 -30 78 -36 15 -6 27 -16
27 -22 0 -6 6 -9 14 -6 8 3 26 3 40 -1 l26 -7 -28 -35 -29 -34 -52 39 c-46 35
-68 57 -40 40 5 -4 22 -4 37 0 l27 8 -25 6 c-14 4 -52 4 -85 0 -33 -4 -90 -9
-127 -12 -37 -3 -71 -8 -76 -11 -5 -3 -9 11 -10 31 -1 19 -4 43 -7 53 -5 15 4
18 55 24 33 4 60 11 60 15 0 8 -110 -6 -119 -14 -2 -3 -9 -1 -15 4 -6 5 -40
15 -76 21 -36 7 -84 19 -108 26 -31 9 -42 10 -40 2z m232 -100 c15 -57 13 -59
-71 -52 -134 12 -139 17 -53 46 95 34 116 34 124 6z"/>
<path d="M881 2277 c-13 -21 -12 -21 5 -5 10 10 16 20 13 22 -3 3 -11 -5 -18
-17z"/>
<path d="M6330 2282 c0 -11 -12 -35 -27 -53 l-28 -33 27 19 c26 19 47 70 34
82 -3 4 -6 -3 -6 -15z"/>
<path d="M8286 2285 c4 -8 10 -12 15 -9 5 3 9 1 9 -4 0 -12 54 -32 84 -32 25
0 111 38 104 46 -3 3 -26 0 -50 -6 -37 -10 -55 -9 -98 4 -66 20 -71 20 -64 1z"/>
<path d="M739 2253 c-7 -21 -13 -63 -13 -95 -1 -31 -5 -54 -9 -51 -5 3 -7 -4
-5 -16 6 -41 22 -26 24 24 2 48 5 70 18 143 8 43 0 41 -15 -5z"/>
<path d="M2922 2270 c0 -14 2 -19 5 -12 2 6 2 18 0 25 -3 6 -5 1 -5 -13z"/>
<path d="M5168 2253 c6 -2 18 -2 25 0 6 3 1 5 -13 5 -14 0 -19 -2 -12 -5z"/>
<path d="M870 2218 c-10 -21 -10 -22 3 -5 11 14 16 15 20 5 4 -9 6 -9 6 -1 2
23 -18 23 -29 1z"/>
<path d="M3625 2229 c-4 -6 -5 -12 -2 -15 2 -3 7 2 10 11 7 17 1 20 -8 4z"/>
<path d="M5185 2224 c-38 -8 -76 -12 -82 -9 -7 2 -13 0 -13 -6 0 -7 19 -8 53
-4 28 3 69 7 89 8 21 1 40 8 43 15 5 14 2 14 -90 -4z"/>
<path d="M2856 2106 c-93 -159 -138 -248 -142 -278 -1 -15 -1 -28 1 -28 6 0
184 335 196 369 20 58 5 41 -55 -63z"/>
<path d="M3057 2203 c18 -2 50 -2 70 0 21 2 7 4 -32 4 -38 0 -55 -2 -38 -4z"/>
<path d="M3350 2201 c0 -12 114 -235 153 -300 24 -39 38 -68 57 -119 19 -51
22 -32 4 29 -19 64 -82 191 -153 308 -57 94 -61 100 -61 82z"/>
<path d="M5048 2203 c6 -2 18 -2 25 0 6 3 1 5 -13 5 -14 0 -19 -2 -12 -5z"/>
<path d="M760 2157 c0 -43 -17 -99 -32 -108 -20 -13 36 -360 64 -396 5 -7 7
-17 3 -23 -3 -5 -1 -10 5 -10 11 0 9 34 -9 122 -31 161 -38 266 -23 386 5 34
5 62 0 62 -4 0 -8 -15 -8 -33z"/>
<path d="M1508 2183 c7 -3 16 -2 19 1 4 3 -2 6 -13 5 -11 0 -14 -3 -6 -6z"/>
<path d="M2088 2183 c6 -2 18 -2 25 0 6 3 1 5 -13 5 -14 0 -19 -2 -12 -5z"/>
<path d="M1975 2171 c-3 -6 4 -8 16 -6 30 6 37 15 11 15 -11 0 -23 -4 -27 -9z"/>
<path d="M6468 2160 c-20 -11 -40 -25 -43 -31 -4 -6 11 -1 33 10 22 11 43 25
47 31 8 13 7 13 -37 -10z"/>
<path d="M9571 2164 c0 -11 3 -14 6 -6 3 7 2 16 -1 19 -3 4 -6 -2 -5 -13z"/>
<path d="M1665 2159 c51 -10 92 -10 50 1 -16 4 -43 8 -60 8 -25 0 -24 -2 10
-9z"/>
<path d="M1856 2159 c3 -5 12 -9 21 -9 19 0 9 13 -12 16 -8 1 -13 -2 -9 -7z"/>
<path d="M4954 2153 c-3 -10 -11 -30 -19 -45 -11 -22 -11 -26 0 -22 14 6 24
25 31 62 5 26 -4 30 -12 5z"/>
<path d="M8322 1887 c1 -158 5 -287 8 -287 4 0 4 -21 0 -47 -6 -34 -4 -50 6
-58 7 -5 15 -21 18 -35 5 -25 -3 419 -10 515 -18 279 -25 251 -22 -88z"/>
<path d="M8465 2150 c-12 -38 11 -692 26 -738 5 -17 7 18 4 98 -3 69 -8 244
-11 390 -3 146 -8 266 -9 268 -2 2 -6 -6 -10 -18z"/>
<path d="M9365 2150 c-10 -11 -16 -22 -14 -24 2 -2 12 7 22 20 22 29 17 32 -8
4z"/>
<path d="M4794 2141 c7 -11 46 -35 46 -28 0 3 -12 12 -26 22 -15 9 -23 12 -20
6z"/>
<path d="M7236 2128 c3 -4 11 -5 19 -1 21 7 19 12 -4 10 -11 0 -18 -5 -15 -9z"/>
<path d="M9582 2110 c0 -14 2 -19 5 -12 2 6 2 18 0 25 -3 6 -5 1 -5 -13z"/>
<path d="M8381 2104 c0 -11 3 -14 6 -6 3 7 2 16 -1 19 -3 4 -6 -2 -5 -13z"/>
<path d="M9326 2093 c-6 -14 -5 -15 5 -6 7 7 10 15 7 18 -3 3 -9 -2 -12 -12z"/>
<path d="M7415 2070 c-3 -6 1 -7 9 -4 18 7 21 14 7 14 -6 0 -13 -4 -16 -10z"/>
<path d="M8431 2064 c0 -11 3 -14 6 -6 3 7 2 16 -1 19 -3 4 -6 -2 -5 -13z"/>
<path d="M9265 2040 c-3 -5 -2 -10 4 -10 5 0 13 5 16 10 3 6 2 10 -4 10 -5 0
-13 -4 -16 -10z"/>
<path d="M9220 2020 c-23 -7 -23 -8 -3 -9 12 -1 25 4 28 9 3 6 5 10 3 9 -2 -1
-14 -5 -28 -9z"/>
<path d="M7045 2000 c-16 -7 -17 -9 -3 -9 9 -1 20 4 23 9 7 11 7 11 -20 0z"/>
<path d="M9102 1990 c-18 -4 -36 -11 -39 -14 -8 -7 53 4 82 15 25 10 1 9 -43
-1z"/>
<path d="M3904 1981 c3 -4 20 -14 37 -22 28 -11 30 -14 13 -20 -15 -6 -13 -8
11 -8 17 -1 54 -8 83 -15 38 -10 52 -11 52 -3 0 8 4 7 9 -2 5 -7 13 -11 19 -7
6 3 12 2 14 -2 1 -5 16 -12 31 -16 18 -4 26 -3 23 3 -4 5 17 1 46 -8 60 -21
152 -36 128 -22 -16 10 -188 65 -230 75 -14 3 -54 8 -89 11 -35 3 -81 15 -102
26 -42 21 -53 24 -45 10z"/>
<path d="M6985 1980 c-11 -5 -41 -16 -68 -26 -26 -9 -45 -19 -43 -21 5 -6 127
37 141 49 12 10 -3 10 -30 -2z"/>
<path d="M6775 1910 c-3 -6 1 -7 9 -4 18 7 21 14 7 14 -6 0 -13 -4 -16 -10z"/>
<path d="M7571 1904 c0 -11 3 -14 6 -6 3 7 2 16 -1 19 -3 4 -6 -2 -5 -13z"/>
<path d="M8441 1844 c0 -11 3 -14 6 -6 3 7 2 16 -1 19 -3 4 -6 -2 -5 -13z"/>
<path d="M2373 1805 c0 -27 2 -38 4 -22 2 15 2 37 0 50 -2 12 -4 0 -4 -28z"/>
<path d="M4401 1833 c8 -9 39 -34 69 -56 92 -67 103 -83 96 -136 -5 -45 -5
-45 6 -12 9 25 9 41 0 64 -9 24 -9 33 1 39 8 5 7 8 -5 8 -9 0 -21 6 -25 14 -8
14 -135 96 -148 96 -4 0 -1 -7 6 -17z"/>
<path d="M1380 1825 c0 -8 4 -15 10 -15 5 0 7 7 4 15 -4 8 -8 15 -10 15 -2 0
-4 -7 -4 -15z"/>
<path d="M8800 1830 c-9 -6 -10 -10 -3 -10 6 0 15 5 18 10 8 12 4 12 -15 0z"/>
<path d="M8755 1811 c-3 -5 0 -13 6 -17 7 -4 9 -3 5 4 -3 5 0 13 6 15 9 4 10
6 1 6 -6 1 -14 -3 -18 -8z"/>
<path d="M8702 1785 c-30 -16 -38 -25 -21 -25 15 1 55 28 48 33 -2 2 -14 -2
-27 -8z"/>
<path d="M1380 1752 c0 -12 4 -22 9 -22 10 0 9 26 -2 36 -4 4 -7 -2 -7 -14z"/>
<path d="M4688 1748 c-12 -12 -32 -18 -60 -18 -30 0 -39 -3 -28 -9 8 -6 17 -8
21 -5 4 2 10 -2 12 -8 4 -9 8 -10 14 -2 4 6 18 14 30 18 11 4 24 14 27 23 9
22 4 23 -16 1z"/>
<path d="M6602 1728 c2 -27 12 -39 52 -65 46 -32 76 -41 76 -25 0 4 -26 21
-58 38 -48 25 -57 34 -57 57 1 15 -3 27 -8 27 -4 0 -7 -15 -5 -32z"/>
<path d="M8623 1750 c-34 -14 -28 -21 7 -9 17 6 30 13 30 15 0 6 -12 4 -37 -6z"/>
<path d="M1383 1701 c0 -11 5 -18 9 -15 4 3 5 11 1 19 -7 21 -12 19 -10 -4z"/>
<path d="M2373 1655 c0 -22 2 -30 4 -17 2 12 2 30 0 40 -3 9 -5 -1 -4 -23z"/>
<path d="M7160 1685 c-8 -2 -32 -6 -52 -10 -71 -11 -38 -20 75 -20 106 0 112
-1 109 -20 -2 -17 -1 -17 8 -5 8 12 12 12 18 2 7 -10 11 -10 22 3 17 21 11 25
-62 41 -62 13 -88 15 -118 9z"/>
<path d="M7428 1683 c7 -3 16 -2 19 1 4 3 -2 6 -13 5 -11 0 -14 -3 -6 -6z"/>
<path d="M690 1671 c0 -5 9 -7 20 -4 11 3 20 7 20 9 0 2 -9 4 -20 4 -11 0 -20
-4 -20 -9z"/>
<path d="M7370 1670 c-13 -8 -12 -10 3 -10 9 0 17 5 17 10 0 12 -1 12 -20 0z"/>
<path d="M530 1655 c-201 -23 -269 -35 -192 -35 18 0 32 -4 32 -10 0 -15 28
-12 57 8 19 12 25 13 18 3 -6 -11 -4 -13 11 -7 10 4 33 9 49 11 81 8 140 18
145 25 3 4 12 10 20 13 23 8 -9 7 -140 -8z"/>
<path d="M3574 1657 c-9 -23 4 -565 15 -617 6 -30 7 69 4 290 -3 184 -7 337
-9 339 -2 2 -6 -3 -10 -12z"/>
<path d="M3930 1661 c0 -6 9 -11 20 -11 11 0 20 -5 20 -11 0 -5 8 -9 18 -8 19
2 65 -8 97 -21 33 -14 81 -22 70 -12 -13 11 -86 37 -146 51 -26 6 -54 13 -63
17 -9 3 -16 1 -16 -5z"/>
<path d="M7029 1665 c-6 -5 -162 -23 -231 -26 -26 -2 -45 -5 -43 -8 16 -16
135 -16 215 0 77 15 90 19 90 30 0 9 -23 13 -31 4z"/>
<path d="M1380 1609 c0 -48 6 -49 13 -2 3 18 1 35 -4 39 -5 3 -9 -14 -9 -37z"/>
<path d="M2679 1569 c-1 -92 2 -375 6 -449 1 -30 3 -104 5 -165 1 -69 5 -101
10 -85 13 46 0 754 -15 769 -3 2 -5 -29 -6 -70z"/>
<path d="M7090 1633 c0 -5 27 -6 60 -5 39 3 60 0 60 -7 0 -6 7 -11 15 -11 8 0
15 6 15 13 0 8 3 7 10 -3 5 -8 12 -11 17 -7 15 16 -24 27 -99 27 -43 0 -78 -3
-78 -7z"/>
<path d="M275 1620 c-19 -8 -19 -9 3 -9 12 -1 22 4 22 9 0 6 -1 10 -2 9 -2 0
-12 -4 -23 -9z"/>
<path d="M2400 1626 c0 -3 12 -12 28 -20 23 -13 24 -15 7 -16 -18 -1 -18 -2 3
-10 31 -13 152 -33 158 -27 3 3 -16 10 -43 16 -26 7 -55 13 -63 16 -8 2 -19 4
-24 4 -5 1 -7 4 -3 7 3 3 40 0 81 -7 95 -15 108 -7 24 14 -75 18 -168 31 -168
23z"/>
<path d="M7048 1623 c7 -3 16 -2 19 1 4 3 -2 6 -13 5 -11 0 -14 -3 -6 -6z"/>
<path d="M9275 1620 c3 -5 8 -10 11 -10 2 0 4 5 4 10 0 6 -5 10 -11 10 -5 0
-7 -4 -4 -10z"/>
<path d="M9308 1623 c7 -3 16 -2 19 1 4 3 -2 6 -13 5 -11 0 -14 -3 -6 -6z"/>
<path d="M9355 1620 c11 -5 29 -8 40 -8 16 0 15 2 -5 8 -34 11 -60 11 -35 0z"/>
<path d="M7008 1613 c7 -3 16 -2 19 1 4 3 -2 6 -13 5 -11 0 -14 -3 -6 -6z"/>
<path d="M7156 1608 c-13 -7 -56 -9 -127 -5 -94 5 -141 0 -198 -19 -8 -2 -12
-7 -9 -9 3 -3 37 1 77 10 84 18 91 18 71 5 -10 -7 10 -9 63 -6 57 3 81 0 91
-10 9 -9 28 -12 57 -8 24 3 99 5 166 6 67 0 127 5 135 10 8 5 -57 7 -165 4
-114 -4 -176 -2 -172 4 3 6 12 10 20 10 8 0 17 5 20 10 8 13 -5 12 -29 -2z"/>
<path d="M2372 1590 c0 -14 2 -19 5 -12 2 6 2 18 0 25 -3 6 -5 1 -5 -13z"/>
<path d="M9156 1601 c-4 -5 3 -7 14 -4 23 6 26 13 6 13 -8 0 -17 -4 -20 -9z"/>
<path d="M9541 1592 c-6 -11 -18 -28 -27 -37 -13 -12 -14 -19 -5 -28 8 -8 11
-7 11 5 0 8 10 27 21 42 12 15 19 29 16 32 -3 3 -10 -3 -16 -14z"/>
<path d="M313 1593 c9 -2 25 -2 35 0 9 3 1 5 -18 5 -19 0 -27 -2 -17 -5z"/>
<path d="M6742 1588 c3 -7 13 -13 24 -14 16 -1 16 0 1 3 -9 3 -15 9 -12 14 4
5 1 9 -5 9 -7 0 -10 -6 -8 -12z"/>
<path d="M7515 1590 c-3 -5 -1 -10 4 -10 6 0 11 5 11 10 0 6 -2 10 -4 10 -3 0
-8 -4 -11 -10z"/>
<path d="M8453 1565 c0 -22 2 -30 4 -17 2 12 2 30 0 40 -3 9 -5 -1 -4 -23z"/>
<path d="M268 1583 c7 -3 16 -2 19 1 4 3 -2 6 -13 5 -11 0 -14 -3 -6 -6z"/>
<path d="M902 1574 c10 -10 20 -16 22 -13 3 3 -5 11 -17 18 -21 13 -21 12 -5
-5z"/>
<path d="M7575 1575 c2 -11 4 -23 4 -27 1 -5 7 -8 14 -8 7 0 18 -15 25 -32 6
-18 20 -38 31 -45 18 -11 18 -10 7 19 -14 40 -86 122 -81 93z"/>
<path d="M218 1573 c7 -3 16 -2 19 1 4 3 -2 6 -13 5 -11 0 -14 -3 -6 -6z"/>
<path d="M6916 1573 c-3 -4 -25 -10 -49 -14 -40 -6 -39 -7 18 -7 33 0 85 4
115 8 l55 8 -58 -1 c-31 -1 -57 1 -57 6 0 9 -14 9 -24 0z"/>
<path d="M148 1563 c7 -3 16 -2 19 1 4 3 -2 6 -13 5 -11 0 -14 -3 -6 -6z"/>
<path d="M8955 1553 c-8 -10 -14 -21 -13 -25 2 -4 -15 -20 -37 -36 -22 -16
-47 -37 -55 -48 -10 -14 -7 -13 11 4 14 12 55 38 90 58 35 20 55 33 44 29 -58
-21 -62 -20 -36 9 14 14 21 26 18 26 -4 0 -14 -8 -22 -17z"/>
<path d="M890 1554 c0 -2 22 -15 49 -29 27 -13 99 -56 159 -94 141 -89 153
-95 147 -79 -5 12 -22 25 -100 71 -31 19 -68 52 -50 46 6 -2 43 -21 84 -42 40
-21 75 -36 78 -33 7 6 -145 80 -167 81 -8 1 -14 7 -12 14 1 7 -2 9 -8 6 -6 -4
-28 4 -48 17 -20 14 -48 31 -62 38 -23 12 -24 12 -11 -3 8 -10 9 -17 3 -17 -6
0 -13 4 -16 9 -6 9 -46 22 -46 15z"/>
<path d="M2371 1544 c0 -11 3 -14 6 -6 3 7 2 16 -1 19 -3 4 -6 -2 -5 -13z"/>
<path d="M4220 1540 c-24 -8 -23 -8 8 -9 17 -1 32 4 32 9 0 11 -5 11 -40 0z"/>
<path d="M4363 1480 c0 -41 2 -58 4 -37 2 20 2 54 0 75 -2 20 -4 3 -4 -38z"/>
<path d="M6355 1533 l-120 -12 120 6 c66 3 190 9 275 13 l155 7 -155 -1 c-85
0 -209 -6 -275 -13z"/>
<path d="M4011 1522 c-34 -2 -59 -7 -56 -11 2 -5 -6 -8 -20 -8 -14 0 -22 4
-19 9 4 6 -4 4 -17 -2 -16 -9 -53 -11 -118 -8 -53 3 -82 2 -66 -2 47 -12 267
-12 260 0 -4 6 24 10 77 11 46 0 92 4 103 9 20 9 11 9 -144 2z"/>
<path d="M2372 1500 c0 -14 2 -19 5 -12 2 6 2 18 0 25 -3 6 -5 1 -5 -13z"/>
<path d="M6127 1513 c18 -2 50 -2 70 0 21 2 7 4 -32 4 -38 0 -55 -2 -38 -4z"/>
<path d="M9476 1503 c-6 -14 -5 -15 5 -6 7 7 10 15 7 18 -3 3 -9 -2 -12 -12z"/>
<path d="M2373 1435 c0 -22 2 -30 4 -17 2 12 2 30 0 40 -3 9 -5 -1 -4 -23z"/>
<path d="M5400 1457 c-129 -4 -239 -12 -244 -17 -5 -5 14 -7 45 -5 30 1 146 6
259 10 113 4 206 8 208 10 10 9 -60 9 -268 2z"/>
<path d="M5684 1463 c7 -8 167 -5 175 3 2 2 -38 4 -89 4 -51 0 -90 -3 -86 -7z"/>
<path d="M5878 1463 c6 -2 18 -2 25 0 6 3 1 5 -13 5 -14 0 -19 -2 -12 -5z"/>
<path d="M5933 1463 c9 -2 23 -2 30 0 6 3 -1 5 -18 5 -16 0 -22 -2 -12 -5z"/>
<path d="M7948 1463 c7 -3 16 -2 19 1 4 3 -2 6 -13 5 -11 0 -14 -3 -6 -6z"/>
<path d="M4898 1443 c7 -3 16 -2 19 1 4 3 -2 6 -13 5 -11 0 -14 -3 -6 -6z"/>
<path d="M1391 1424 c0 -11 3 -14 6 -6 3 7 2 16 -1 19 -3 4 -6 -2 -5 -13z"/>
<path d="M8068 1433 c7 -3 16 -2 19 1 4 3 -2 6 -13 5 -11 0 -14 -3 -6 -6z"/>
<path d="M8305 1399 c18 -5 33 -5 39 1 7 7 -4 10 -29 9 -40 -1 -40 -1 -10 -10z"/>
<path d="M10020 1375 c13 -14 26 -25 28 -25 3 0 -5 11 -18 25 -13 14 -26 25
-28 25 -3 0 5 -11 18 -25z"/>
<path d="M2371 1338 c-1 -32 3 -58 8 -58 11 0 12 67 1 94 -6 15 -9 5 -9 -36z"/>
<path d="M1380 1360 c0 -13 18 -22 24 -11 3 5 -1 11 -9 15 -8 3 -15 1 -15 -4z"/>
<path d="M2458 1353 c34 -2 88 -2 120 0 31 2 3 3 -63 3 -66 0 -92 -1 -57 -3z"/>
<path d="M5179 1289 l-44 -41 48 38 c26 21 47 40 47 41 0 8 -11 0 -51 -38z"/>
<path d="M7788 1323 c7 -3 16 -2 19 1 4 3 -2 6 -13 5 -11 0 -14 -3 -6 -6z"/>
<path d="M1923 1273 c9 -2 23 -2 30 0 6 3 -1 5 -18 5 -16 0 -22 -2 -12 -5z"/>
<path d="M2008 1273 c6 -2 18 -2 25 0 6 3 1 5 -13 5 -14 0 -19 -2 -12 -5z"/>
<path d="M2379 1258 c-3 -30 3 -283 7 -287 2 -2 4 64 4 147 0 84 -2 152 -5
152 -3 0 -6 -6 -6 -12z"/>
<path d="M5124 1232 c-17 -11 -76 -103 -71 -109 3 -3 12 9 21 25 8 16 27 44
42 61 26 31 28 37 8 23z"/>
<path d="M1387 958 c3 -150 7 -275 9 -277 8 -8 3 524 -5 537 -4 7 -6 -110 -4
-260z"/>
<path d="M4635 1210 c10 -11 20 -20 23 -20 3 0 -3 9 -13 20 -10 11 -20 20 -23
20 -3 0 3 -9 13 -20z"/>
<path d="M9623 1196 c-25 -29 -84 -128 -80 -133 3 -3 15 13 26 36 12 22 35 56
52 76 17 19 27 35 23 35 -5 -1 -14 -7 -21 -14z"/>
<path d="M2838 1183 c7 -3 16 -2 19 1 4 3 -2 6 -13 5 -11 0 -14 -3 -6 -6z"/>
<path d="M2958 1153 c6 -2 18 -2 25 0 6 3 1 5 -13 5 -14 0 -19 -2 -12 -5z"/>
<path d="M908 1133 c6 -2 18 -2 25 0 6 3 1 5 -13 5 -14 0 -19 -2 -12 -5z"/>
<path d="M838 1123 c7 -3 16 -2 19 1 4 3 -2 6 -13 5 -11 0 -14 -3 -6 -6z"/>
<path d="M788 1113 c7 -3 16 -2 19 1 4 3 -2 6 -13 5 -11 0 -14 -3 -6 -6z"/>
<path d="M1684 1110 c16 -5 108 -11 205 -14 167 -4 169 -4 46 4 -71 4 -164 11
-205 14 -52 3 -66 2 -46 -4z"/>
<path d="M2138 1113 c6 -2 18 -2 25 0 6 3 1 5 -13 5 -14 0 -19 -2 -12 -5z"/>
<path d="M2083 1103 c9 -2 23 -2 30 0 6 3 -1 5 -18 5 -16 0 -22 -2 -12 -5z"/>
<path d="M7334 1058 l-29 -33 33 29 c17 17 32 31 32 33 0 8 -8 1 -36 -29z"/>
<path d="M1040 1055 c-30 -7 -46 -13 -35 -13 11 -1 47 5 80 12 33 8 49 14 35
14 -14 0 -50 -6 -80 -13z"/>
<path d="M468 1053 c7 -3 16 -2 19 1 4 3 -2 6 -13 5 -11 0 -14 -3 -6 -6z"/>
<path d="M1131 1046 c2 -2 40 -6 84 -9 57 -4 69 -3 40 3 -40 9 -132 13 -124 6z"/>
<path d="M893 1033 c-18 -2 -33 -8 -33 -14 0 -9 45 -5 95 10 l30 9 -30 0 c-16
-1 -45 -3 -62 -5z"/>
<path d="M1315 1020 c27 -12 43 -12 25 0 -8 5 -22 9 -30 9 -10 0 -8 -3 5 -9z"/>
<path d="M740 1011 c-22 -6 -23 -8 -7 -14 11 -4 23 -4 29 -1 6 4 27 9 47 11
20 3 38 7 40 9 7 7 -82 3 -109 -5z"/>
<path d="M1044 988 l-29 -33 33 29 c30 28 37 36 29 36 -2 0 -16 -15 -33 -32z"/>
<path d="M627 990 c-53 -10 -59 -22 -9 -19 23 2 42 8 42 13 0 6 4 5 9 -2 6
-10 10 -10 21 3 14 17 3 18 -63 5z"/>
<path d="M7099 973 c-13 -16 -12 -17 4 -4 16 13 21 21 13 21 -2 0 -10 -8 -17
-17z"/>
<path d="M460 960 l-25 -8 28 -1 c15 -1 27 4 27 9 0 6 -1 10 -2 9 -2 -1 -14
-5 -28 -9z"/>
<path d="M518 963 c7 -3 16 -2 19 1 4 3 -2 6 -13 5 -11 0 -14 -3 -6 -6z"/>
<path d="M1210 946 c0 -2 7 -6 15 -10 8 -3 15 -1 15 4 0 6 -7 10 -15 10 -8 0
-15 -2 -15 -4z"/>
<path d="M458 933 c7 -3 16 -2 19 1 4 3 -2 6 -13 5 -11 0 -14 -3 -6 -6z"/>
<path d="M1282 920 c20 -11 42 -28 47 -37 6 -10 11 -13 11 -6 0 16 -58 63 -78
63 -10 -1 0 -10 20 -20z"/>
<path d="M2224 918 l-19 -23 23 19 c21 18 27 26 19 26 -2 0 -12 -10 -23 -22z"/>
<path d="M1131 901 c-12 -16 -21 -37 -21 -48 1 -12 5 -8 14 12 7 17 21 39 30
48 10 9 13 17 7 17 -5 0 -19 -13 -30 -29z"/>
<path d="M7062 910 c0 -14 2 -19 5 -12 2 6 2 18 0 25 -3 6 -5 1 -5 -13z"/>
<path d="M388 913 c7 -3 16 -2 19 1 4 3 -2 6 -13 5 -11 0 -14 -3 -6 -6z"/>
<path d="M3350 893 c-18 -7 -112 -93 -102 -93 4 0 23 15 43 33 19 17 45 40 59
49 26 18 26 20 0 11z"/>
<path d="M8390 886 c0 -2 8 -10 18 -17 15 -13 16 -12 3 4 -13 16 -21 21 -21
13z"/>
<path d="M7045 850 c-4 -17 -5 -34 -2 -36 2 -3 7 10 11 27 8 42 0 50 -9 9z"/>
<path d="M991 844 c0 -11 3 -14 6 -6 3 7 2 16 -1 19 -3 4 -6 -2 -5 -13z"/>
<path d="M1120 810 c-1 -43 96 -143 193 -200 58 -34 44 -16 -20 27 -73 48
-140 114 -158 156 -8 18 -14 25 -15 17z"/>
<path d="M1000 797 c0 -56 156 -210 270 -266 17 -9 13 -2 -15 23 -22 19 -46
35 -53 36 -22 0 -157 137 -180 182 -12 24 -22 35 -22 25z"/>
<path d="M3198 793 c7 -3 16 -2 19 1 4 3 -2 6 -13 5 -11 0 -14 -3 -6 -6z"/>
<path d="M7033 755 c0 -27 2 -38 4 -22 2 15 2 37 0 50 -2 12 -4 0 -4 -28z"/>
<path d="M3024 718 l-19 -23 23 19 c21 18 27 26 19 26 -2 0 -12 -10 -23 -22z"/>
<path d="M9369 703 l-24 -28 28 24 c15 14 27 26 27 28 0 8 -8 1 -31 -24z"/>
<path d="M1310 671 c0 -10 26 -9 36 2 4 4 -2 7 -14 7 -12 0 -22 -4 -22 -9z"/>
<path d="M9330 649 c-7 -11 -10 -23 -7 -25 2 -2 9 7 15 21 14 30 7 33 -8 4z"/>
<path d="M948 623 c7 -3 16 -2 19 1 4 3 -2 6 -13 5 -11 0 -14 -3 -6 -6z"/>
<path d="M898 613 c7 -3 16 -2 19 1 4 3 -2 6 -13 5 -11 0 -14 -3 -6 -6z"/>
<path d="M1028 593 c-16 -2 -28 -9 -28 -14 0 -10 44 -2 70 12 17 9 10 10 -42
2z"/>
<path d="M940 571 c0 -5 -9 -7 -20 -4 -10 3 -68 -4 -127 -16 -59 -12 -130 -22
-158 -24 -27 -1 -56 -8 -63 -15 -8 -7 -18 -10 -23 -7 -5 3 -18 1 -29 -5 -15
-8 -20 -8 -20 1 0 8 -7 6 -19 -5 -13 -12 -21 -14 -26 -6 -4 7 -11 8 -18 1 -7
-5 -15 -10 -19 -10 -5 -1 -11 -2 -15 -2 -5 -1 -16 -1 -25 0 -10 1 -18 -2 -18
-7 0 -5 -9 -12 -20 -15 -11 -3 -20 0 -20 5 0 7 -5 6 -13 -1 -8 -6 -16 -8 -20
-5 -3 3 -15 3 -27 -1 -14 -4 -19 -10 -12 -17 6 -6 45 -3 108 7 132 21 451 85
482 96 42 16 35 3 -18 -35 -83 -59 -96 -121 -39 -172 50 -44 128 -93 134 -84
3 5 -13 19 -37 31 -103 52 -136 95 -112 145 8 16 24 34 37 40 12 5 21 15 19
22 -1 7 3 12 10 10 20 -4 58 21 58 37 0 8 5 15 11 15 5 0 7 -5 4 -10 -4 -6 5
-5 19 2 22 9 37 38 21 38 -3 0 -5 -4 -5 -9z"/>
<path d="M960 570 c0 -6 7 -10 15 -10 8 0 15 2 15 4 0 2 -7 6 -15 10 -8 3 -15
1 -15 -4z"/>
<path d="M1390 565 c0 -8 4 -15 10 -15 5 0 7 7 4 15 -4 8 -8 15 -10 15 -2 0
-4 -7 -4 -15z"/>
<path d="M9302 550 c0 -14 2 -19 5 -12 2 6 2 18 0 25 -3 6 -5 1 -5 -13z"/>
<path d="M1402 505 c0 -16 2 -22 5 -12 2 9 2 23 0 30 -3 6 -5 -1 -5 -18z"/>
<path d="M9289 492 c-3 -20 -2 -29 4 -23 5 5 7 19 5 32 -3 20 -5 19 -9 -9z"/>
<path d="M2356 495 c-11 -8 -15 -15 -9 -15 6 0 16 7 23 15 16 19 11 19 -14 0z"/>
<path d="M4290 496 c0 -2 8 -10 18 -17 15 -13 16 -12 3 4 -13 16 -21 21 -21
13z"/>
<path d="M1985 480 c-3 -6 1 -7 9 -4 18 7 21 14 7 14 -6 0 -13 -4 -16 -10z"/>
<path d="M9281 434 c0 -11 3 -14 6 -6 3 7 2 16 -1 19 -3 4 -6 -2 -5 -13z"/>
<path d="M778 417 c-14 -34 15 -67 102 -114 55 -29 193 -81 175 -65 -6 5 -46
24 -90 42 -99 42 -172 96 -177 130 -3 21 -4 22 -10 7z"/>
<path d="M7785 370 c10 -11 20 -20 23 -20 3 0 -3 9 -13 20 -10 11 -20 20 -23
20 -3 0 3 -9 13 -20z"/>
<path d="M5681 337 c2 -1 13 -9 24 -17 19 -14 19 -14 6 3 -7 9 -18 17 -24 17
-6 0 -8 -1 -6 -3z"/>
<path d="M7160 326 c0 -3 9 -10 20 -16 11 -6 20 -8 20 -6 0 3 -9 10 -20 16
-11 6 -20 8 -20 6z"/>
<path d="M937 239 c7 -7 15 -10 18 -7 3 3 -2 9 -12 12 -14 6 -15 5 -6 -5z"/>
<path d="M2448 243 c7 -3 16 -2 19 1 4 3 -2 6 -13 5 -11 0 -14 -3 -6 -6z"/>
<path d="M8082 140 c0 -14 2 -19 5 -12 2 6 2 18 0 25 -3 6 -5 1 -5 -13z"/>
</g>
</svg>
